<svg width="24" height="24" viewBox="0 0 24 24" fill="none" xmlns="http://www.w3.org/2000/svg">
<path d="M9.70801 18.3438V18.7088C9.70801 19.9738 10.734 20.9998 12 20.9998V20.9998C13.266 20.9998 14.292 19.9738 14.292 18.7078V18.3428" stroke="#4D5971" stroke-width="1.5" stroke-linecap="round" stroke-linejoin="round"/>
<path d="M13.833 5.751V4.833C13.833 3.821 13.013 3 12 3V3C10.987 3 10.167 3.821 10.167 4.833V5.751" stroke="#4D5971" stroke-width="1.5" stroke-linecap="round" stroke-linejoin="round"/>
<path d="M3 3L21 21" stroke="#4D5971" stroke-width="1.5" stroke-linecap="round" stroke-linejoin="round"/>
<path fill-rule="evenodd" clip-rule="evenodd" d="M19.9505 16.9708C19.9836 16.8038 20.001 16.631 20.001 16.4542C20.001 15.7251 19.7108 15.0254 19.1953 14.5099L18.5543 13.8689C18.3198 13.6344 18.188 13.3161 18.188 12.9852V10.1882C18.188 7.27212 15.8243 4.90723 12.907 4.90723H11.094C10.1688 4.90723 9.29913 5.14515 8.54284 5.56318L9.66587 6.68622C10.1065 6.50635 10.5887 6.40723 11.094 6.40723H12.907C14.9957 6.40723 16.688 8.10033 16.688 10.1882V12.9852C16.688 13.2808 16.7357 13.5715 16.8267 13.8471L19.9505 16.9708ZM18.0289 19.009L16.6141 17.5942H6.64C6.01021 17.5942 5.5 17.084 5.5 16.4542C5.5 16.1234 5.63182 15.8051 5.86633 15.5706L6.50733 14.9296C7.02282 14.4141 7.313 13.7144 7.313 12.9852V10.1882C7.313 9.63213 7.43302 9.10413 7.64854 8.62869L6.53716 7.51731C6.07693 8.30084 5.813 9.21364 5.813 10.1882V12.9852C5.813 13.3161 5.68118 13.6344 5.44667 13.8689L4.80567 14.5099C4.29018 15.0254 4 15.7251 4 16.4542C4 17.9124 5.18179 19.0942 6.64 19.0942H17.361C17.5917 19.0942 17.8156 19.0646 18.0289 19.009Z" fill="#4D5971"/>
</svg>
