<svg width="32" height="32" viewBox="0 0 32 32" fill="none" xmlns="http://www.w3.org/2000/svg">
<g clip-path="url(#clip0)">
<path d="M26 20V29.3333" stroke="#4D5971" stroke-width="1.5" stroke-linecap="round" stroke-linejoin="round"/>
<path d="M30.6667 24.666H21.3333" stroke="#4D5971" stroke-width="1.5" stroke-linecap="round" stroke-linejoin="round"/>
<path fill-rule="evenodd" clip-rule="evenodd" d="M10.5972 5.03911C10.7014 4.8605 10.8932 4.75 11.1013 4.75H18.1733C18.3779 4.75 18.5678 4.85724 18.6736 5.03248L18.6738 5.03278L20.6906 8.38651C20.8262 8.61205 21.0701 8.75 21.3333 8.75H24C25.0591 8.75 25.9167 9.60755 25.9167 10.6667V16.0297C26.1641 16.01 26.4142 16 26.6667 16C26.9191 16 27.1692 16.01 27.4167 16.0297V10.6667C27.4167 8.77912 25.8875 7.25 24 7.25H21.7575L19.9587 4.25882L19.9582 4.25789C19.5813 3.6333 18.9046 3.25 18.1733 3.25H11.1013C10.3603 3.25 9.67489 3.64334 9.30164 4.28317L9.30141 4.28356L7.56941 7.25H5.33332C3.44578 7.25 1.91666 8.77912 1.91666 10.6667V22.6667C1.91666 24.5542 3.44578 26.0833 5.33332 26.0833H17.363C17.3433 25.8359 17.3333 25.5858 17.3333 25.3333C17.3333 25.0809 17.3433 24.8307 17.363 24.5833H5.33332C4.2742 24.5833 3.41666 23.7258 3.41666 22.6667V10.6667C3.41666 9.60755 4.2742 8.75 5.33332 8.75H7.99999C8.26663 8.75 8.51323 8.60843 8.64767 8.37816L10.597 5.03949L10.5972 5.03911Z" fill="#4D5971"/>
<path d="M18.4083 12.223C20.4843 14.2991 20.4843 17.665 18.4083 19.741C16.3323 21.817 12.9664 21.817 10.8904 19.741C8.81434 17.665 8.81434 14.2991 10.8904 12.223C12.9664 10.147 16.3323 10.147 18.4083 12.223" stroke="#4D5971" stroke-width="1.5" stroke-linecap="round" stroke-linejoin="round"/>
</g>
<defs>
<clipPath id="clip0">
<rect width="32" height="32" fill="white"/>
</clipPath>
</defs>
</svg>
