<svg width="24" height="24" viewBox="0 0 24 24" fill="none" xmlns="http://www.w3.org/2000/svg">
<g clip-path="url(#clip0)">
<path d="M19.5 15V22" stroke="white" stroke-width="1.5" stroke-linecap="round" stroke-linejoin="round"/>
<path d="M23 18.5H16" stroke="white" stroke-width="1.5" stroke-linecap="round" stroke-linejoin="round"/>
<path fill-rule="evenodd" clip-rule="evenodd" d="M8.10991 3.87377C8.15438 3.7975 8.23652 3.75 8.326 3.75H13.63C13.7176 3.75 13.7991 3.79592 13.8447 3.87118L13.8448 3.87144L15.3573 6.38651C15.4929 6.61205 15.7368 6.75 16 6.75H18C18.6908 6.75 19.25 7.30921 19.25 8V12.0397C19.4964 12.0135 19.7466 12 20 12C20.2534 12 20.5036 12.0135 20.75 12.0397V8C20.75 6.48079 19.5192 5.25 18 5.25H16.4242L15.1297 3.09749L15.1292 3.09656C14.8127 2.57197 14.2443 2.25 13.63 2.25H8.326C7.70363 2.25 7.1279 2.58034 6.81432 3.11784L6.81409 3.11823L5.56942 5.25H4C2.48079 5.25 1.25 6.48079 1.25 8V17C1.25 18.5192 2.48079 19.75 4 19.75H13.0397C13.0135 19.5036 13 19.2534 13 19C13 18.7466 13.0135 18.4964 13.0397 18.25H4C3.30921 18.25 2.75 17.6908 2.75 17V8C2.75 7.30921 3.30921 6.75 4 6.75H6C6.26664 6.75 6.51324 6.60843 6.64768 6.37816L8.10968 3.87416L8.10991 3.87377Z" fill="white"/>
<path d="M13.8062 9.16776C15.3633 10.7248 15.3633 13.2492 13.8062 14.8062C12.2492 16.3633 9.72478 16.3633 8.16776 14.8062C6.61074 13.2492 6.61074 10.7248 8.16776 9.16776C9.72478 7.61074 12.2492 7.61074 13.8062 9.16776" stroke="white" stroke-width="1.5" stroke-linecap="round" stroke-linejoin="round"/>
</g>
<defs>
<clipPath id="clip0">
<rect width="24" height="24" fill="white"/>
</clipPath>
</defs>
</svg>
