<svg width="275" height="203" viewBox="0 0 275 203" fill="none" xmlns="http://www.w3.org/2000/svg">
<path d="M137.5 202.907C196.395 202.907 244.139 200.12 244.139 196.681C244.139 193.243 196.395 190.455 137.5 190.455C78.6045 190.455 30.8604 193.243 30.8604 196.681C30.8604 200.12 78.6045 202.907 137.5 202.907Z" fill="#F5F5F5"/>
<path d="M60.3177 73.5619C56.1458 73.5619 54.183 69.3648 54.1009 69.1881C54.0295 68.9916 54.0345 68.7755 54.1151 68.5825C54.1956 68.3896 54.3457 68.234 54.5356 68.1466C54.7255 68.0592 54.9413 68.0464 55.1402 68.1107C55.3391 68.175 55.5066 68.3118 55.6094 68.4938C55.6094 68.5506 57.2693 71.9904 60.4439 71.902C60.6526 71.9138 60.8492 72.0035 60.9948 72.1535C61.1404 72.3035 61.2243 72.5027 61.2299 72.7116C61.2354 72.9206 61.1622 73.124 61.0248 73.2815C60.8874 73.439 60.6959 73.5391 60.4881 73.5619H60.3177Z" fill="#407BFF"/>
<path d="M114.843 15.2759C114.48 15.2775 114.117 15.2543 113.757 15.2064C113.65 15.1903 113.546 15.1531 113.453 15.0969C113.359 15.0407 113.278 14.9667 113.213 14.8791C113.148 14.7915 113.102 14.692 113.075 14.5862C113.049 14.4805 113.044 14.3706 113.06 14.2629C113.076 14.1551 113.113 14.0516 113.17 13.9583C113.226 13.8649 113.3 13.7835 113.387 13.7188C113.475 13.654 113.574 13.6071 113.68 13.5808C113.786 13.5545 113.896 13.5493 114.004 13.5655C114.041 13.5655 117.841 14.1019 119.507 11.3943C119.564 11.3015 119.638 11.2208 119.726 11.1567C119.814 11.0927 119.914 11.0466 120.02 11.0211C120.126 10.9956 120.235 10.9912 120.343 11.0081C120.45 11.0251 120.553 11.063 120.646 11.1198C120.739 11.1766 120.82 11.2511 120.884 11.339C120.948 11.427 120.994 11.5267 121.02 11.6325C121.045 11.7383 121.049 11.8481 121.033 11.9556C121.016 12.0631 120.978 12.1662 120.921 12.259C119.261 14.8846 116.389 15.2759 114.843 15.2759Z" fill="#407BFF"/>
<path opacity="0.6" d="M114.843 15.2759C114.48 15.2775 114.117 15.2543 113.757 15.2064C113.65 15.1903 113.546 15.1531 113.453 15.0969C113.359 15.0407 113.278 14.9667 113.213 14.8791C113.148 14.7915 113.102 14.692 113.075 14.5862C113.049 14.4805 113.044 14.3706 113.06 14.2629C113.076 14.1551 113.113 14.0516 113.17 13.9583C113.226 13.8649 113.3 13.7835 113.387 13.7188C113.475 13.654 113.574 13.6071 113.68 13.5808C113.786 13.5545 113.896 13.5493 114.004 13.5655C114.041 13.5655 117.841 14.1019 119.507 11.3943C119.564 11.3015 119.638 11.2208 119.726 11.1567C119.814 11.0927 119.914 11.0466 120.02 11.0211C120.126 10.9956 120.235 10.9912 120.343 11.0081C120.45 11.0251 120.553 11.063 120.646 11.1198C120.739 11.1766 120.82 11.2511 120.884 11.339C120.948 11.427 120.994 11.5267 121.02 11.6325C121.045 11.7383 121.049 11.8481 121.033 11.9556C121.016 12.0631 120.978 12.1662 120.921 12.259C119.261 14.8846 116.389 15.2759 114.843 15.2759Z" fill="white"/>
<path d="M21.1801 46.8834C19.5788 46.8289 18.0237 46.3331 16.6864 45.4507C16.592 45.3902 16.511 45.3112 16.4481 45.2185C16.3852 45.1257 16.3419 45.0212 16.3206 44.9111C16.2994 44.8011 16.3008 44.6879 16.3246 44.5784C16.3485 44.469 16.3944 44.3655 16.4595 44.2743C16.5245 44.1831 16.6075 44.106 16.7033 44.0479C16.799 43.9897 16.9056 43.9516 17.0166 43.9359C17.1275 43.9202 17.2405 43.9272 17.3487 43.9565C17.4568 43.9858 17.5579 44.0368 17.6457 44.1063C17.6773 44.1063 20.8583 46.2585 23.5406 44.5481C23.6325 44.4813 23.7371 44.434 23.8479 44.4091C23.9587 44.3842 24.0735 44.3822 24.1851 44.4033C24.2967 44.4243 24.4028 44.468 24.497 44.5316C24.5911 44.5952 24.6712 44.6773 24.7324 44.773C24.7936 44.8687 24.8346 44.9759 24.8529 45.088C24.8711 45.2001 24.8663 45.3148 24.8386 45.425C24.8109 45.5351 24.761 45.6385 24.6919 45.7286C24.6228 45.8188 24.536 45.8939 24.4368 45.9493C23.4645 46.5692 22.3332 46.8937 21.1801 46.8834Z" fill="#407BFF"/>
<path opacity="0.6" d="M21.1801 46.8834C19.5788 46.8289 18.0237 46.3331 16.6864 45.4507C16.592 45.3902 16.511 45.3112 16.4481 45.2185C16.3852 45.1257 16.3419 45.0212 16.3206 44.9111C16.2994 44.8011 16.3008 44.6879 16.3246 44.5784C16.3485 44.469 16.3944 44.3655 16.4595 44.2743C16.5245 44.1831 16.6075 44.106 16.7033 44.0479C16.799 43.9897 16.9056 43.9516 17.0166 43.9359C17.1275 43.9202 17.2405 43.9272 17.3487 43.9565C17.4568 43.9858 17.5579 44.0368 17.6457 44.1063C17.6773 44.1063 20.8583 46.2585 23.5406 44.5481C23.6325 44.4813 23.7371 44.434 23.8479 44.4091C23.9587 44.3842 24.0735 44.3822 24.1851 44.4033C24.2967 44.4243 24.4028 44.468 24.497 44.5316C24.5911 44.5952 24.6712 44.6773 24.7324 44.773C24.7936 44.8687 24.8346 44.9759 24.8529 45.088C24.8711 45.2001 24.8663 45.3148 24.8386 45.425C24.8109 45.5351 24.761 45.6385 24.6919 45.7286C24.6228 45.8188 24.536 45.8939 24.4368 45.9493C23.4645 46.5692 22.3332 46.8937 21.1801 46.8834Z" fill="white"/>
<path d="M237.683 24.7498C236.084 24.7067 234.528 24.2265 233.183 23.3613C233.002 23.2366 232.878 23.0452 232.839 22.8292C232.799 22.6131 232.847 22.3902 232.972 22.2094C233.096 22.0287 233.288 21.9048 233.504 21.8652C233.72 21.8255 233.943 21.8733 234.123 21.998C234.155 21.998 237.342 24.1439 240.025 22.4398C240.116 22.3814 240.218 22.3416 240.325 22.3226C240.432 22.3037 240.542 22.306 240.648 22.3294C240.754 22.3529 240.855 22.397 240.944 22.4593C241.033 22.5215 241.109 22.6007 241.167 22.6923C241.225 22.7839 241.265 22.8861 241.284 22.993C241.303 23.1 241.301 23.2097 241.277 23.3157C241.254 23.4218 241.21 23.5222 241.148 23.6113C241.085 23.7003 241.006 23.7762 240.915 23.8346C239.949 24.4466 238.826 24.7645 237.683 24.7498Z" fill="#407BFF"/>
<path opacity="0.6" d="M237.683 24.7498C236.084 24.7067 234.528 24.2265 233.183 23.3613C233.002 23.2366 232.878 23.0452 232.839 22.8292C232.799 22.6131 232.847 22.3902 232.972 22.2094C233.096 22.0287 233.288 21.9048 233.504 21.8652C233.72 21.8255 233.943 21.8733 234.123 21.998C234.155 21.998 237.342 24.1439 240.025 22.4398C240.116 22.3814 240.218 22.3416 240.325 22.3226C240.432 22.3037 240.542 22.306 240.648 22.3294C240.754 22.3529 240.855 22.397 240.944 22.4593C241.033 22.5215 241.109 22.6007 241.167 22.6923C241.225 22.7839 241.265 22.8861 241.284 22.993C241.303 23.1 241.301 23.2097 241.277 23.3157C241.254 23.4218 241.21 23.5222 241.148 23.6113C241.085 23.7003 241.006 23.7762 240.915 23.8346C239.949 24.4466 238.826 24.7645 237.683 24.7498Z" fill="white"/>
<path d="M136.181 89.9403C132.312 89.9403 130.204 86.1913 130.109 86.0209C130.003 85.8284 129.977 85.6016 130.038 85.3903C130.099 85.179 130.242 85.0006 130.434 84.8943C130.627 84.788 130.854 84.7626 131.065 84.8235C131.276 84.8845 131.455 85.0269 131.561 85.2194C131.561 85.2698 133.454 88.5771 136.61 88.2552C136.821 88.2479 137.027 88.321 137.186 88.4597C137.345 88.5984 137.446 88.7923 137.467 89.0024C137.489 89.2124 137.43 89.4228 137.303 89.5911C137.175 89.7593 136.988 89.8729 136.78 89.9088C136.591 89.9277 136.383 89.9403 136.181 89.9403Z" fill="#407BFF"/>
<path opacity="0.6" d="M136.181 89.9403C132.312 89.9403 130.204 86.1913 130.109 86.0209C130.003 85.8284 129.977 85.6016 130.038 85.3903C130.099 85.179 130.242 85.0006 130.434 84.8943C130.627 84.788 130.854 84.7626 131.065 84.8235C131.276 84.8845 131.455 85.0269 131.561 85.2194C131.561 85.2698 133.454 88.5771 136.61 88.2552C136.821 88.2479 137.027 88.321 137.186 88.4597C137.345 88.5984 137.446 88.7923 137.467 89.0024C137.489 89.2124 137.43 89.4228 137.303 89.5911C137.175 89.7593 136.988 89.8729 136.78 89.9088C136.591 89.9277 136.383 89.9403 136.181 89.9403Z" fill="white"/>
<path d="M30.2681 106.799C30.0671 106.797 29.8736 106.722 29.7238 106.588C29.574 106.454 29.4781 106.27 29.4541 106.071C29.4302 105.871 29.4797 105.67 29.5935 105.504C29.7073 105.338 29.8775 105.22 30.0724 105.17C30.1103 105.17 33.8151 104.192 34.32 101.049C34.3374 100.942 34.3758 100.839 34.4329 100.746C34.4901 100.654 34.5649 100.573 34.6531 100.51C34.7413 100.446 34.8412 100.401 34.947 100.376C35.0528 100.351 35.1626 100.347 35.2699 100.364C35.3772 100.382 35.4801 100.42 35.5726 100.477C35.6651 100.534 35.7454 100.609 35.809 100.697C35.8726 100.786 35.9182 100.885 35.9432 100.991C35.9682 101.097 35.9721 101.207 35.9547 101.314C35.2794 105.549 30.6657 106.729 30.47 106.78C30.4034 106.792 30.3358 106.799 30.2681 106.799Z" fill="#407BFF"/>
<path opacity="0.6" d="M30.2681 106.799C30.0671 106.797 29.8736 106.722 29.7238 106.588C29.574 106.454 29.4781 106.27 29.4541 106.071C29.4302 105.871 29.4797 105.67 29.5935 105.504C29.7073 105.338 29.8775 105.22 30.0724 105.17C30.1103 105.17 33.8151 104.192 34.32 101.049C34.3374 100.942 34.3758 100.839 34.4329 100.746C34.4901 100.654 34.5649 100.573 34.6531 100.51C34.7413 100.446 34.8412 100.401 34.947 100.376C35.0528 100.351 35.1626 100.347 35.2699 100.364C35.3772 100.382 35.4801 100.42 35.5726 100.477C35.6651 100.534 35.7454 100.609 35.809 100.697C35.8726 100.786 35.9182 100.885 35.9432 100.991C35.9682 101.097 35.9721 101.207 35.9547 101.314C35.2794 105.549 30.6657 106.729 30.47 106.78C30.4034 106.792 30.3358 106.799 30.2681 106.799Z" fill="black"/>
<path d="M214.564 49.2688C214.358 49.2759 214.156 49.2054 213.999 49.0712C213.842 48.937 213.741 48.7489 213.715 48.5438C213.69 48.3388 213.742 48.1317 213.862 47.9633C213.982 47.795 214.16 47.6775 214.362 47.6341C214.4 47.6341 218.105 46.6622 218.61 43.5191C218.62 43.4053 218.654 43.2949 218.709 43.1947C218.764 43.0944 218.838 43.0066 218.929 42.9366C219.019 42.8665 219.123 42.8158 219.233 42.7876C219.344 42.7593 219.459 42.7542 219.572 42.7724C219.685 42.7906 219.793 42.8318 219.889 42.8935C219.985 42.9551 220.068 43.0359 220.131 43.1308C220.195 43.2257 220.238 43.3327 220.259 43.4451C220.279 43.5575 220.277 43.6729 220.251 43.7841C219.569 48.0191 214.955 49.1994 214.76 49.2435C214.696 49.2612 214.63 49.2697 214.564 49.2688Z" fill="#407BFF"/>
<path opacity="0.6" d="M214.564 49.2688C214.358 49.2759 214.156 49.2054 213.999 49.0712C213.842 48.937 213.741 48.7489 213.715 48.5438C213.69 48.3388 213.742 48.1317 213.862 47.9633C213.982 47.795 214.16 47.6775 214.362 47.6341C214.4 47.6341 218.105 46.6622 218.61 43.5191C218.62 43.4053 218.654 43.2949 218.709 43.1947C218.764 43.0944 218.838 43.0066 218.929 42.9366C219.019 42.8665 219.123 42.8158 219.233 42.7876C219.344 42.7593 219.459 42.7542 219.572 42.7724C219.685 42.7906 219.793 42.8318 219.889 42.8935C219.985 42.9551 220.068 43.0359 220.131 43.1308C220.195 43.2257 220.238 43.3327 220.259 43.4451C220.279 43.5575 220.277 43.6729 220.251 43.7841C219.569 48.0191 214.955 49.1994 214.76 49.2435C214.696 49.2612 214.63 49.2697 214.564 49.2688Z" fill="black"/>
<path d="M248.473 80.7388H248.334C248.133 80.701 243.449 79.8426 242.484 75.6897C242.459 75.5827 242.455 75.4718 242.473 75.3634C242.492 75.2551 242.531 75.1515 242.59 75.0586C242.649 74.9658 242.726 74.8856 242.816 74.8227C242.906 74.7598 243.007 74.7156 243.115 74.6925C243.222 74.6682 243.333 74.6654 243.441 74.684C243.549 74.7026 243.652 74.7424 243.745 74.801C243.837 74.8597 243.917 74.936 243.98 75.0257C244.044 75.1154 244.088 75.2166 244.112 75.3236C244.832 78.4162 248.593 79.1105 248.631 79.1105C248.83 79.153 249.006 79.2667 249.127 79.4303C249.248 79.5938 249.305 79.7958 249.287 79.9983C249.269 80.2008 249.178 80.3898 249.03 80.5297C248.883 80.6695 248.689 80.7507 248.486 80.7578L248.473 80.7388Z" fill="#407BFF"/>
<path d="M233.683 111.166C232.238 111.189 230.832 110.694 229.719 109.771C229.626 109.705 229.548 109.62 229.49 109.522C229.431 109.424 229.394 109.315 229.38 109.202C229.365 109.089 229.375 108.974 229.407 108.865C229.439 108.755 229.493 108.654 229.567 108.566C229.64 108.479 229.731 108.408 229.833 108.357C229.935 108.307 230.047 108.278 230.161 108.272C230.274 108.267 230.388 108.285 230.495 108.326C230.601 108.367 230.698 108.429 230.78 108.509C233.222 110.541 236.649 108.837 236.687 108.818C236.883 108.718 237.111 108.699 237.32 108.767C237.53 108.834 237.704 108.982 237.804 109.178C237.905 109.374 237.923 109.601 237.856 109.811C237.788 110.02 237.64 110.194 237.444 110.295C236.268 110.854 234.985 111.151 233.683 111.166Z" fill="#407BFF"/>
<path d="M194.998 7.58232C194.854 7.58342 194.712 7.5464 194.588 7.47503C194.417 7.38036 190.296 4.99463 190.801 0.734398C190.826 0.515954 190.937 0.316428 191.109 0.179719C191.281 0.0430103 191.501 -0.0196823 191.719 0.00542621C191.937 0.0305347 192.137 0.14139 192.274 0.313607C192.41 0.485825 192.473 0.705295 192.448 0.923739C192.088 4.07946 195.395 6.01708 195.427 6.03602C195.588 6.12683 195.713 6.2688 195.784 6.43931C195.855 6.60983 195.866 6.79909 195.817 6.97694C195.767 7.1548 195.66 7.31102 195.512 7.42073C195.363 7.53043 195.182 7.58732 194.998 7.58232Z" fill="#407BFF"/>
<path d="M30.1357 10.9465C30.0271 10.9511 29.9187 10.9342 29.8166 10.8969C29.7146 10.8595 29.6209 10.8024 29.5409 10.7289C29.4609 10.6553 29.3961 10.5667 29.3504 10.4682C29.3046 10.3696 29.2787 10.263 29.2742 10.1544C29.2696 10.0458 29.2865 9.93743 29.3238 9.83537C29.3612 9.73332 29.4182 9.63962 29.4918 9.55962C29.5653 9.47962 29.6539 9.41489 29.7525 9.36913C29.8511 9.32336 29.9577 9.29746 30.0663 9.29291C33.222 9.0152 34.4843 5.39243 34.4843 5.35456C34.5576 5.15315 34.7062 4.98808 34.8989 4.89416C35.0915 4.80024 35.3132 4.7848 35.517 4.8511C35.7208 4.91741 35.8909 5.06027 35.9914 5.24956C36.0919 5.43886 36.115 5.6598 36.0558 5.86579C35.999 6.06144 34.4843 10.5741 30.2114 10.9149L30.1357 10.9465Z" fill="#407BFF"/>
<path d="M91.4384 27.2828C89.2497 28.3062 87.32 33.2261 87.9488 40.2914C88.5777 47.3568 73.9414 42.4 71.95 50.3161C68.3557 64.6441 92.4556 73.257 102.727 64.6441C109.083 59.3174 115.057 41.7588 114.182 32.178C113.245 21.8759 97.2645 14.9646 91.4384 27.2828Z" fill="#263238"/>
<path d="M114.563 45.3588C114.835 45.2786 115.229 45.1615 115.568 45.0505L116.629 44.6929C117.338 44.4463 118.041 44.175 118.737 43.8853C120.125 43.3154 121.48 42.667 122.794 41.9432C125.37 40.569 127.687 38.7584 129.644 36.5918C131.388 34.5203 132.64 31.6966 133.62 28.7989C134.12 27.3439 134.539 25.8458 134.896 24.323C135.254 22.8002 135.593 21.2403 135.852 19.7422L138.367 19.8963C138.372 23.2304 138.01 26.5549 137.289 29.81C136.922 31.478 136.425 33.1147 135.803 34.7052C135.158 36.3841 134.293 37.97 133.232 39.4216C131.06 42.2059 128.367 44.5408 125.303 46.2959C123.827 47.1686 122.295 47.943 120.716 48.614C119.927 48.9469 119.132 49.2305 118.318 49.5326C117.917 49.6744 117.51 49.8101 117.085 49.9334C116.66 50.0567 116.284 50.1738 115.778 50.2971L114.563 45.3588Z" fill="#FF8B7B"/>
<path d="M138.356 20.7416L139.405 16.9746L135.243 17.2952C135.243 17.2952 134.947 19.7613 136.384 21.2471L138.356 20.7416Z" fill="#FF8B7B"/>
<path d="M140.026 12.5898L136.229 13.5824L135.242 17.2939L139.404 16.9733L140.026 12.5898Z" fill="#FF8B7B"/>
<path d="M109.856 46.3209C111.773 44.5761 116.637 43.2383 116.637 43.2383L121.97 51.2531C121.97 51.2531 115.885 55.316 113.302 54.3727C110.614 53.4356 108.068 47.9424 109.856 46.3209Z" fill="#407BFF"/>
<path d="M92.2891 160.321L95.6121 163.971L105.15 157.177L101.827 153.527L92.2891 160.321Z" fill="#FF8B7B"/>
<path d="M73.5352 174.742L77.9926 176.956L84.5463 167.344L80.0888 165.131L73.5352 174.742Z" fill="#FF8B7B"/>
<path d="M78.7017 176.407L75.2615 171.999C75.2036 171.922 75.1197 171.869 75.0255 171.85C74.9312 171.831 74.8332 171.846 74.7498 171.894L70.8719 174.114C70.7759 174.172 70.6935 174.251 70.63 174.343C70.5665 174.436 70.5235 174.542 70.5036 174.652C70.4838 174.763 70.4877 174.877 70.5151 174.986C70.5424 175.095 70.5926 175.197 70.6622 175.285C71.8953 176.802 72.555 177.474 74.0716 179.416C74.9964 180.606 76.883 183.38 78.1653 185.026C79.4477 186.672 81.1493 185.495 80.7609 184.693C79.0223 181.099 78.9113 178.966 78.973 177.252C78.9854 176.947 78.8893 176.648 78.7017 176.407Z" fill="#263238"/>
<path d="M96.6058 164.039L94.3369 158.589C94.2969 158.492 94.2254 158.41 94.1339 158.358C94.0423 158.305 93.9359 158.285 93.8314 158.3L89.0225 158.916C88.9081 158.928 88.7981 158.967 88.7018 159.03C88.6054 159.093 88.5253 159.178 88.4682 159.278C88.411 159.378 88.3783 159.49 88.3729 159.605C88.3674 159.72 88.3893 159.835 88.4368 159.94C89.263 161.832 89.7623 162.714 90.7611 165.112C91.3776 166.586 92.808 170.457 93.6526 172.51C94.4972 174.563 96.6674 174.076 96.5071 173.176C95.7858 169.144 96.0324 166.543 96.6304 164.958C96.6871 164.811 96.7141 164.654 96.7098 164.496C96.7056 164.339 96.6702 164.183 96.6058 164.039Z" fill="#263238"/>
<path opacity="0.2" d="M105.141 157.177L100.227 160.679L96.5098 157.313L101.818 153.527L105.141 157.177Z" fill="black"/>
<path opacity="0.2" d="M80.0878 165.131L84.5453 167.344L81.1606 172.301L76.7031 170.082L80.0878 165.131Z" fill="black"/>
<path d="M116.566 46.9437C116.566 46.9437 116.714 46.7218 114.014 76.1793L93.8532 77.5911C93.619 69.3667 94.2355 63.559 90.3945 46.6601C93.227 46.0897 96.0974 45.727 98.9827 45.575C102.038 45.3712 105.104 45.3877 108.157 45.6243C112.096 46.0004 116.566 46.9437 116.566 46.9437Z" fill="#407BFF"/>
<path d="M91.9126 51.5431C90.4144 50.8526 89.1012 50.1127 87.7387 49.3298C86.3762 48.5468 85.0877 47.7083 83.8053 46.8205C81.1951 45.0485 78.7684 43.0203 76.5611 40.7662L75.7473 39.8846L75.5377 39.6627C75.4175 39.5246 75.3044 39.3805 75.1986 39.2311C75.008 38.9592 74.8429 38.6703 74.7054 38.368C74.2972 37.4045 74.0875 36.3687 74.0889 35.3223C74.1026 33.6568 74.3263 31.9997 74.7547 30.3901C75.5374 27.3779 76.624 24.4529 77.9976 21.6602L80.3528 22.5726C79.989 23.9721 79.6438 25.4271 79.3355 26.8513C79.0272 28.2755 78.7683 29.712 78.5957 31.1176C78.3955 32.4394 78.3418 33.7792 78.4354 35.1127C78.4662 35.5743 78.5833 36.026 78.7806 36.4444C78.7806 36.4876 78.8423 36.5369 78.8608 36.543C78.8793 36.5492 78.8608 36.543 78.8608 36.543L79.0519 36.7218L79.8102 37.4432C81.9266 39.3598 84.1946 41.102 86.592 42.6528C87.7942 43.4481 89.0581 44.1756 90.2911 44.9093C91.5242 45.6429 92.8497 46.3396 94.0519 46.95L91.9126 51.5431Z" fill="#FF8B7B"/>
<path d="M98.3328 47.7885C96.0455 44.6011 91.5511 44.6504 91.5511 44.6504L86.1318 52.6652C86.1318 52.6652 92.1799 56.7836 94.7632 55.865C97.5005 54.8909 99.7447 49.7491 98.3328 47.7885Z" fill="#407BFF"/>
<path d="M108.158 45.6235L98.9838 45.5742C97.5781 46.1414 96.7643 49.7974 106.074 52.8924C112.529 49.224 109.095 45.9626 108.158 45.6235Z" fill="white"/>
<path d="M99.9452 35.248C100.506 38.2012 101.055 43.6143 98.9834 45.5748C98.9834 45.5748 99.7849 48.5773 106.073 52.893C110.482 48.4725 108.157 45.6241 108.157 45.6241C104.871 44.8165 104.97 42.3751 105.556 40.0754L99.9452 35.248Z" fill="#FF8B7B"/>
<path d="M118.961 64.5699H118.862C118.537 64.5432 118.236 64.3886 118.024 64.1402C117.813 63.8917 117.709 63.5696 117.734 63.2444C117.956 60.4947 115.885 58.417 113.505 56.0064C110.774 53.2505 107.673 50.1247 107.549 45.2604C107.541 44.9333 107.663 44.6165 107.889 44.3794C108.114 44.1424 108.424 44.0047 108.751 43.9965C109.078 43.9883 109.395 44.1104 109.632 44.3358C109.869 44.5613 110.007 44.8717 110.015 45.1987C110.114 49.0828 112.728 51.7215 115.256 54.2739C117.784 56.8263 120.502 59.5637 120.188 63.4416C120.162 63.7491 120.021 64.0356 119.794 64.2445C119.567 64.4533 119.27 64.5695 118.961 64.5699Z" fill="#263238"/>
<path d="M100.939 70.8082C100.84 70.8079 100.74 70.7955 100.643 70.7713C100.326 70.6926 100.053 70.4912 99.8847 70.2115C99.7159 69.9318 99.665 69.5965 99.7433 69.2793C100.933 64.4457 99.3734 60.6479 97.7211 56.6529C96.2414 53.0647 94.7124 49.3532 95.4523 45.0129C95.5161 44.6986 95.6999 44.4216 95.9647 44.2406C96.2294 44.0596 96.5543 43.9888 96.8703 44.0434C97.1864 44.0979 97.4687 44.2734 97.6575 44.5327C97.8462 44.792 97.9265 45.1146 97.8814 45.4321C97.2648 49.0696 98.5904 52.3002 99.9961 55.7157C101.648 59.717 103.516 64.2546 102.135 69.8958C102.065 70.1585 101.909 70.3905 101.693 70.5556C101.476 70.7206 101.211 70.8094 100.939 70.8082Z" fill="#263238"/>
<path opacity="0.2" d="M104.397 39.0586L101.931 39.3484C102.05 40.0123 102.288 40.6493 102.634 41.2288C103.121 41.9624 104.206 42.283 105.278 42.3138C105.277 41.5511 105.381 40.7918 105.587 40.0574L104.397 39.0586Z" fill="black"/>
<path d="M94.4918 32.276C96.2983 36.8753 96.9579 38.8605 100.108 40.5005C104.843 42.9666 110.096 39.7545 109.701 34.7113C109.35 30.1675 106.459 23.4104 101.261 23.0282C100.117 22.939 98.9683 23.1437 97.9251 23.6228C96.8818 24.102 95.9782 24.8398 95.3001 25.7662C94.622 26.6925 94.1918 27.7768 94.0504 28.9161C93.9089 30.0554 94.0609 31.212 94.4918 32.276Z" fill="#FF8B7B"/>
<path d="M99.4408 22.3631C102.949 24.5209 99.9463 37.2151 94.0092 36.5431C88.0721 35.8711 94.2558 19.1756 99.4408 22.3631Z" fill="#263238"/>
<path d="M99.3122 22.4121C96.6673 24.1692 98.4737 27.2272 107.389 25.4146C107.389 25.4084 103.702 19.4898 99.3122 22.4121Z" fill="#263238"/>
<path d="M95.1313 36.7465C95.5212 37.6178 96.2389 38.3001 97.1288 38.6454C98.3187 39.0893 99.0154 38.0289 98.7811 36.876C98.5653 35.8218 97.6898 34.3113 96.4568 34.3729C96.1873 34.3911 95.9267 34.4763 95.6985 34.6207C95.4703 34.7652 95.2818 34.9643 95.1501 35.2001C95.0184 35.4359 94.9477 35.7009 94.9445 35.9709C94.9412 36.241 95.0054 36.5076 95.1313 36.7465Z" fill="#FF8B7B"/>
<path d="M114.028 76.1777C114.028 76.1777 124.817 111.4 125.686 126.554C126.586 142.318 103.177 161.024 103.177 161.024L97.3506 154.63C97.3506 154.63 116.37 138.477 113.762 126.776C110.156 110.648 99.231 77.2135 99.231 77.2135L114.028 76.1777Z" fill="#263238"/>
<path opacity="0.2" d="M107.302 87.7079C106.316 84.6253 104.121 86.6968 103.356 89.9644C104.879 94.8966 106.643 100.667 108.319 106.444C108.967 101.327 109.232 93.7499 107.302 87.7079Z" fill="black"/>
<path d="M95.7725 154.323L103.165 161.95L106.321 160.205L98.5098 151.703L95.7725 154.323Z" fill="#407BFF"/>
<path d="M108.693 76.5547C108.693 76.5547 105.61 111.08 102.528 130.309C100.031 145.846 83.07 171.222 83.07 171.222L76.8555 168.33C76.8555 168.33 88.255 141.16 90.0306 130.599C95.7273 96.7952 88.033 87.0418 93.8592 77.5781L108.693 76.5547Z" fill="#263238"/>
<path d="M76.4199 168.399L83.4298 171.839L85.7294 168.985L77.5297 165.119L76.4199 168.399Z" fill="#407BFF"/>
<path d="M93.4714 76.4307L92.6884 78.2803C92.6267 78.4221 92.7993 78.5577 93.0336 78.5392L114.18 77.0596C114.359 77.0596 114.507 76.9486 114.507 76.8315L114.563 74.9819C114.563 74.8586 114.402 74.7661 114.205 74.7784L93.7858 76.2088C93.7175 76.2112 93.6513 76.2335 93.5955 76.2729C93.5396 76.3123 93.4965 76.3672 93.4714 76.4307Z" fill="white"/>
<path d="M96.3717 78.5145L95.8291 78.5514C95.7181 78.5514 95.6318 78.5083 95.6318 78.4405L95.7243 76.0792C95.7243 76.0114 95.823 75.9436 95.9278 75.9374L96.4765 75.9004C96.5874 75.9004 96.6738 75.9436 96.6676 76.0114L96.5751 78.3727C96.5751 78.4528 96.4826 78.5145 96.3717 78.5145Z" fill="#263238"/>
<path d="M112.661 77.3816L112.112 77.4186C112.001 77.4186 111.915 77.3755 111.921 77.3077L112.014 74.9464C112.014 74.8786 112.106 74.8169 112.217 74.8046L112.76 74.7676C112.871 74.7676 112.957 74.8107 112.957 74.8786L112.864 77.246C112.858 77.3138 112.797 77.3755 112.661 77.3816Z" fill="#263238"/>
<path d="M104.514 77.9539L103.966 77.9909C103.861 77.9909 103.774 77.9477 103.774 77.8799L103.867 75.5125C103.867 75.4447 103.959 75.383 104.07 75.3768L104.619 75.3398C104.724 75.3398 104.81 75.383 104.81 75.4508L104.718 77.8121C104.718 77.8984 104.625 77.9416 104.514 77.9539Z" fill="#263238"/>
<path d="M101.919 30.55C101.623 30.6487 101.5 31.0926 101.648 31.5488L102.727 31.2035C102.579 30.7473 102.215 30.4267 101.919 30.55Z" fill="#263238"/>
<path d="M106.63 29.0582C106.328 29.1568 106.205 29.6069 106.353 30.0631L107.438 29.7117C107.247 29.2555 106.895 28.9657 106.63 29.0582Z" fill="#263238"/>
<path d="M106.474 29.1248L107.466 28.459C107.466 28.459 107.183 29.4947 106.474 29.1248Z" fill="#263238"/>
<path d="M105.396 30.9199C106.016 31.6813 106.738 32.3535 107.542 32.9175C107.393 33.1197 107.202 33.2869 106.981 33.4073C106.761 33.5276 106.516 33.5982 106.266 33.6141L105.396 30.9199Z" fill="#630F0F"/>
<path d="M105.471 35.5306C105.489 35.5149 105.502 35.4943 105.509 35.4713C105.515 35.4483 105.515 35.4239 105.508 35.4011C105.498 35.3717 105.477 35.3474 105.449 35.3335C105.422 35.3196 105.389 35.3173 105.36 35.3271C104.888 35.4904 104.385 35.5409 103.89 35.4745C103.396 35.4081 102.924 35.2267 102.512 34.9449C102.501 34.9339 102.488 34.9251 102.474 34.9192C102.459 34.9132 102.444 34.9102 102.428 34.9102C102.413 34.9102 102.398 34.9132 102.383 34.9192C102.369 34.9251 102.356 34.9339 102.345 34.9449C102.333 34.9553 102.324 34.9681 102.317 34.9824C102.311 34.9968 102.308 35.0124 102.308 35.0281C102.308 35.0438 102.311 35.0594 102.317 35.0738C102.324 35.0881 102.333 35.1009 102.345 35.1113C102.786 35.427 103.297 35.6312 103.833 35.7064C104.37 35.7815 104.917 35.7254 105.428 35.5429L105.471 35.5306Z" fill="#263238"/>
<path d="M100.36 30.2731C100.391 30.247 100.414 30.2129 100.427 30.1744C100.512 29.8875 100.665 29.6254 100.874 29.4106C101.082 29.1959 101.339 29.0349 101.624 28.9414C101.654 28.9341 101.682 28.921 101.707 28.9028C101.732 28.8846 101.753 28.8617 101.769 28.8353C101.785 28.809 101.795 28.7798 101.8 28.7493C101.805 28.7188 101.803 28.6878 101.796 28.6578C101.789 28.6278 101.776 28.5996 101.758 28.5747C101.739 28.5498 101.716 28.5288 101.69 28.5127C101.664 28.4967 101.635 28.486 101.604 28.4813C101.574 28.4766 101.543 28.4779 101.513 28.4852C101.155 28.5977 100.83 28.7941 100.564 29.0579C100.298 29.3218 100.099 29.6454 99.9836 30.0018C99.9641 30.0607 99.9687 30.1249 99.9964 30.1804C100.024 30.2358 100.073 30.278 100.132 30.2977C100.168 30.3148 100.209 30.3215 100.249 30.3172C100.289 30.3128 100.328 30.2976 100.36 30.2731Z" fill="#263238"/>
<path d="M107.743 27.2264C107.756 27.2195 107.767 27.2087 107.774 27.1956C107.794 27.1715 107.808 27.1436 107.817 27.1137C107.826 27.0838 107.829 27.0524 107.825 27.0214C107.822 26.9903 107.812 26.9603 107.797 26.9331C107.782 26.9058 107.761 26.8819 107.737 26.8627C107.448 26.6241 107.107 26.4577 106.742 26.3772C106.376 26.2968 105.996 26.3047 105.634 26.4003C105.605 26.41 105.577 26.4256 105.553 26.4462C105.53 26.4667 105.51 26.4919 105.497 26.52C105.483 26.5482 105.475 26.5789 105.473 26.6102C105.471 26.6415 105.476 26.6729 105.486 26.7024C105.507 26.7602 105.55 26.8078 105.605 26.8354C105.66 26.8629 105.724 26.8683 105.782 26.8504C106.069 26.7766 106.37 26.7729 106.658 26.8394C106.947 26.9059 107.215 27.0408 107.441 27.2326C107.484 27.2674 107.538 27.2859 107.593 27.2847C107.648 27.2836 107.701 27.2629 107.743 27.2264Z" fill="#263238"/>
<path d="M83.0473 23.4777C82.8976 23.4774 82.7507 23.4369 82.6219 23.3606L63.8673 11.8069C63.7029 11.6858 63.59 11.5073 63.5511 11.3069C63.5121 11.1065 63.55 10.8987 63.6571 10.7248C63.7642 10.551 63.9327 10.4238 64.1293 10.3684C64.3258 10.313 64.536 10.3335 64.7181 10.4259L83.4727 21.9796C83.624 22.0713 83.7409 22.2101 83.8056 22.3747C83.8702 22.5393 83.8791 22.7206 83.8308 22.8907C83.7825 23.0609 83.6797 23.2104 83.5381 23.3165C83.3966 23.4225 83.2242 23.4792 83.0473 23.4777Z" fill="#407BFF"/>
<path d="M68.1164 13.0836C69.1706 13.0404 70.2557 12.9911 70.3975 12.0417C70.5393 11.0922 69.5221 10.7285 68.548 10.3709L68.2829 10.2722C68.2829 10.1798 68.2397 10.0873 68.215 10.001L68.4308 9.76054C69.1213 8.99605 69.8427 8.20689 69.2816 7.45473C68.7206 6.70258 67.7588 7.14647 66.8155 7.5842L66.5258 7.71984C66.4456 7.66435 66.3655 7.6212 66.2792 7.57188C66.1928 7.52255 66.2792 7.37459 66.2792 7.28828C66.2298 6.24018 66.1805 5.1551 65.2372 5.0133C64.2939 4.8715 63.924 5.88876 63.5664 6.86287C63.5356 6.94302 63.5048 7.0355 63.4678 7.12798L63.1904 7.1958L62.9561 6.98618C62.1916 6.28951 61.4024 5.57434 60.6503 6.12921C59.8981 6.68408 60.342 7.65202 60.7798 8.5953L60.9154 8.88507C60.8616 8.96241 60.8122 9.04268 60.7674 9.12551H60.4838C59.4357 9.17484 58.3445 9.22416 58.2027 10.1736C58.0609 11.1231 59.0843 11.4868 60.0523 11.8444L60.3174 11.943C60.3174 12.0355 60.3605 12.128 60.3852 12.2143C60.3112 12.3006 60.2372 12.3869 60.1694 12.4547C59.4789 13.2192 58.7637 14.0022 59.3186 14.7605C59.8735 15.5189 60.8414 15.0626 61.7847 14.6311L62.0806 14.4954L62.3211 14.6434C62.3211 14.742 62.3211 14.8407 62.3211 14.927C62.3704 15.9751 62.4197 17.0602 63.363 17.202C64.3063 17.3438 64.6823 16.3265 65.0399 15.3524C65.0399 15.2784 65.1016 15.1859 65.1324 15.0873C65.2262 15.0705 65.3189 15.0479 65.4099 15.0195L65.6503 15.2353C66.4086 15.9258 67.1978 16.6471 67.9561 16.0922C68.7144 15.5374 68.2582 14.5694 67.8205 13.6261C67.7835 13.546 67.7341 13.4412 67.691 13.3364L67.839 13.0959L68.1164 13.0836Z" fill="#407BFF"/>
<path opacity="0.7" d="M68.1164 13.0836C69.1706 13.0404 70.2557 12.9911 70.3975 12.0417C70.5393 11.0922 69.5221 10.7285 68.548 10.3709L68.2829 10.2722C68.2829 10.1798 68.2397 10.0873 68.215 10.001L68.4308 9.76054C69.1213 8.99605 69.8427 8.20689 69.2816 7.45473C68.7206 6.70258 67.7588 7.14647 66.8155 7.5842L66.5258 7.71984C66.4456 7.66435 66.3655 7.6212 66.2792 7.57188C66.1928 7.52255 66.2792 7.37459 66.2792 7.28828C66.2298 6.24018 66.1805 5.1551 65.2372 5.0133C64.2939 4.8715 63.924 5.88876 63.5664 6.86287C63.5356 6.94302 63.5048 7.0355 63.4678 7.12798L63.1904 7.1958L62.9561 6.98618C62.1916 6.28951 61.4024 5.57434 60.6503 6.12921C59.8981 6.68408 60.342 7.65202 60.7798 8.5953L60.9154 8.88507C60.8616 8.96241 60.8122 9.04268 60.7674 9.12551H60.4838C59.4357 9.17484 58.3445 9.22416 58.2027 10.1736C58.0609 11.1231 59.0843 11.4868 60.0523 11.8444L60.3174 11.943C60.3174 12.0355 60.3605 12.128 60.3852 12.2143C60.3112 12.3006 60.2372 12.3869 60.1694 12.4547C59.4789 13.2192 58.7637 14.0022 59.3186 14.7605C59.8735 15.5189 60.8414 15.0626 61.7847 14.6311L62.0806 14.4954L62.3211 14.6434C62.3211 14.742 62.3211 14.8407 62.3211 14.927C62.3704 15.9751 62.4197 17.0602 63.363 17.202C64.3063 17.3438 64.6823 16.3265 65.0399 15.3524C65.0399 15.2784 65.1016 15.1859 65.1324 15.0873C65.2262 15.0705 65.3189 15.0479 65.4099 15.0195L65.6503 15.2353C66.4086 15.9258 67.1978 16.6471 67.9561 16.0922C68.7144 15.5374 68.2582 14.5694 67.8205 13.6261C67.7835 13.546 67.7341 13.4412 67.691 13.3364L67.839 13.0959L68.1164 13.0836Z" fill="white"/>
<path d="M77.4513 23.6763L76.6807 18.7441L81.7115 21.2102C81.5219 22.0406 81.0933 22.7972 80.4785 23.3866C80.2254 23.6747 79.8961 23.8854 79.5285 23.9945C79.1609 24.1036 78.77 24.1066 78.4008 24.0031L77.4513 23.6763Z" fill="#FF8B7B"/>
<path d="M79.5043 16.3262L82.0814 18.5888L81.7115 21.1782L76.6807 18.7368L79.5043 16.3262Z" fill="#FF8B7B"/>
<path d="M80.3178 178.769C80.3701 178.732 80.4196 178.69 80.4658 178.646C80.5187 178.598 80.5575 178.536 80.5781 178.468C80.5987 178.399 80.6004 178.327 80.5829 178.257C80.435 177.641 78.7334 177.024 78.5422 176.981C78.5211 176.972 78.4977 176.97 78.4754 176.976C78.4531 176.981 78.4333 176.994 78.4189 177.012C78.4062 177.031 78.3994 177.054 78.3994 177.077C78.3994 177.1 78.4062 177.122 78.4189 177.141C78.6964 177.758 79.2512 178.769 79.8739 178.874C80.0299 178.897 80.1887 178.86 80.3178 178.769ZM78.7334 177.302C79.4054 177.555 80.2747 177.986 80.3548 178.313C80.3606 178.344 80.3579 178.375 80.347 178.405C80.3362 178.434 80.3175 178.46 80.2932 178.479C80.2462 178.539 80.1847 178.586 80.1145 178.615C80.0444 178.644 79.9679 178.655 79.8924 178.646C79.5533 178.584 79.1341 178.091 78.7334 177.302Z" fill="#407BFF"/>
<path d="M80.6299 177.122C80.6702 177.098 80.7057 177.067 80.7348 177.03C80.7949 176.957 80.8278 176.866 80.8278 176.771C80.8278 176.677 80.7949 176.585 80.7348 176.512C80.6889 176.434 80.6265 176.367 80.5519 176.316C80.4773 176.265 80.3924 176.231 80.3032 176.216C79.5942 176.087 78.4536 176.962 78.4105 176.999C78.3945 177.013 78.3821 177.03 78.3746 177.049C78.367 177.068 78.3645 177.09 78.3673 177.11C78.3707 177.13 78.3786 177.148 78.3904 177.164C78.4022 177.18 78.4175 177.193 78.4351 177.203C79.1523 177.443 79.9322 177.414 80.6299 177.122ZM78.7804 177.03C79.2026 176.686 79.7224 176.483 80.2662 176.45C80.3229 176.457 80.3771 176.478 80.4243 176.51C80.4715 176.542 80.5103 176.585 80.5375 176.635C80.6176 176.765 80.5806 176.833 80.5375 176.876C80.3155 177.141 79.3044 177.19 78.7434 177.048L78.7804 177.03Z" fill="#407BFF"/>
<path d="M96.7157 166.832C96.8411 167.217 97.0849 167.554 97.4124 167.793C97.5046 167.848 97.6078 167.881 97.7144 167.891C97.8211 167.9 97.9285 167.886 98.0289 167.849C98.0889 167.832 98.1431 167.799 98.1855 167.753C98.228 167.708 98.257 167.651 98.2694 167.59C98.3988 166.973 96.7836 165.451 96.4568 165.124C96.4367 165.111 96.4131 165.104 96.389 165.104C96.3649 165.104 96.3413 165.111 96.3212 165.124C96.2996 165.135 96.2825 165.154 96.2725 165.176C96.2624 165.198 96.26 165.223 96.2657 165.247C96.3567 165.79 96.5076 166.322 96.7157 166.832ZM97.9981 167.294C98.0331 167.365 98.048 167.444 98.0413 167.522C98.0413 167.553 98.0413 167.584 97.9549 167.608C97.883 167.636 97.8056 167.647 97.7288 167.641C97.6519 167.634 97.5775 167.611 97.5111 167.571C97.135 167.35 96.7897 166.61 96.5678 165.562C97.1293 166.064 97.6115 166.648 97.9981 167.294Z" fill="#407BFF"/>
<path d="M96.2886 165.291C96.2869 165.303 96.2869 165.315 96.2886 165.328C96.7942 165.839 98.3047 166.665 98.7917 166.382C98.8965 166.32 99.0075 166.185 98.9212 165.889C98.6068 164.754 96.4551 165.112 96.3503 165.13C96.3287 165.133 96.3085 165.142 96.292 165.156C96.2756 165.171 96.2637 165.189 96.2578 165.21C96.2582 165.24 96.2691 165.268 96.2886 165.291ZM98.6931 165.876L98.7239 165.95C98.7239 166.074 98.7239 166.148 98.7239 166.178C98.4403 166.339 97.2997 165.808 96.6955 165.328C97.2011 165.272 98.4218 165.223 98.6931 165.876Z" fill="#407BFF"/>
<path d="M101.795 30.6173L102.788 29.9453C102.788 29.9453 102.504 30.9872 101.795 30.6173Z" fill="#263238"/>
<path d="M182.396 192.123L177.618 192.129L176.329 181.069L181.107 181.062L182.396 192.123Z" fill="#FFC3BD"/>
<path d="M223.525 171.593L219.906 174.719L211.712 167.179L215.325 164.053L223.525 171.593Z" fill="#FFC3BD"/>
<path d="M219.202 174.594L223.604 170.784C223.676 170.724 223.766 170.691 223.86 170.691C223.953 170.691 224.044 170.724 224.116 170.784L227.469 173.459C227.551 173.528 227.617 173.614 227.662 173.711C227.707 173.808 227.73 173.914 227.73 174.02C227.73 174.127 227.707 174.233 227.662 174.33C227.617 174.427 227.551 174.513 227.469 174.582C226.033 175.784 224.929 176.591 223.154 178.133C222.056 179.082 218.838 182.066 217.322 183.379C215.805 184.692 214.368 183.305 214.855 182.627C217.137 179.594 218.555 176.906 218.776 175.309C218.831 175.029 218.982 174.776 219.202 174.594Z" fill="#263238"/>
<path d="M177.649 191.574H182.871C182.965 191.575 183.057 191.607 183.131 191.667C183.205 191.726 183.257 191.809 183.277 191.901L184.227 196.149C184.25 196.251 184.25 196.358 184.226 196.46C184.203 196.562 184.156 196.658 184.09 196.74C184.025 196.821 183.941 196.887 183.846 196.932C183.751 196.977 183.648 197 183.543 197C181.656 196.969 178.937 196.864 176.57 196.864C173.808 196.864 172.186 196.938 168.943 196.944C166.983 196.944 166.434 194.965 167.254 194.786C170.99 193.96 173.271 193.954 176.502 191.956C176.841 191.725 177.238 191.592 177.649 191.574Z" fill="#263238"/>
<path d="M162.12 54.7844C161.158 54.4145 160.332 54.0754 159.469 53.6809C158.606 53.2863 157.773 52.8979 156.935 52.4848C155.262 51.6628 153.618 50.7462 152.003 49.7351C150.377 48.7389 148.814 47.6435 147.323 46.4552C146.947 46.1469 146.565 45.8387 146.195 45.5243L145.098 44.5193C144.734 44.1864 144.389 43.8041 144.037 43.4466C143.858 43.2493 143.704 43.1075 143.501 42.8732C143.297 42.6389 143.1 42.4108 142.921 42.1765C142.247 41.2852 141.674 40.3216 141.213 39.3035C140.785 38.3739 140.42 37.416 140.122 36.4367C139.556 34.5874 139.143 32.6944 138.889 30.777C138.403 27.0858 138.31 23.3534 138.612 19.6426H142.2C142.446 21.3134 142.705 23.0704 143.045 24.7597C143.384 26.449 143.741 28.1383 144.179 29.7659C144.593 31.3558 145.116 32.9152 145.745 34.433C146.267 35.775 147.002 37.0241 147.921 38.1321L148.223 38.4404C148.316 38.539 148.501 38.687 148.636 38.8103C148.932 39.0631 149.204 39.3282 149.518 39.5686C150.135 40.0619 150.751 40.5489 151.442 41.0175C152.773 41.9422 154.179 42.8239 155.646 43.65C157.114 44.4762 158.612 45.2591 160.135 45.999C160.899 46.3751 161.67 46.745 162.44 47.0902C163.211 47.4355 164.019 47.7992 164.709 48.0952L162.12 54.7844Z" fill="#FFC3BD"/>
<path d="M162.882 58.854C160.161 57.1626 157.591 55.2402 155.2 53.108L157.105 43.373C160.647 44.3806 164.249 45.1672 167.888 45.7282C173.899 46.505 167.167 61.4064 162.882 58.854Z" fill="#263238"/>
<path d="M142.322 20.4816L142.662 14.3965L137.606 16.0179C137.606 16.0179 136.429 20.3768 139.708 21.5235L142.322 20.4816Z" fill="#FFC3BD"/>
<path d="M142.052 11.123L137.878 12.8616L137.606 16.0182L142.662 14.3968L142.052 11.123Z" fill="#FFC3BD"/>
<path opacity="0.2" d="M176.338 181.069L176.998 186.772L181.776 186.765L181.116 181.062L176.338 181.069Z" fill="black"/>
<path opacity="0.2" d="M215.331 164.053L211.712 167.179L215.941 171.063L219.554 167.937L215.331 164.053Z" fill="black"/>
<path d="M186.264 45.5319C186.274 45.1935 186.218 44.8564 186.098 44.5399C185.977 44.2235 185.796 43.934 185.563 43.6881C185.33 43.4422 185.051 43.2448 184.742 43.1073C184.432 42.9699 184.099 42.895 183.76 42.887C170.123 42.6342 161.251 46.4567 160.641 46.7033C160.413 46.7951 160.213 46.9436 160.058 47.1345C159.904 47.3255 159.801 47.5526 159.759 47.7945C159.192 51.2101 157.583 65.5258 165.468 87.9302L190.746 84.3112C190.407 80.5813 185.696 63.4666 186.264 45.5319Z" fill="#263238"/>
<path d="M165.819 44.9825C164.321 46.9862 163.642 51.604 168.605 54.9825C174.709 50.4264 177.853 45.5251 178.784 42.9727C174.404 43.1923 170.059 43.8659 165.819 44.9825Z" fill="white"/>
<path d="M164.684 46.8561C164.357 46.8561 164.044 46.7262 163.812 46.4949C163.581 46.2637 163.451 45.95 163.451 45.623C163.451 44.6058 164.333 43.7303 165.079 43.1569C167.582 41.3074 172.477 39.8955 178.642 41.6773C178.945 41.7772 179.198 41.9908 179.347 42.273C179.495 42.5552 179.529 42.8841 179.44 43.1906C179.352 43.4971 179.148 43.7574 178.871 43.9166C178.595 44.0759 178.268 44.1218 177.958 44.0447C170.806 41.9794 166.398 44.914 165.923 45.7587C165.89 46.0627 165.744 46.3434 165.515 46.5462C165.286 46.749 164.99 46.8595 164.684 46.8561Z" fill="#407BFF"/>
<path d="M174.929 31.252C174.744 34.8093 174.972 41.2458 177.722 43.2064C176.107 45.3457 173.955 47.8549 169.868 48.5886C167.401 49.0263 166.557 48.1139 166.452 46.961C166.417 46.4048 166.54 45.8502 166.806 45.3606C167.072 44.871 167.471 44.4663 167.956 44.1928C170.614 42.6515 170.083 40.1731 169.128 37.8303L174.929 31.252Z" fill="#FFC3BD"/>
<path d="M164.307 75.1423C164.168 75.1417 164.03 75.1167 163.9 75.0683C163.592 74.9594 163.34 74.7327 163.199 74.4379C163.057 74.1431 163.039 73.8044 163.148 73.4962C163.319 73.0648 163.399 72.6025 163.382 72.1387C163.365 71.6749 163.251 71.2197 163.049 70.802L162.92 70.4506C162.709 70.0364 162.43 69.6612 162.094 69.3408C161.372 68.7622 160.873 67.952 160.681 67.0474C160.489 66.1428 160.615 65.1997 161.039 64.3778C161.191 64.0259 161.281 63.6505 161.304 63.2681C161.187 62.8289 160.997 62.4122 160.743 62.035C160.234 61.3074 159.934 60.4547 159.874 59.5689C159.944 58.6425 160.28 57.7561 160.842 57.0165C161.054 56.736 161.22 56.424 161.335 56.0917C161.34 55.7487 161.272 55.4085 161.138 55.0929C160.841 54.3923 160.768 53.6172 160.928 52.8735C161.178 52.0347 161.693 51.2994 162.396 50.7773C162.594 50.6272 162.767 50.4461 162.907 50.2409C162.995 49.9431 162.995 49.6262 162.907 49.3284C162.72 48.6144 162.819 47.8553 163.185 47.2138C163.616 46.5356 163.573 46.363 163.536 46.2212C163.474 46.005 163.447 45.7801 163.456 45.5553C163.456 45.2283 163.586 44.9147 163.817 44.6834C164.048 44.4522 164.362 44.3223 164.689 44.3223C165.016 44.3223 165.33 44.4522 165.561 44.6834C165.792 44.9147 165.922 45.2283 165.922 45.5553V45.5923C166.095 46.289 166.144 47.1213 165.306 48.4838C165.316 48.6286 165.334 48.7727 165.361 48.9154C165.547 49.5934 165.519 50.3123 165.282 50.9742C165.045 51.6361 164.61 52.2088 164.036 52.6145C163.641 52.9598 163.419 53.1694 163.333 53.4715C163.32 53.7563 163.377 54.0399 163.499 54.2976C163.761 54.957 163.865 55.6686 163.801 56.3753C163.665 57.0836 163.37 57.7517 162.938 58.3297C162.652 58.6903 162.454 59.1124 162.359 59.5627C162.458 59.9943 162.64 60.4026 162.895 60.765C163.338 61.4274 163.638 62.1749 163.777 62.9598C163.811 63.7019 163.683 64.4426 163.401 65.1299C163.2 65.5683 163.105 66.0477 163.123 66.5295C163.317 66.9571 163.596 67.3409 163.943 67.6577C164.514 68.2155 164.967 68.8822 165.275 69.6183L165.386 69.9388C165.993 71.3171 166.03 72.8794 165.491 74.2853C165.41 74.5357 165.252 74.7539 165.039 74.9081C164.826 75.0622 164.57 75.1443 164.307 75.1423Z" fill="#407BFF"/>
<path d="M186.034 45.3281C186.706 45.9446 187.267 46.4625 187.834 47.0544C188.401 47.6463 188.956 48.2196 189.505 48.8115C190.602 49.9952 191.638 51.2406 192.637 52.5106C194.718 55.143 196.46 58.0262 197.822 61.0926C198.165 61.9129 198.466 62.7504 198.722 63.6019C198.852 64.0335 198.963 64.4835 199.067 64.9397L199.104 65.1062L199.16 65.396C199.197 65.5871 199.215 65.7906 199.234 66.0125C199.263 66.4237 199.251 66.8369 199.197 67.2456C199.106 67.9824 198.882 68.6967 198.537 69.3541C198.249 69.9015 197.899 70.4144 197.495 70.883C196.827 71.6462 196.058 72.3141 195.208 72.8682C193.758 73.8171 192.197 74.5833 190.559 75.1494C189.783 75.433 189 75.6734 188.21 75.8769C187.421 76.0803 186.657 76.2715 185.8 76.4133L184.69 73.0039C185.307 72.6586 185.966 72.2949 186.589 71.925C187.212 71.555 187.822 71.1666 188.438 70.7782C189.585 70.0539 190.664 69.2286 191.663 68.3121C192.046 67.9429 192.383 67.5289 192.668 67.0791C192.884 66.7277 192.865 66.4934 192.803 66.5674C192.799 66.5877 192.799 66.6087 192.803 66.629L192.766 66.518C192.674 66.2344 192.588 65.9447 192.464 65.6488C192.236 65.0471 191.975 64.4584 191.681 63.8855C191.062 62.6678 190.358 61.4955 189.573 60.3775C188.79 59.2184 187.927 58.084 187.014 56.9743C186.102 55.8645 185.165 54.7733 184.172 53.6944C183.685 53.158 183.186 52.6339 182.68 52.116C182.175 51.5982 181.644 51.0556 181.194 50.6241L186.034 45.3281Z" fill="#FFC3BD"/>
<path d="M184.443 42.9913C187.229 43.4044 191.6 50.3896 191.6 50.3896L184.504 59.9026C184.504 59.9026 180.719 56.2959 179.615 53.1208C177.531 47.0296 178.968 42.1899 184.443 42.9913Z" fill="#263238"/>
<path d="M180.727 66.9366C180.513 66.9342 180.303 66.8761 180.118 66.768C179.933 66.6599 179.78 66.5056 179.672 66.3201C179.249 65.491 179.065 64.56 179.142 63.632C179.175 63.249 179.142 62.8632 179.044 62.4915C178.797 62.1086 178.486 61.7708 178.125 61.4927C177.415 60.9645 176.863 60.2525 176.528 59.4335C176.299 58.5333 176.34 57.5857 176.645 56.7085C176.757 56.3744 176.818 56.0251 176.824 55.6727C176.669 55.2497 176.444 54.8558 176.158 54.5075C175.523 53.8546 175.151 52.9904 175.113 52.0803C175.076 51.1702 175.376 50.2782 175.955 49.5753C176.122 49.3242 176.257 49.0528 176.356 48.7677C176.323 48.2997 176.211 47.8409 176.023 47.4113C175.67 46.6841 175.55 45.8664 175.677 45.0685C175.908 43.9337 176.48 42.8966 177.317 42.0969L177.397 42.0167C177.628 41.7982 177.933 41.6767 178.251 41.6777C178.568 41.6787 178.873 41.8021 179.101 42.0221C179.33 42.2421 179.465 42.5418 179.479 42.8589C179.492 43.176 179.383 43.486 179.173 43.7245L179.031 43.8663C178.527 44.3522 178.189 44.984 178.063 45.6727C178.13 45.9821 178.223 46.2853 178.341 46.579C178.664 47.3258 178.826 48.1326 178.815 48.9464C178.72 49.6215 178.469 50.2652 178.082 50.8268C177.815 51.1908 177.639 51.6137 177.57 52.0599C177.715 52.4414 177.924 52.7957 178.187 53.108C178.685 53.7267 179.048 54.4428 179.253 55.2103C179.347 55.9256 179.278 56.6529 179.05 57.3373C178.894 57.7713 178.837 58.2348 178.883 58.6937C179.117 59.0717 179.421 59.4021 179.777 59.6678C180.404 60.1608 180.923 60.7778 181.3 61.4804C181.567 62.1731 181.676 62.9165 181.621 63.6567C181.575 64.1368 181.636 64.621 181.799 65.0747C181.967 65.3552 182.016 65.6906 181.936 66.0073C181.856 66.324 181.654 66.5962 181.374 66.764C181.178 66.8802 180.954 66.9399 180.727 66.9366Z" fill="#407BFF"/>
<path opacity="0.2" d="M172.561 33.9336L169.133 37.8239C169.391 38.4214 169.598 39.0403 169.749 39.6734C171.192 39.248 172.986 37.343 172.924 35.777C172.915 35.1457 172.792 34.5212 172.561 33.9336Z" fill="black"/>
<path d="M165.356 21.1352C163.833 23.7862 164.807 27.5594 164.807 27.5594C165.215 27.825 165.687 27.9765 166.174 27.9981C166.661 28.0198 167.145 27.9109 167.575 27.6827L167.144 20.6543L165.356 21.1352Z" fill="#263238"/>
<path d="M177.359 27.867C176.194 32.4662 175.744 35.2159 172.945 37.158C168.734 40.0803 163.395 36.8621 163.167 32.01C162.957 27.6389 164.899 20.8571 169.807 19.8707C170.886 19.647 172.005 19.7033 173.056 20.0342C174.108 20.3651 175.057 20.9595 175.814 21.761C176.571 22.5625 177.111 23.5443 177.381 24.6131C177.651 25.6818 177.644 26.802 177.359 27.867Z" fill="#FFC3BD"/>
<path d="M163.932 33.2194H163.766L153.316 31.0061C152.748 30.8859 152.25 30.5449 151.934 30.0581C151.617 29.5714 151.506 28.9787 151.627 28.4105C151.747 27.8423 152.088 27.3451 152.574 27.0283C153.061 26.7115 153.654 26.6011 154.222 26.7212C154.325 26.7432 154.424 26.7854 154.511 26.8453C154.598 26.9053 154.672 26.9819 154.729 27.0707C154.786 27.1596 154.826 27.2588 154.844 27.3629C154.863 27.4669 154.861 27.5736 154.839 27.6768C154.793 27.8848 154.667 28.0663 154.488 28.1818C154.309 28.2973 154.091 28.3374 153.883 28.2934C153.809 28.2755 153.733 28.2735 153.659 28.2873C153.584 28.3011 153.514 28.3305 153.451 28.3735C153.389 28.414 153.335 28.4664 153.293 28.5278C153.25 28.5891 153.22 28.6582 153.205 28.7311C153.178 28.8799 153.206 29.0335 153.285 29.1627C153.37 29.2855 153.497 29.3732 153.643 29.4093L164.093 31.6226C164.287 31.6649 164.459 31.7773 164.575 31.9384C164.692 32.0994 164.745 32.2978 164.724 32.4955C164.704 32.6932 164.611 32.8764 164.463 33.01C164.316 33.1435 164.125 33.2181 163.926 33.2194H163.932Z" fill="#407BFF"/>
<path d="M163.888 33.404L162.624 33.1328L163.025 31.2832L164.258 31.5483C164.507 31.6016 164.725 31.7516 164.864 31.9655C165.003 32.1793 165.051 32.4395 164.998 32.6889C164.936 32.9256 164.788 33.1306 164.582 33.2631C164.377 33.3956 164.129 33.4459 163.888 33.404Z" fill="white"/>
<path d="M174.503 25.3398C174.503 23.5888 173.184 22.3126 168.782 22.6517C165.187 22.923 163.436 21.246 164.466 18.9094C167.376 20.4261 166.895 18.4409 172.444 18.2004C177.993 17.96 179.602 20.05 180.187 23.2991C183.584 28.3361 177.721 30.4261 177.721 30.4261L175.428 32.4298C174.953 32.5378 174.457 32.5164 173.993 32.3678C173.529 32.2193 173.113 31.949 172.789 31.5851C172.789 31.5851 172.339 27.4976 174.503 25.3398Z" fill="#263238"/>
<path d="M168.611 17.3314L168.469 17.4054C168.338 17.4756 168.226 17.5794 168.147 17.7062C168.068 17.8331 168.024 17.9785 168.019 18.1279C168.014 18.2773 168.048 18.4253 168.119 18.5572C168.189 18.689 168.293 18.8 168.42 18.8789L181.293 26.8382C181.414 26.9124 181.552 26.9552 181.694 26.9625C181.836 26.9699 181.977 26.9416 182.105 26.8803C182.233 26.8191 182.344 26.7267 182.427 26.6116C182.51 26.4966 182.564 26.3625 182.582 26.2217C182.642 25.8241 182.584 25.4176 182.415 25.0526C182.246 24.6876 181.974 24.3803 181.632 24.1687L170.658 17.3869C170.351 17.1999 170.001 17.0964 169.642 17.0867C169.283 17.077 168.928 17.1613 168.611 17.3314Z" fill="#407BFF"/>
<path d="M170.929 18.1817L174.221 13.3604C174.315 13.223 174.458 13.1267 174.621 13.0912C174.783 13.0557 174.954 13.0836 175.096 13.1693L184.184 18.6132C184.264 18.6597 184.332 18.7226 184.386 18.7978C184.439 18.873 184.475 18.9587 184.493 19.0491C184.51 19.1396 184.508 19.2327 184.487 19.3224C184.466 19.412 184.425 19.496 184.369 19.5688L180.429 24.7723L170.929 18.1817Z" fill="#407BFF"/>
<path d="M170.929 18.1829L172.242 15.834L182.39 22.5418L180.429 24.7736L170.929 18.1829Z" fill="#407BFF"/>
<path opacity="0.6" d="M170.929 18.1829L172.242 15.834L182.39 22.5418L180.429 24.7736L170.929 18.1829Z" fill="white"/>
<path d="M177.944 33.5096C177.042 34.125 175.936 34.3639 174.861 34.1755C173.461 33.9042 173.461 32.4862 174.429 31.4813C175.299 30.575 177.08 29.6317 178.203 30.4147C179.325 31.1977 179.06 32.739 177.944 33.5096Z" fill="#FFC3BD"/>
<path d="M175.201 185.672H183.29C183.29 185.672 182.02 156.905 180.275 142.121C179.745 137.621 180.319 131.455 180.374 124.569C180.448 115.894 180.849 106.443 181.243 99.0262C181.663 91.2148 182.014 85.5859 182.014 85.5859L165.467 87.9472C165.467 87.9472 163.827 128.903 166.397 143.256C169.073 158.163 175.201 185.672 175.201 185.672Z" fill="#407BFF"/>
<path opacity="0.2" d="M180.372 124.552C180.446 115.877 180.847 106.426 181.242 99.0093L178.776 95.7109C175.73 101.414 177.845 116.599 180.372 124.552Z" fill="black"/>
<path d="M173.352 86.8013C173.352 86.8013 183.629 127.387 188.512 140.513C193.857 154.878 213.543 171.672 213.543 171.672L218.518 166.197C218.518 166.197 208.105 149.964 200.429 134.348C196.761 114.07 190.768 84.3105 190.768 84.3105L173.352 86.8013Z" fill="#407BFF"/>
<path d="M212.878 172.498L220.677 165.76L218.661 163.436L209.813 170.815L212.878 172.498Z" fill="#263238"/>
<path d="M174.186 185.858L183.829 185.845L183.822 182.732L173.052 182.584L174.186 185.858Z" fill="#263238"/>
<path d="M170.257 26.9681C169.949 26.8756 169.585 27.1715 169.438 27.6339L170.535 27.9853C170.683 27.5229 170.56 27.0667 170.257 26.9681Z" fill="#263238"/>
<path d="M165.448 26.0605C165.133 26.0605 164.831 26.4181 164.831 26.9052L165.978 26.9792C165.996 26.4921 165.768 26.1099 165.448 26.0605Z" fill="#263238"/>
<path d="M167.108 27.4668C166.436 28.5388 165.621 29.5137 164.685 30.3645C164.91 30.5979 165.183 30.7795 165.485 30.8966C165.788 31.0138 166.112 31.0636 166.435 31.0426L167.108 27.4668Z" fill="#ED847E"/>
<path d="M171.824 26.4749C171.862 26.4841 171.902 26.4841 171.941 26.4749C171.998 26.4565 172.045 26.4164 172.073 26.3634C172.101 26.3103 172.106 26.2485 172.089 26.1913C171.993 25.8452 171.815 25.5273 171.57 25.2644C171.326 25.0015 171.021 24.8013 170.683 24.6808C170.655 24.6715 170.625 24.6681 170.595 24.6709C170.566 24.6737 170.537 24.6826 170.511 24.6971C170.485 24.7116 170.462 24.7313 170.444 24.755C170.426 24.7788 170.413 24.806 170.406 24.8349C170.397 24.8633 170.395 24.893 170.398 24.9224C170.401 24.9518 170.41 24.9803 170.424 25.0061C170.439 25.0319 170.458 25.0547 170.481 25.0729C170.505 25.0912 170.531 25.1046 170.56 25.1124C170.828 25.2155 171.067 25.3812 171.258 25.5957C171.449 25.8102 171.586 26.0673 171.657 26.3454C171.673 26.3783 171.697 26.407 171.726 26.4294C171.754 26.4518 171.788 26.4674 171.824 26.4749Z" fill="#263238"/>
<path d="M164.024 25.4145C164.061 25.4207 164.099 25.4178 164.134 25.406C164.17 25.3942 164.202 25.3738 164.228 25.3467C164.413 25.1326 164.647 24.9653 164.909 24.8582C165.172 24.7511 165.456 24.7072 165.738 24.7302C165.798 24.739 165.858 24.7239 165.907 24.6881C165.955 24.6522 165.988 24.5987 165.997 24.539C166.006 24.481 165.991 24.4218 165.957 24.3745C165.922 24.3271 165.87 24.2954 165.812 24.2863C165.455 24.2509 165.094 24.3019 164.76 24.435C164.427 24.568 164.13 24.7792 163.895 25.0508C163.873 25.0715 163.856 25.0964 163.844 25.1239C163.832 25.1515 163.826 25.1811 163.826 25.2111C163.826 25.241 163.832 25.2707 163.844 25.2982C163.856 25.3258 163.873 25.3506 163.895 25.3714C163.933 25.3973 163.978 25.4123 164.024 25.4145Z" fill="#263238"/>
<path d="M218.525 176.283C218.838 175.996 219.12 175.676 219.363 175.328C219.375 175.309 219.382 175.288 219.382 175.266C219.382 175.244 219.375 175.223 219.363 175.204C219.354 175.184 219.338 175.167 219.317 175.157C219.297 175.147 219.274 175.144 219.252 175.149C219.055 175.149 217.298 175.439 217.07 176C217.044 176.061 217.036 176.128 217.044 176.194C217.053 176.26 217.079 176.323 217.119 176.376C217.177 176.471 217.259 176.549 217.356 176.604C217.453 176.659 217.562 176.689 217.674 176.69C217.996 176.657 218.297 176.513 218.525 176.283ZM219.018 175.42C218.506 176.08 218.013 176.462 217.68 176.462C217.604 176.46 217.531 176.439 217.466 176.4C217.401 176.361 217.347 176.306 217.31 176.24C217.296 176.218 217.288 176.192 217.288 176.166C217.288 176.14 217.296 176.114 217.31 176.092C217.396 175.802 218.315 175.543 219.018 175.42Z" fill="#407BFF"/>
<path d="M219.344 175.353C219.361 175.338 219.373 175.319 219.381 175.298C219.391 175.28 219.395 175.26 219.395 175.239C219.395 175.219 219.391 175.199 219.381 175.181C219.338 175.137 218.395 174.133 217.692 174.139C217.606 174.139 217.521 174.157 217.442 174.192C217.364 174.227 217.294 174.278 217.236 174.342C217.171 174.399 217.126 174.476 217.111 174.561C217.095 174.646 217.109 174.734 217.15 174.811C217.402 175.292 218.777 175.489 219.32 175.378L219.344 175.353ZM217.409 174.465C217.48 174.404 217.573 174.371 217.667 174.373C218.118 174.373 218.734 174.897 219.03 175.174C218.413 175.205 217.47 174.983 217.316 174.7C217.316 174.669 217.273 174.607 217.372 174.502L217.409 174.465Z" fill="#407BFF"/>
<path d="M177.178 192.24C177.198 192.233 177.216 192.221 177.229 192.204C177.242 192.188 177.25 192.168 177.252 192.147C177.258 192.124 177.255 192.1 177.245 192.079C177.235 192.058 177.218 192.041 177.197 192.03C176.975 191.919 175.058 190.945 174.478 191.272C174.423 191.301 174.376 191.344 174.342 191.397C174.309 191.45 174.29 191.511 174.287 191.574C174.274 191.676 174.287 191.78 174.325 191.876C174.363 191.972 174.424 192.056 174.503 192.123C175.027 192.585 176.395 192.394 177.166 192.24H177.178ZM174.626 191.451C174.99 191.327 176.032 191.722 176.79 192.067C175.736 192.246 174.94 192.203 174.651 191.938C174.599 191.893 174.56 191.837 174.536 191.773C174.512 191.71 174.505 191.641 174.515 191.574C174.515 191.549 174.522 191.525 174.535 191.505C174.548 191.484 174.567 191.467 174.589 191.457L174.626 191.451Z" fill="#407BFF"/>
<path d="M177.18 192.24H177.211C177.226 192.227 177.239 192.211 177.248 192.193C177.256 192.175 177.26 192.155 177.26 192.135C177.26 192.086 177.118 190.797 176.514 190.285C176.43 190.213 176.331 190.159 176.225 190.127C176.119 190.094 176.008 190.083 175.897 190.094C175.583 190.094 175.497 190.285 175.478 190.409C175.392 190.951 176.533 191.981 177.112 192.258C177.136 192.259 177.16 192.252 177.18 192.24ZM175.793 190.335H175.91C175.992 190.325 176.075 190.334 176.154 190.359C176.233 190.385 176.305 190.427 176.366 190.483C176.718 190.896 176.933 191.409 176.983 191.95C176.397 191.599 175.614 190.791 175.669 190.464C175.682 190.421 175.682 190.366 175.793 190.335Z" fill="#407BFF"/>
<path d="M185.27 72.6836L180.671 74.1386L184.241 77.6898C184.241 77.6898 188.408 75.8834 187.101 74.0461L185.27 72.6836Z" fill="#FFC3BD"/>
<path d="M178.779 78.1954L182.053 80.1806L184.242 77.6899L180.672 74.1387L178.779 78.1954Z" fill="#FFC3BD"/>
</svg>
