<svg width="24" height="24" viewBox="0 0 24 24" fill="none" xmlns="http://www.w3.org/2000/svg">
<path fill-rule="evenodd" clip-rule="evenodd" d="M12 1.25C6.06245 1.25 1.25 6.06245 1.25 12C1.25 17.9375 6.06245 22.75 12 22.75C17.9375 22.75 22.75 17.9375 22.75 12C22.75 6.06245 17.9375 1.25 12 1.25ZM17.1113 10.3415C17.4417 10.0111 17.4417 9.47532 17.1113 9.14488C16.7809 8.81443 16.2451 8.81443 15.9147 9.14488L10.872 14.1876L8.08566 11.4013C7.75521 11.0708 7.21946 11.0708 6.88902 11.4013C6.55857 11.7317 6.55857 12.2675 6.88902 12.5979L10.2736 15.9825C10.6041 16.313 11.1398 16.313 11.4703 15.9825L17.1113 10.3415Z" fill="white"/>
</svg>
