<svg width="24" height="24" viewBox="0 0 24 24" fill="none" xmlns="http://www.w3.org/2000/svg">
<path fill-rule="evenodd" clip-rule="evenodd" d="M1.63786 12.5445C1.4547 12.205 1.4547 11.7932 1.63786 11.4537C3.8452 7.37151 7.9227 3.83301 12.0002 3.83301C16.0777 3.83301 20.1552 7.37151 22.3625 11.4548C22.5457 11.7943 22.5457 12.2062 22.3625 12.5457C20.1552 16.6278 16.0777 20.1663 12.0002 20.1663C7.9227 20.1663 3.8452 16.6278 1.63786 12.5445Z" stroke="#4D5971" stroke-width="1.5" stroke-linecap="round" stroke-linejoin="round"/>
<path d="M14.4749 9.52512C15.8417 10.892 15.8417 13.108 14.4749 14.4749C13.108 15.8417 10.892 15.8417 9.52512 14.4749C8.15829 13.108 8.15829 10.892 9.52512 9.52512C10.892 8.15829 13.108 8.15829 14.4749 9.52512" stroke="#4D5971" stroke-width="1.4286" stroke-linecap="round" stroke-linejoin="round"/>
</svg>
