<svg width="171" height="170" viewBox="0 0 171 170" fill="none" xmlns="http://www.w3.org/2000/svg">
<g filter="url(#filter0_d)">
<path d="M113.855 145.735L113.835 145.755C105.214 154.376 93.523 159.218 81.3337 159.218H72.7773C49.3956 159.218 30.4378 140.262 30.4378 116.878C30.4378 106.715 27.7617 96.7331 22.6811 87.9317C22.6811 87.9317 22.681 87.9316 22.681 87.9316L9.12973 64.4598C6.51616 59.9338 7.1376 54.3959 10.335 50.579M113.855 145.735L11.2947 63.2096C9.22002 59.6168 9.71077 55.2173 12.2514 52.1843C16.5158 47.0822 24.6415 47.6997 28.0243 53.5516C32.5798 61.4422 34.8644 65.3994 35.9606 67.2979C37.2207 66.6264 38.6626 67.0066 38.6834 67.014M113.855 145.735L113.875 145.714L159.174 98.3033C164.899 92.5499 162.858 83.338 155.939 80.3134C154.631 79.6787 152.962 79.4075 151.252 79.3713C149.461 79.3334 147.412 79.5494 145.262 80.052C140.966 81.056 136.098 83.2442 131.954 87.0845L131.947 87.0911C131.858 87.1739 131.792 87.2333 131.727 87.2939C131.184 87.7995 130.713 88.3837 117.83 103.299C116.357 104.687 113.909 103.65 113.909 101.597V89.0904L129.645 30.3674L129.646 30.3663C131.302 24.176 128.252 17.7773 123.167 15.192C116.905 11.7162 109.099 13.9948 105.579 19.5448C105.54 19.6035 105.497 19.6645 105.449 19.731C105.219 20.0563 104.894 20.5129 104.521 21.4829C104.145 22.4622 103.609 24.1903 102.588 27.6907C101.512 31.3758 99.8652 37.1455 97.2496 46.3068C95.8548 51.1924 94.1846 57.0426 92.1789 64.0555M113.855 145.735L92.1789 64.0555M10.335 50.579L12.2514 52.1843L10.3332 50.5811C10.3338 50.5804 10.3344 50.5797 10.335 50.579ZM10.335 50.579C15.7017 44.1607 25.928 44.9298 30.1887 52.3004L30.1893 52.3016L38.3726 66.4758L38.6834 67.014M38.6834 67.014C38.6835 67.014 38.6836 67.014 38.6836 67.0141L38.6853 67.017L38.6859 67.018C38.6864 67.019 38.6873 67.0204 38.6884 67.0223L38.6871 67.0201L38.6867 67.0194C38.6893 67.024 38.6948 67.0334 38.6997 67.0422L38.6834 67.014ZM37.4523 69.8814C38.6717 69.1183 39.0601 67.6665 39.0581 67.663L39.0555 67.6585L39.0534 67.6548L37.4523 69.8814ZM37.4523 69.8814C38.2864 71.3261 39.8064 73.9589 42.4863 78.601C41.5855 75.2479 40.7473 72.1328 39.9675 69.2379M37.4523 69.8814L61.5657 56.1742C57.9792 42.7878 54.1431 28.4697 53.7117 26.8591C51.133 17.2448 37.8773 15.813 33.4297 24.9486C32.885 26.0382 32.4911 27.5992 32.4911 27.9125C32.4483 28.1582 32.4085 28.3741 32.3789 28.5914C32.0538 30.9803 32.9672 33.5377 44.8156 77.6354L39.9675 69.2379M39.9675 69.2379C38.7997 64.9024 37.763 61.0607 36.8435 57.653C34.205 47.8755 32.5308 41.6711 31.4906 37.6289C30.574 34.0667 30.111 32.041 29.9295 30.6881C29.7295 29.1967 29.8645 28.4175 30.0073 27.6026C30.0345 27.3253 30.0893 27.0715 30.1191 26.9354C30.179 26.6619 30.2607 26.3457 30.358 26.0154C30.5464 25.3756 30.8277 24.5653 31.1876 23.8428C36.669 12.6076 52.9589 14.4024 56.1263 26.2115L56.1265 26.2122C56.5581 27.8234 60.396 42.1482 63.9833 55.5374C64.4792 57.3882 64.9702 59.221 65.4469 61C65.4457 52.9385 65.4439 46.3627 65.4425 40.9949C65.4404 32.8603 65.4389 27.5 65.4413 23.9473C65.4459 16.9759 65.4601 16.8741 65.5418 16.2861C65.5469 16.2499 65.5522 16.2118 65.5577 16.1701M39.9675 69.2379L39.7895 68.9295L38.8288 67.2656L38.9891 67.5433L39.041 67.6333L39.0512 67.651L65.5577 16.1701M92.1789 64.0555V17.8832C92.1789 10.3333 85.9011 4.19047 78.1932 4.53312C72.407 4.56686 66.472 9.31926 65.5577 16.1701M92.1789 64.0555L65.5578 16.1698C65.5578 16.1699 65.5578 16.17 65.5577 16.1701M36.6714 68.5289C36.4828 68.2022 36.3429 67.9598 37.0813 69.2388C37.6586 68.9312 38.1979 68.4028 38.5449 67.5168C37.6057 67.3783 36.8797 67.5828 36.3253 67.9297C37.1542 69.3653 36.8824 68.8944 36.6714 68.5289Z" fill="#FFC99C" stroke="white" stroke-width="5"/>
<path d="M158.236 87.2982L106.439 141.06C99.9284 146.786 91.873 150.423 83.3196 151.527C56.3597 155.032 36.5867 135.058 36.5867 112.05C36.5867 101.447 33.7949 91.0346 28.495 81.8534C10.2141 50.7629 11.2753 52.5856 11.0713 52.1851C13.4475 49.3423 17.3155 48.0463 21.0432 49.0704C23.1369 49.645 24.3363 50.6009 25.6972 51.9618C35.9541 69.1413 46.1723 86.9782 46.1421 86.9782C48.7308 86.9782 50.615 84.5227 49.945 82.0221C35.5273 28.2165 36.2073 31.5606 36.306 29.2382C36.389 25.8403 38.3749 22.2219 41.6149 20.3316C42.9743 19.5333 44.4821 19.1165 44.6059 19.1153C48.3363 20.0238 51.4661 22.891 52.5315 26.8599C53.9506 32.157 65.234 74.2713 66.7681 79.9973C66.7681 11.85 66.6954 17.3865 66.9371 15.9614C67.2302 14.33 67.9159 12.7947 68.7027 11.6937C69.6371 10.3304 70.8936 9.33653 70.9241 9.33653C78.2901 3.65548 88.4987 9.04256 88.4987 17.8839V81.8685C106.121 20.3986 105.176 23.6323 105.34 23.2079C107.913 15.8753 117.737 13.3081 123.579 19.5831C123.95 20.0036 125.245 14.4414 105.4 89.6674V102.504C105.4 106.197 109.522 109.762 114.283 107.909C117.481 106.663 119.273 104.087 121.725 101.248C132.758 88.4786 131.439 89.9804 132.205 89.1745C135.418 86.0677 139.607 83.6519 144.41 82.5416C146.433 82.0786 149.63 81.669 151.587 81.9681C154.244 82.3774 156.434 83.983 157.675 86.1332C158.018 86.7078 158.221 87.268 158.236 87.2982Z" fill="#FFDAB9"/>
<path d="M69.2002 144.344C67.8667 144.344 66.7856 143.263 66.7856 141.929C66.7856 122.642 81.1807 106.181 100.27 103.638C101.596 103.464 102.806 104.391 102.982 105.713C103.158 107.034 102.229 108.249 100.908 108.425C84.2079 110.649 71.6144 125.053 71.6144 141.929C71.6147 143.263 70.5336 144.344 69.2002 144.344Z" fill="#FFC99C"/>
</g>
<defs>
<filter id="filter0_d" x="-0.000488281" y="0.0195312" width="170.003" height="169.698" filterUnits="userSpaceOnUse" color-interpolation-filters="sRGB">
<feFlood flood-opacity="0" result="BackgroundImageFix"/>
<feColorMatrix in="SourceAlpha" type="matrix" values="0 0 0 0 0 0 0 0 0 0 0 0 0 0 0 0 0 0 127 0"/>
<feOffset dy="3"/>
<feGaussianBlur stdDeviation="2.5"/>
<feColorMatrix type="matrix" values="0 0 0 0 0 0 0 0 0 0 0 0 0 0 0 0 0 0 0.08 0"/>
<feBlend mode="normal" in2="BackgroundImageFix" result="effect1_dropShadow"/>
<feBlend mode="normal" in="SourceGraphic" in2="effect1_dropShadow" result="shape"/>
</filter>
</defs>
</svg>
