<svg width="190" height="183" viewBox="0 0 190 183" fill="none" xmlns="http://www.w3.org/2000/svg">
<path d="M94.9621 182.053C147.408 182.053 189.924 179.571 189.924 176.509C189.924 173.447 147.408 170.965 94.9621 170.965C42.5159 170.965 -7.62939e-05 173.447 -7.62939e-05 176.509C-7.62939e-05 179.571 42.5159 182.053 94.9621 182.053Z" fill="#F5F5F5"/>
<path d="M111.06 62.413C110.972 63.8823 110.8 65.2292 110.609 66.625C110.418 68.0209 110.159 69.3873 109.865 70.7587C109.292 73.5343 108.464 76.251 107.391 78.8743L106.946 79.8538L106.838 80.0987L106.799 80.226L106.72 80.3828C106.571 80.6902 106.381 80.9767 106.157 81.235C105.89 81.5354 105.572 81.7858 105.217 81.9745C104.868 82.1573 104.49 82.2767 104.1 82.3272C103.501 82.3912 102.895 82.3278 102.322 82.1411C101.511 81.864 100.745 81.4678 100.05 80.9656C99.4416 80.5369 98.8609 80.0707 98.3109 79.5697C96.2496 77.6583 94.3946 75.5358 92.7765 73.237L94.3976 71.8607C95.3772 72.7668 96.3567 73.6827 97.3363 74.5496C98.3102 75.4163 99.3269 76.2336 100.383 76.9984C100.88 77.3539 101.396 77.681 101.93 77.978C102.361 78.2391 102.826 78.4386 103.312 78.5706C103.478 78.6049 103.596 78.5706 103.542 78.5706C103.426 78.5834 103.318 78.6333 103.233 78.7126C103.204 78.7126 103.204 78.7126 103.233 78.7126L103.39 78.3061L103.733 77.4147C104.582 74.9606 105.245 72.4458 105.716 69.8918C105.976 68.6086 106.157 67.3009 106.353 66.003C106.549 64.7051 106.686 63.368 106.799 62.1289L111.06 62.413Z" fill="#FFC3BD"/>
<path d="M108.091 57.0207C106.265 57.486 104.986 64.9992 104.986 64.9992L110.016 68.4276C110.016 68.4276 114.84 60.8508 113.445 58.8427C111.975 56.7416 110.756 56.3449 108.091 57.0207Z" fill="#407BFF"/>
<path d="M108.091 57.0207C106.265 57.486 104.986 64.9992 104.986 64.9992L110.016 68.4276C110.016 68.4276 114.84 60.8508 113.445 58.8427C111.975 56.7416 110.756 56.3449 108.091 57.0207Z" fill="#407BFF"/>
<path opacity="0.4" d="M108.091 57.0207C106.265 57.486 104.986 64.9992 104.986 64.9992L110.016 68.4276C110.016 68.4276 114.84 60.8508 113.445 58.8427C111.975 56.7416 110.756 56.3449 108.091 57.0207Z" fill="black"/>
<path opacity="0.3" d="M108.254 58.7012L106.853 66.2682L109.679 68.1881L108.254 58.7012Z" fill="black"/>
<path d="M94.4814 71.5525L92.106 67.7715L90.7493 72.0668C90.7493 72.0668 92.7084 74.1238 94.4862 73.6341L94.4814 71.5525Z" fill="#FFC3BD"/>
<path d="M88.5783 66.5215L87.6379 70.1752L90.7284 72.0657L92.0851 67.7704L88.5783 66.5215Z" fill="#FFC3BD"/>
<path d="M117.691 173.5H113.263L112.965 163.244H117.397L117.691 173.5Z" fill="#FFC3BD"/>
<path d="M155.591 160.434L152.216 163.304L144.493 156.408L147.867 153.543L155.591 160.434Z" fill="#FFC3BD"/>
<path d="M151.292 162.959L154.568 159.208C154.624 159.143 154.702 159.101 154.787 159.089C154.871 159.078 154.957 159.097 155.029 159.144L158.364 161.304C158.446 161.361 158.516 161.435 158.567 161.521C158.619 161.607 158.652 161.702 158.664 161.802C158.676 161.901 158.667 162.002 158.637 162.098C158.607 162.193 158.558 162.282 158.492 162.357C157.326 163.645 156.699 164.208 155.259 165.854C154.377 166.868 153.187 168.445 151.963 169.841C150.738 171.236 149.289 170.11 149.676 169.414C151.395 166.309 150.983 165.222 151.013 163.694C151.017 163.424 151.116 163.164 151.292 162.959Z" fill="#263238"/>
<path d="M113.111 172.99H118.087C118.173 172.989 118.256 173.02 118.321 173.076C118.386 173.132 118.428 173.209 118.44 173.294L119.008 177.212C119.024 177.316 119.017 177.421 118.987 177.522C118.957 177.622 118.906 177.715 118.836 177.793C118.766 177.871 118.68 177.933 118.584 177.974C118.487 178.015 118.383 178.034 118.278 178.03C116.544 178.001 115.707 177.898 113.518 177.898C112.171 177.898 109.389 178.04 107.528 178.04C105.666 178.04 105.569 176.198 106.347 176.037C109.815 175.287 111.181 174.259 112.352 173.274C112.562 173.091 112.832 172.99 113.111 172.99Z" fill="#263238"/>
<path opacity="0.2" d="M112.969 163.248L113.12 168.533H117.548L117.396 163.248H112.969Z" fill="black"/>
<path opacity="0.2" d="M147.872 153.543L144.493 156.408L148.479 159.964L151.854 157.094L147.872 153.543Z" fill="black"/>
<path d="M108.091 57.0199C108.091 57.0199 105.98 57.7643 110.207 83.7517H128.192C127.893 76.4296 127.883 71.9139 131.38 56.8925C128.862 56.3734 126.31 56.0362 123.744 55.8836C121.025 55.6898 118.295 55.6898 115.575 55.8836C112.068 56.2265 108.091 57.0199 108.091 57.0199Z" fill="#407BFF"/>
<path opacity="0.4" d="M108.091 57.0199C108.091 57.0199 105.98 57.7643 110.207 83.7517H128.192C127.893 76.4296 127.883 71.9139 131.38 56.8925C128.862 56.3734 126.31 56.0362 123.744 55.8836C121.025 55.6898 118.295 55.6898 115.575 55.8836C112.068 56.2265 108.091 57.0199 108.091 57.0199Z" fill="black"/>
<path d="M123.744 55.8836C121.024 55.6898 118.294 55.6898 115.575 55.8836C115.134 55.9228 114.683 55.9718 114.238 56.0256C114.053 56.304 113.935 56.621 113.893 56.9522C113.85 57.2834 113.884 57.6199 113.993 57.9358C114.566 59.361 116.633 59.5275 118.141 59.5275C123.71 59.5275 124.65 56.2754 124.689 56.1383L124.743 55.9424C124.43 55.9228 124.077 55.8983 123.744 55.8836Z" fill="white"/>
<path d="M122.962 46.6914C122.442 49.3166 121.933 54.1311 123.77 55.8845C123.77 55.8845 123.05 58.5537 118.167 58.5537C112.779 58.5537 115.6 55.8894 115.6 55.8894C118.539 55.189 118.456 53.0144 117.946 50.9916L122.962 46.6914Z" fill="#FFC3BD"/>
<path opacity="0.2" d="M120.887 48.4336L117.919 50.9657C118.047 51.4471 118.132 51.9388 118.174 52.435C119.291 52.2734 120.829 51.0441 120.951 49.8735C121.02 49.3938 120.998 48.9054 120.887 48.4336Z" fill="black"/>
<path d="M119.88 32.4005C119.424 30.8577 119.042 28.4284 121.785 27.3313C120.713 26.0187 120.453 23.5502 121.785 22.0858C123.117 20.6214 125.116 21.1601 125.116 21.1601C125.116 21.1601 125.703 17.5799 130.057 18.2215C134.412 18.8631 132.472 21.7283 132.472 21.7283C132.472 21.7283 138.413 20.5528 138.81 26.1362C139.206 31.7197 135.798 31.034 135.798 31.034C135.798 31.034 138.447 33.2576 136.978 35.7015C135.509 38.1455 132.114 37.3031 132.114 37.3031C132.114 37.3031 130.518 41.6229 126.756 39.1642C122.995 36.7056 119.88 32.4005 119.88 32.4005Z" fill="#263238"/>
<path d="M111.06 35.6569C109.591 37.5572 110.237 39.7073 111.55 40.5546C114.709 42.5725 119.278 34.1092 118.088 33.0954C116.898 32.0815 112.529 33.7517 111.06 35.6569Z" fill="#263238"/>
<path d="M124.326 31.1304C122.25 30.2929 120.144 31.1696 119.487 32.4332C117.886 35.5139 125.159 41.063 127.265 37.2134C128.514 34.9262 126.467 31.9924 124.326 31.1304Z" fill="#407BFF"/>
<path d="M123.45 40.5532C123.602 44.9612 123.759 46.8027 121.765 49.2565C118.773 52.9445 113.341 52.1706 111.881 47.9096C110.569 44.0747 110.544 37.5362 114.654 35.391C115.557 34.9132 116.567 34.6742 117.589 34.6968C118.611 34.7193 119.61 35.0027 120.491 35.5199C121.372 36.0371 122.107 36.771 122.625 37.652C123.143 38.5329 123.427 39.5316 123.45 40.5532Z" fill="#FFC3BD"/>
<path d="M122.79 42.861C120.831 42.1313 120.341 39.844 120.655 38.9428C119.675 38.9036 117.535 38.551 116.737 37.3364C115.208 38.3159 111.981 39.2955 111.633 37.6645C111.285 36.0336 116.154 31.8411 119.837 31.5179C124.215 31.1358 128.535 35.436 127.423 39.555C126.312 43.674 122.79 42.861 122.79 42.861Z" fill="#263238"/>
<path d="M110.241 83.8281C110.241 83.8281 106.716 113.543 107.008 125.309C107.314 137.544 112.511 165.45 112.511 165.45H118.552C118.552 165.45 117.598 138.257 118.132 126.243C118.715 113.141 123.536 83.8281 123.536 83.8281H110.241Z" fill="#263238"/>
<path d="M118.683 167.725H111.66L111.141 165.487L119.011 165.213L118.683 167.725Z" fill="#407BFF"/>
<path opacity="0.2" d="M117.965 92.2408C113.557 101.125 117.079 117.337 118.641 123.371C119.439 114.31 120.791 103.236 121.844 95.106C121.178 90.5119 120.022 88.1414 117.965 92.2408Z" fill="black"/>
<path d="M114.712 83.8375C114.712 83.8375 118.605 117.69 121.543 128.56C125.034 141.464 146.712 158.832 146.712 158.832L151.111 155.092C151.111 155.092 135.398 136.223 132.726 129.425C127.032 114.932 131.908 93.2954 127.355 83.8281L114.712 83.8375Z" fill="#263238"/>
<path d="M152.339 155.756L146.628 160.604L144.493 159.326L150.953 153.316L152.339 155.756Z" fill="#407BFF"/>
<path d="M116.931 42.3965C116.965 42.754 116.804 43.0576 116.573 43.0821C116.343 43.1066 116.123 42.8324 116.084 42.4797C116.044 42.1271 116.211 41.8136 116.446 41.794C116.681 41.7745 116.897 42.0242 116.931 42.3965Z" fill="#263238"/>
<path d="M112.916 42.7831C112.95 43.1358 112.789 43.4443 112.554 43.4688C112.318 43.4933 112.108 43.219 112.064 42.8615C112.02 42.504 112.191 42.2003 112.421 42.1807C112.652 42.1611 112.882 42.4256 112.916 42.7831Z" fill="#263238"/>
<path d="M112.534 42.19L111.657 42.0234C111.657 42.0234 112.186 42.6503 112.534 42.19Z" fill="#263238"/>
<path d="M114.032 43.291C113.794 44.1319 113.441 44.9361 112.984 45.6811C113.178 45.7929 113.394 45.8612 113.618 45.8815C113.841 45.9018 114.066 45.8735 114.277 45.7987L114.032 43.291Z" fill="#ED847E"/>
<path d="M116.251 46.9697C116.057 47.0228 115.859 47.0588 115.659 47.0774C115.645 47.0788 115.631 47.0774 115.618 47.0735C115.605 47.0695 115.593 47.063 115.583 47.0544C115.572 47.0457 115.564 47.0351 115.557 47.0231C115.551 47.011 115.547 46.9979 115.546 46.9844C115.543 46.9565 115.551 46.9287 115.569 46.9068C115.586 46.8848 115.611 46.8705 115.639 46.8668C116.082 46.8342 116.512 46.698 116.893 46.4692C117.274 46.2404 117.596 45.9253 117.833 45.5493C117.839 45.5364 117.847 45.5248 117.858 45.5153C117.868 45.5059 117.881 45.4988 117.894 45.4946C117.908 45.4904 117.922 45.4892 117.936 45.4911C117.95 45.4929 117.963 45.4977 117.975 45.5053C117.999 45.5187 118.018 45.541 118.026 45.5674C118.034 45.5939 118.032 45.6225 118.019 45.6473C117.624 46.3011 116.99 46.7755 116.251 46.9697Z" fill="#263238"/>
<path d="M124.478 43.5952C124.371 44.438 123.934 45.2041 123.264 45.7257C122.368 46.4114 121.506 45.7257 121.403 44.6531C121.315 43.6736 121.667 42.2043 122.735 41.9202C122.968 41.8727 123.209 41.8825 123.437 41.9487C123.666 42.015 123.875 42.1356 124.046 42.3004C124.218 42.4651 124.346 42.669 124.422 42.8945C124.497 43.12 124.517 43.3605 124.478 43.5952Z" fill="#FFC3BD"/>
<path d="M117.363 39.8781C117.336 39.885 117.308 39.8863 117.28 39.8821C117.252 39.8779 117.225 39.8682 117.201 39.8536C116.979 39.7119 116.727 39.6247 116.465 39.5991C116.203 39.5736 115.938 39.6104 115.693 39.7066C115.642 39.7293 115.584 39.7318 115.532 39.7136C115.479 39.6954 115.435 39.6579 115.409 39.6087C115.385 39.5586 115.382 39.5012 115.401 39.449C115.419 39.3967 115.457 39.3538 115.507 39.3295C115.815 39.2021 116.15 39.1508 116.482 39.1797C116.815 39.2087 117.135 39.3172 117.417 39.496C117.44 39.5101 117.46 39.5286 117.477 39.5506C117.493 39.5725 117.504 39.5974 117.51 39.6238C117.517 39.6502 117.518 39.6776 117.514 39.7044C117.509 39.7313 117.5 39.757 117.486 39.7801C117.458 39.827 117.415 39.8619 117.363 39.8781Z" fill="#263238"/>
<path d="M110.946 41.098C110.895 41.1172 110.839 41.1172 110.789 41.098C110.741 41.0703 110.706 41.0254 110.691 40.9726C110.675 40.9197 110.681 40.863 110.706 40.814C110.855 40.5159 111.074 40.2583 111.345 40.063C111.615 39.8677 111.928 39.7406 112.258 39.6924C112.286 39.6897 112.313 39.6926 112.34 39.7008C112.366 39.709 112.39 39.7224 112.411 39.7402C112.432 39.758 112.45 39.7799 112.462 39.8045C112.474 39.8291 112.482 39.8559 112.484 39.8834C112.488 39.9385 112.47 39.993 112.434 40.0351C112.398 40.0773 112.348 40.1037 112.293 40.1087C112.033 40.1524 111.787 40.2568 111.575 40.4134C111.363 40.57 111.191 40.7743 111.073 41.0099C111.059 41.0326 111.041 41.0523 111.019 41.0674C110.997 41.0826 110.972 41.093 110.946 41.098Z" fill="#263238"/>
<path d="M133.217 61.668C134.216 64.111 135.077 66.6078 135.798 69.1468C136.562 71.7079 137.106 74.3296 137.424 76.9832C137.508 77.6591 137.532 78.3692 137.561 79.0696V79.4663C137.561 79.6084 137.537 79.7553 137.517 79.8826C137.477 80.1274 137.421 80.3695 137.351 80.6075C137.223 81.0148 137.059 81.4099 136.861 81.7879C136.182 83.0435 135.349 84.21 134.383 85.2604C132.595 87.2242 130.627 89.0165 128.505 90.6136L127.09 89.0414C128.721 87.1362 130.367 85.182 131.762 83.1641C132.437 82.2484 133.012 81.2633 133.477 80.2255C133.556 80.0247 133.622 79.8184 133.673 79.6084C133.686 79.5372 133.694 79.4652 133.697 79.3929C133.7 79.3717 133.7 79.3503 133.697 79.3292V79.2606C133.633 78.6827 133.589 78.1048 133.482 77.5121C133.06 75.0927 132.473 72.7051 131.723 70.3663C130.974 67.9958 130.136 65.5911 129.274 63.2989L133.217 61.668Z" fill="#FFC3BD"/>
<path d="M131.38 56.8925C133.182 57.4411 135.347 63.6465 135.347 63.6465L128.348 68.6422C128.348 68.6422 125.797 63.4653 126.556 61.134C127.369 58.7096 129.328 56.2656 131.38 56.8925Z" fill="#407BFF"/>
<path opacity="0.4" d="M131.38 56.8925C133.182 57.4411 135.347 63.6465 135.347 63.6465L128.348 68.6422C128.348 68.6422 125.797 63.4653 126.556 61.134C127.369 58.7096 129.328 56.2656 131.38 56.8925Z" fill="black"/>
<path d="M150.082 165.095C149.992 165.093 149.903 165.07 149.822 165.029C149.742 164.987 149.672 164.928 149.617 164.855C149.573 164.81 149.541 164.753 149.526 164.691C149.51 164.629 149.511 164.564 149.529 164.503C149.696 163.964 151.233 163.523 151.41 163.474C151.429 163.467 151.45 163.467 151.469 163.473C151.489 163.479 151.506 163.492 151.517 163.509C151.528 163.525 151.534 163.545 151.534 163.565C151.534 163.585 151.528 163.604 151.517 163.621C151.243 164.145 150.7 165.027 150.141 165.09L150.082 165.095ZM151.219 163.748C150.611 163.944 149.818 164.282 149.749 164.566C149.742 164.593 149.742 164.622 149.75 164.649C149.758 164.675 149.773 164.699 149.793 164.718C149.833 164.774 149.886 164.819 149.948 164.848C150.009 164.878 150.078 164.89 150.146 164.885C150.43 164.85 150.827 164.429 151.219 163.748Z" fill="#407BFF"/>
<path d="M150.734 163.767C150.276 163.814 149.817 163.684 149.451 163.405C149.4 163.34 149.372 163.26 149.372 163.177C149.372 163.094 149.4 163.014 149.451 162.949C149.495 162.881 149.553 162.824 149.621 162.782C149.69 162.739 149.767 162.713 149.848 162.704C150.484 162.626 151.449 163.459 151.488 163.493C151.503 163.504 151.514 163.52 151.52 163.537C151.526 163.554 151.527 163.573 151.523 163.591C151.521 163.61 151.513 163.628 151.501 163.643C151.489 163.658 151.472 163.668 151.454 163.674C151.22 163.741 150.977 163.772 150.734 163.767ZM149.955 162.91H149.887C149.837 162.916 149.788 162.932 149.745 162.959C149.702 162.985 149.665 163.02 149.637 163.062C149.564 163.175 149.588 163.233 149.637 163.273C149.828 163.522 150.7 163.615 151.229 163.517C150.867 163.204 150.427 162.994 149.955 162.91Z" fill="#407BFF"/>
<path d="M109.36 175.311C108.981 175.345 108.602 175.248 108.287 175.036C108.22 174.975 108.167 174.899 108.134 174.814C108.101 174.729 108.088 174.637 108.096 174.547C108.1 174.488 108.119 174.432 108.15 174.384C108.182 174.335 108.226 174.295 108.277 174.267C108.821 173.969 110.584 174.87 110.785 174.978C110.804 174.988 110.819 175.004 110.828 175.023C110.838 175.042 110.842 175.064 110.839 175.085C110.836 175.107 110.826 175.127 110.812 175.143C110.797 175.159 110.777 175.169 110.756 175.173C110.295 175.262 109.828 175.308 109.36 175.311ZM108.571 174.395C108.504 174.39 108.436 174.404 108.375 174.434C108.354 174.444 108.337 174.46 108.324 174.48C108.312 174.5 108.306 174.523 108.307 174.547C108.299 174.608 108.306 174.67 108.327 174.728C108.348 174.786 108.383 174.838 108.429 174.88C108.698 175.124 109.409 175.164 110.388 175.002C109.822 174.697 109.207 174.492 108.571 174.395Z" fill="#407BFF"/>
<path d="M110.736 175.167H110.692C110.163 174.927 109.12 173.972 109.222 173.473C109.222 173.355 109.325 173.203 109.614 173.174C109.719 173.163 109.824 173.174 109.924 173.205C110.025 173.236 110.117 173.287 110.197 173.355C110.751 173.821 110.853 175.011 110.858 175.065C110.86 175.083 110.857 175.101 110.849 175.117C110.841 175.133 110.829 175.147 110.814 175.158C110.803 175.165 110.79 175.17 110.776 175.171C110.763 175.173 110.749 175.172 110.736 175.167ZM109.678 173.37H109.619C109.423 173.37 109.413 173.468 109.409 173.492C109.36 173.791 110.07 174.545 110.609 174.869C110.565 174.366 110.366 173.888 110.04 173.502C109.941 173.411 109.813 173.359 109.678 173.355V173.37Z" fill="#407BFF"/>
<path d="M128.46 82.6744L128.921 84.2858C128.984 84.4082 128.837 84.5356 128.627 84.5356H110.118C109.957 84.5356 109.819 84.4572 109.81 84.3543L109.648 82.7479C109.648 82.6352 109.775 82.5422 109.957 82.5422H128.171C128.227 82.5375 128.283 82.5472 128.333 82.5703C128.384 82.5935 128.428 82.6294 128.46 82.6744Z" fill="#407BFF"/>
<path opacity="0.3" d="M128.46 82.6744L128.921 84.2858C128.984 84.4082 128.837 84.5356 128.627 84.5356H110.118C109.957 84.5356 109.819 84.4572 109.81 84.3543L109.648 82.7479C109.648 82.6352 109.775 82.5422 109.957 82.5422H128.171C128.227 82.5375 128.283 82.5472 128.333 82.5703C128.384 82.5935 128.428 82.6294 128.46 82.6744Z" fill="white"/>
<path d="M126.016 84.7307H126.506C126.599 84.7307 126.673 84.6817 126.668 84.618L126.438 82.5267C126.438 82.4679 126.349 82.4141 126.251 82.4141H125.762C125.664 82.4141 125.59 82.4679 125.6 82.5267L125.825 84.618C125.835 84.6817 125.899 84.7307 126.016 84.7307Z" fill="#263238"/>
<path d="M111.49 84.7307H111.98C112.078 84.7307 112.151 84.6817 112.146 84.618L111.916 82.5267C111.916 82.4679 111.823 82.4141 111.73 82.4141H111.24C111.142 82.4141 111.069 82.4679 111.074 82.5267L111.304 84.618C111.309 84.6817 111.392 84.7307 111.49 84.7307Z" fill="#263238"/>
<path d="M118.753 84.7307H119.243C119.341 84.7307 119.414 84.6817 119.409 84.618L119.179 82.5267C119.179 82.4679 119.091 82.4141 118.993 82.4141H118.503C118.405 82.4141 118.332 82.4679 118.342 82.5267L118.552 84.6327C118.552 84.6817 118.655 84.7307 118.753 84.7307Z" fill="#263238"/>
<path d="M116.554 41.8032L115.678 41.6367C115.678 41.6367 116.177 42.2636 116.554 41.8032Z" fill="#263238"/>
<path opacity="0.2" d="M75.2116 89.8327C66.9138 93.0563 57.8464 93.7471 49.156 91.8175C40.4657 89.888 32.5426 85.4248 26.3888 78.9924C20.2349 72.5601 16.1266 64.4473 14.5834 55.6801C13.0402 46.9129 14.1314 37.8849 17.719 29.7379C21.3066 21.5908 27.2295 14.6905 34.7386 9.90951C42.2478 5.12854 51.0061 2.68162 59.9059 2.87816C68.8057 3.07471 77.4474 5.90589 84.7382 11.0137C92.029 16.1215 97.6415 23.2766 100.866 31.5741C103.008 37.0838 104.043 42.9615 103.913 48.8714C103.783 54.7813 102.489 60.6077 100.107 66.0177C97.7248 71.4278 94.3 76.3155 90.0284 80.4017C85.7567 84.4879 80.722 87.6926 75.2116 89.8327Z" fill="#407BFF"/>
<path opacity="0.1" d="M67.0671 3.61219L31.7642 83.7881C31.2206 83.3767 30.6818 82.9506 30.1529 82.5196C26.7408 79.6969 23.7693 76.3805 21.3369 72.6801L51.8302 3.42608C56.8822 2.6124 62.0366 2.67536 67.0671 3.61219Z" fill="white"/>
<path opacity="0.1" d="M92.1631 17.5215L58.9712 92.9026C52.0768 92.9099 45.2732 91.3314 39.0864 88.2889L75.3296 5.97266C81.7504 8.48376 87.5094 12.4348 92.1631 17.5215Z" fill="white"/>
<path d="M21.855 17.5559C27.8525 10.2275 35.8886 4.84206 44.9468 2.08074C54.0051 -0.680573 63.6788 -0.693801 72.7446 2.04274C81.8103 4.77927 89.8611 10.1427 95.8787 17.4547C101.896 24.7667 105.61 33.6989 106.552 43.1219C107.493 52.5448 105.619 62.0352 101.166 70.3929C96.7134 78.7506 89.8825 85.6003 81.537 90.0759C73.1915 94.5514 63.7063 96.4517 54.2809 95.5364C44.8554 94.6212 35.913 90.9316 28.5844 84.9341C18.7582 76.8909 12.5291 65.274 11.2671 52.6385C10.0051 40.003 13.8136 27.3837 21.855 17.5559ZM92.931 75.7214C98.4363 68.9919 101.822 60.7809 102.661 52.1269C103.5 43.4729 101.754 34.7644 97.644 27.1027C93.5338 19.441 87.244 13.1701 79.5699 9.08302C71.8958 4.99591 63.1821 3.27613 54.5307 4.14113C45.8792 5.00614 37.6785 8.41709 30.9656 13.9427C24.2526 19.4683 19.3289 26.8603 16.817 35.1841C14.305 43.508 14.3177 52.3897 16.8534 60.7063C19.3891 69.0229 24.334 76.4009 31.0627 81.9073C35.531 85.5639 40.6758 88.3045 46.2034 89.9725C51.731 91.6406 57.533 92.2035 63.2781 91.6291C69.0232 91.0547 74.5989 89.3542 79.6868 86.6247C84.7747 83.8953 89.2751 80.1903 92.931 75.7214Z" fill="#407BFF"/>
<path d="M97.1587 75.5547C101.875 78.3709 106.362 81.4663 110.769 84.6596C115.177 87.8529 119.473 91.1785 123.7 94.5922C127.926 98.0059 132.075 101.518 136.076 105.206C138.081 107.047 140.04 108.938 141.953 110.877C143.873 112.836 145.759 114.795 147.537 116.921C147.948 117.413 148.174 118.033 148.177 118.674C148.18 119.315 147.96 119.937 147.554 120.433C147.149 120.93 146.583 121.269 145.954 121.393C145.325 121.517 144.672 121.418 144.108 121.113C141.66 119.791 139.367 118.332 137.08 116.838C134.793 115.344 132.56 113.786 130.356 112.185C125.948 108.992 121.682 105.627 117.504 102.154C113.326 98.6818 109.212 95.131 105.211 91.4381C101.209 87.7452 97.286 83.9641 93.5931 79.899C93.132 79.3962 92.8676 78.744 92.8484 78.0621C92.8292 77.3801 93.0565 76.7141 93.4886 76.1861C93.9207 75.6582 94.5287 75.3037 95.201 75.1878C95.8733 75.0718 96.5649 75.2021 97.1489 75.5547H97.1587Z" fill="#407BFF"/>
<path d="M127.56 88.5527L122.829 89.2727L126.213 92.2407C126.213 92.2407 128.888 91.2612 129.152 89.449L127.56 88.5527Z" fill="#FFC3BD"/>
<path d="M120.271 91.9897L123.244 94.321L126.873 91.9505L122.828 89.2812L120.271 91.9897Z" fill="#FFC3BD"/>
</svg>
