<svg width="180" height="209" viewBox="0 0 180 209" fill="none" xmlns="http://www.w3.org/2000/svg">
<path d="M160.161 144.795H37.0607C26.1459 144.795 17.2222 135.865 17.2222 124.942V37.0243C17.2222 26.1019 26.1459 17.1719 37.0607 17.1719H160.161C171.076 17.1719 180 26.1019 180 37.0243V124.928C180 135.865 171.076 144.795 160.161 144.795Z" fill="#EEF0F7"/>
<path d="M15.2601 16.7215C14.8822 16.7215 14.5189 16.5761 14.2282 16.2997L3.00818 5.07181C2.44137 4.5046 2.44137 3.58833 3.00818 3.02111C3.57499 2.4539 4.49062 2.4539 5.05743 3.02111L16.2775 14.249C16.8443 14.8162 16.8443 15.7325 16.2775 16.2997C16.0013 16.5761 15.638 16.7215 15.2601 16.7215Z" fill="#EEF0F7"/>
<path d="M22.4688 13.6379C21.7858 13.6379 21.1753 13.158 21.0445 12.4599L18.9807 1.72643C18.8354 0.941054 19.3441 0.170225 20.1289 0.0247853C20.9137 -0.120654 21.684 0.388384 21.8294 1.17376L23.8931 11.9072C24.0385 12.6926 23.5298 13.4634 22.745 13.6088C22.6578 13.6234 22.556 13.6379 22.4688 13.6379Z" fill="#EEF0F7"/>
<path d="M12.179 23.9347C12.0918 23.9347 11.99 23.9201 11.9028 23.9056L1.17694 21.8403C0.39212 21.6949 -0.131094 20.9241 0.0287773 20.1387C0.174114 19.3533 0.944401 18.8298 1.72922 18.9897L12.4551 21.055C13.2399 21.2004 13.7631 21.9712 13.6033 22.7566C13.4725 23.4547 12.862 23.9347 12.179 23.9347Z" fill="#EEF0F7"/>
<path d="M140.657 142.832L135.861 169.476L165.35 137.523L140.657 142.832Z" fill="#EEF0F7"/>
<path d="M133.957 103.78H63.2649C63.2649 99.999 64.7619 96.3776 67.4361 93.716L68.8459 92.2907C71.1422 90.0073 72.4212 86.8949 72.4212 83.6516V67.2024C72.4212 52.4112 84.6731 40.4852 99.5702 41.0088C101.765 41.0961 103.872 41.4451 105.892 42.0414C105.108 44.1212 104.671 46.39 104.671 48.7462C104.671 59.276 113.203 67.8278 123.74 67.8278C124.103 67.8278 124.452 67.8133 124.801 67.7987C124.801 67.8133 124.801 67.8133 124.801 67.8278V83.6516C124.801 86.8949 126.094 90.0073 128.376 92.2907L129.786 93.716C131.123 95.0541 132.169 96.6248 132.881 98.3265C133.579 100.043 133.957 101.89 133.957 103.78Z" fill="#407BFF"/>
<path d="M112.578 107.605C112.229 115.226 105.834 121.248 98.0732 120.971C90.8209 120.724 85.0946 114.776 84.6295 107.605H112.578Z" fill="#407BFF"/>
<path d="M133.378 59.2639C139.184 53.9286 139.568 44.894 134.236 39.0846C128.904 33.2753 119.876 32.891 114.071 38.2263C108.266 43.5616 107.882 52.5961 113.213 58.4055C118.545 64.2149 127.573 64.5992 133.378 59.2639Z" fill="#FF5652"/>
<path d="M128.571 49.4892C128.571 51.2883 128.185 52.6462 127.413 53.5629C126.648 54.4739 125.48 54.9294 123.911 54.9294C122.367 54.9294 121.202 54.4854 120.418 53.5973C119.639 52.7035 119.24 51.3828 119.22 49.6353V47.4695C119.22 45.6704 119.603 44.3211 120.368 43.4216C121.14 42.522 122.314 42.0723 123.891 42.0723C125.454 42.0723 126.619 42.5106 127.384 43.3872C128.156 44.2638 128.552 45.5759 128.571 47.3234V49.4892ZM126.187 47.1515C126.187 45.977 126.004 45.1175 125.637 44.5732C125.271 44.0232 124.689 43.7482 123.891 43.7482C123.113 43.7482 122.54 44.0089 122.174 44.5302C121.808 45.0459 121.615 45.8538 121.595 46.9539V49.79C121.595 50.9588 121.781 51.8297 122.154 52.4027C122.527 52.9756 123.113 53.2621 123.911 53.2621C124.676 53.2621 125.242 52.9985 125.608 52.4714C125.974 51.9386 126.167 51.1078 126.187 49.9791V47.1515Z" fill="white"/>
<path d="M90.5 209C127.779 209 158 206.985 158 204.5C158 202.015 127.779 200 90.5 200C53.2208 200 23 202.015 23 204.5C23 206.985 53.2208 209 90.5 209Z" fill="#EEF0F7"/>
</svg>
