<svg width="250" height="206" viewBox="0 0 250 206" fill="none" xmlns="http://www.w3.org/2000/svg">
<path d="M124.608 205.918C193.428 205.918 249.217 202.661 249.217 198.643C249.217 194.625 193.428 191.368 124.608 191.368C55.7891 191.368 0 194.625 0 198.643C0 202.661 55.7891 205.918 124.608 205.918Z" fill="#F5F5F5"/>
<path d="M167.533 13.4498H166.864V17.6786H167.533V13.4498Z" fill="#407BFF"/>
<path d="M167.533 10.0114H166.89C166.887 7.54833 165.906 5.18723 164.164 3.4462C162.422 1.70516 160.06 0.726407 157.597 0.724707V0.0820312C160.228 0.0904946 162.75 1.13913 164.611 2.99923C166.472 4.85933 167.523 7.37997 167.533 10.0114Z" fill="#407BFF"/>
<path d="M157.571 2.39551H68.8691C64.6595 2.39551 61.2469 5.80805 61.2469 10.0176V190.931C61.2469 195.14 64.6595 198.553 68.8691 198.553H157.571C161.781 198.553 165.193 195.14 165.193 190.931V10.0176C165.193 5.80805 161.781 2.39551 157.571 2.39551Z" fill="#407BFF"/>
<path opacity="0.95" d="M161.736 190.931V10.0115C161.736 7.42401 159.638 5.32642 157.051 5.32642L68.3485 5.32642C65.761 5.32642 63.6634 7.42401 63.6634 10.0115L63.6634 190.931C63.6634 193.519 65.761 195.616 68.3485 195.616H157.051C159.638 195.616 161.736 193.519 161.736 190.931Z" fill="white"/>
<path d="M112.706 188.354C115.634 188.354 118.008 185.98 118.008 183.052C118.008 180.124 115.634 177.75 112.706 177.75C109.778 177.75 107.404 180.124 107.404 183.052C107.404 185.98 109.778 188.354 112.706 188.354Z" fill="#407BFF"/>
<path d="M108.651 4.79297C108.651 5.95372 109.112 7.06694 109.933 7.88772C110.753 8.70849 111.867 9.1696 113.027 9.1696C114.188 9.1696 115.301 8.70849 116.122 7.88772C116.943 7.06694 117.404 5.95372 117.404 4.79297H108.651Z" fill="#407BFF"/>
<path opacity="0.7" d="M141.646 23.7837H84.4475C82.1145 23.7905 79.8789 24.7203 78.2292 26.37C76.5795 28.0197 75.6497 30.2553 75.6429 32.5883V38.4624C75.6497 40.7954 76.5795 43.031 78.2292 44.6807C79.8789 46.3305 82.1145 47.2603 84.4475 47.267H141.646L150.45 52.4856V32.5626C150.435 30.2346 149.502 28.0066 147.853 26.3627C146.204 24.7189 143.974 23.7921 141.646 23.7837Z" fill="#407BFF"/>
<path d="M140.052 32.1964H86.0093V33.6617H140.052V32.1964Z" fill="white"/>
<path d="M140.052 37.3894H96.4078V38.8547H140.052V37.3894Z" fill="white"/>
<path opacity="0.15" d="M84.4154 62.8844H141.614C143.947 62.8912 146.182 63.821 147.832 65.4707C149.482 67.1204 150.411 69.356 150.418 71.6891V77.5567C150.411 79.8897 149.482 82.1253 147.832 83.775C146.182 85.4248 143.947 86.3546 141.614 86.3613H84.4154L75.6108 91.5799V71.6569C75.6243 69.3289 76.5573 67.1006 78.2065 65.4575C79.8557 63.8143 82.0874 62.8894 84.4154 62.8844Z" fill="#407BFF"/>
<path opacity="0.5" d="M140.052 71.2903H86.0093V72.7556H140.052V71.2903Z" fill="#407BFF"/>
<path opacity="0.5" d="M111.074 76.4897H86.0093V77.9551H111.074V76.4897Z" fill="#407BFF"/>
<path opacity="0.5" d="M125.18 76.4897H114.987V77.9551H125.18V76.4897Z" fill="#407BFF"/>
<path opacity="0.7" d="M141.646 101.978H84.4475C82.1145 101.985 79.8789 102.915 78.2292 104.564C76.5795 106.214 75.6497 108.45 75.6429 110.783V116.65C75.648 118.984 76.5772 121.221 78.2273 122.871C79.8774 124.521 82.114 125.45 84.4475 125.455H141.646L150.45 130.674V110.751C150.433 108.424 149.499 106.197 147.851 104.555C146.202 102.912 143.973 101.987 141.646 101.978Z" fill="#407BFF"/>
<path d="M140.052 110.384H86.0093V111.849H140.052V110.384Z" fill="white"/>
<path d="M140.052 115.584H96.4078V117.049H140.052V115.584Z" fill="white"/>
<path opacity="0.15" d="M84.4154 141.072H106.671C109.004 141.081 111.238 142.011 112.888 143.66C114.537 145.31 115.467 147.544 115.476 149.877V155.751C115.467 158.084 114.537 160.318 112.888 161.967C111.238 163.617 109.004 164.547 106.671 164.556H84.4154L75.6108 169.768V149.877C75.6176 147.544 76.5474 145.308 78.1971 143.659C79.8468 142.009 82.0824 141.079 84.4154 141.072Z" fill="#407BFF"/>
<path opacity="0.5" d="M88.8756 152.814C88.8756 153.322 88.7248 153.819 88.4424 154.242C88.1599 154.665 87.7584 154.994 87.2887 155.189C86.8189 155.383 86.3021 155.434 85.8034 155.335C85.3047 155.236 84.8467 154.991 84.4871 154.632C84.1276 154.272 83.8828 153.814 83.7836 153.315C83.6844 152.817 83.7353 152.3 83.9299 151.83C84.1245 151.36 84.4539 150.959 84.8767 150.676C85.2994 150.394 85.7965 150.243 86.3049 150.243C86.9841 150.251 87.6331 150.525 88.1134 151.005C88.5938 151.486 88.8673 152.135 88.8756 152.814Z" fill="#407BFF"/>
<path opacity="0.5" d="M94.0748 153.334C95.5123 153.334 96.6776 152.169 96.6776 150.731C96.6776 149.294 95.5123 148.129 94.0748 148.129C92.6373 148.129 91.472 149.294 91.472 150.731C91.472 152.169 92.6373 153.334 94.0748 153.334Z" fill="#407BFF"/>
<path opacity="0.5" d="M104.473 155.931C104.473 156.439 104.323 156.936 104.04 157.359C103.758 157.782 103.356 158.111 102.886 158.306C102.417 158.5 101.9 158.551 101.401 158.452C100.902 158.353 100.444 158.108 100.085 157.749C99.7253 157.389 99.4805 156.931 99.3813 156.432C99.2821 155.934 99.333 155.417 99.5276 154.947C99.7222 154.477 100.052 154.076 100.474 153.793C100.897 153.511 101.394 153.36 101.903 153.36C102.584 153.36 103.238 153.631 103.72 154.113C104.202 154.595 104.473 155.249 104.473 155.931Z" fill="#407BFF"/>
<path d="M179.451 146.561C180.158 147.968 180.788 149.382 181.45 150.796C182.112 152.21 182.735 153.649 183.327 155.089C183.918 156.528 184.535 157.974 185.1 159.446C185.666 160.918 186.238 162.39 186.758 163.945L184.458 161.779C185.799 162.237 187.205 162.48 188.622 162.499C190.266 162.543 191.912 162.468 193.545 162.274C195.242 162.094 196.951 161.811 198.687 161.49C200.422 161.169 202.157 160.77 203.828 160.378L205.351 164.08C203.679 164.999 201.949 165.809 200.171 166.503C198.391 167.217 196.569 167.822 194.715 168.315C192.787 168.835 190.817 169.179 188.828 169.343C186.609 169.559 184.369 169.376 182.215 168.804L180.704 168.386L179.882 166.618C178.648 163.913 177.311 161.136 176.026 158.366C175.383 156.978 174.708 155.584 174.066 154.189C173.423 152.794 172.78 151.393 172.138 149.992L179.451 146.561Z" fill="#FFC3BD"/>
<path d="M201.733 161.509L204.259 159.041L208.269 163.379C208.269 163.379 206.816 165.918 203.205 164.44L201.733 161.509Z" fill="#FFC3BD"/>
<path d="M208.07 157.409L210.28 161.014L208.275 163.379L204.265 159.041L208.07 157.409Z" fill="#FFC3BD"/>
<path d="M168.102 140.783C173.243 138.797 177.228 141.76 183.725 149.96L176.116 157.782C176.116 157.782 158.076 144.626 168.102 140.783Z" fill="#263238"/>
<path opacity="0.2" d="M177.755 149.266C175.325 147.692 173.211 148.135 171.424 149.6C172.099 152.1 173.828 154.967 175.492 157.313C175.884 157.621 176.135 157.788 176.135 157.788L180.377 153.424C180.266 152.583 179.974 151.776 179.522 151.058C179.069 150.34 178.466 149.729 177.755 149.266Z" fill="black"/>
<path d="M207.26 195.301L213.417 194.588L212.902 181.966L206.752 182.673L207.26 195.301Z" fill="#FFC3BD"/>
<path d="M213.468 191.933L206.534 192.03C206.421 192.035 206.314 192.081 206.233 192.159C206.151 192.237 206.101 192.342 206.09 192.454L205.306 197.91C205.283 198.039 205.288 198.171 205.32 198.298C205.353 198.425 205.412 198.543 205.495 198.645C205.577 198.747 205.68 198.83 205.797 198.888C205.914 198.947 206.043 198.979 206.174 198.983C208.327 198.913 209.316 198.752 212.035 198.707C213.712 198.707 218.764 198.803 221.077 198.771C223.391 198.739 223.545 196.201 222.588 195.976C218.288 195.012 215.814 193.63 214.381 192.293C214.136 192.057 213.808 191.928 213.468 191.933Z" fill="#263238"/>
<path d="M214.94 190.327C215.037 190.29 215.141 190.277 215.244 190.289C215.347 190.302 215.446 190.339 215.531 190.397C215.599 190.431 215.657 190.481 215.701 190.543C215.745 190.604 215.773 190.676 215.782 190.751C215.859 191.394 214.496 192.55 214.31 192.679C214.291 192.692 214.269 192.7 214.246 192.7C214.223 192.7 214.2 192.692 214.181 192.679C214.16 192.667 214.142 192.65 214.13 192.628C214.119 192.606 214.114 192.581 214.117 192.557C214.162 191.863 214.323 190.629 214.869 190.352L214.94 190.327ZM214.381 192.293C214.921 191.824 215.589 191.117 215.544 190.764C215.544 190.725 215.544 190.667 215.435 190.616C215.371 190.57 215.296 190.542 215.218 190.535C215.14 190.528 215.062 190.543 214.991 190.577C214.696 190.738 214.471 191.374 214.381 192.293Z" fill="#407BFF"/>
<path d="M214.876 192.062C215.103 191.942 215.352 191.869 215.608 191.847C215.864 191.825 216.122 191.854 216.367 191.933C216.45 191.986 216.515 192.065 216.551 192.157C216.587 192.25 216.592 192.352 216.566 192.447C216.553 192.538 216.518 192.624 216.466 192.699C216.413 192.773 216.344 192.835 216.264 192.878C215.621 193.232 214.259 192.705 214.201 192.685C214.181 192.676 214.163 192.663 214.148 192.646C214.134 192.629 214.123 192.61 214.117 192.589C214.113 192.568 214.114 192.546 214.121 192.526C214.128 192.506 214.14 192.487 214.156 192.473C214.37 192.296 214.614 192.156 214.876 192.062ZM216.071 192.705L216.142 192.672C216.192 192.643 216.235 192.603 216.269 192.556C216.302 192.508 216.324 192.453 216.334 192.396C216.334 192.242 216.302 192.184 216.251 192.158C215.942 191.959 214.998 192.216 214.49 192.544C214.992 192.743 215.539 192.799 216.071 192.705Z" fill="#407BFF"/>
<path opacity="0.2" d="M206.752 182.679L212.902 181.966L213.166 188.476L206.983 188.502L206.752 182.679Z" fill="black"/>
<path d="M176.566 175.352C176.566 175.352 192.543 160.494 202.915 160.269C210.486 160.108 215.897 185.147 215.897 185.147L206.9 185.32C206.9 185.32 205.319 176.464 199.439 174.022C190.942 186.773 156.309 211.972 159.593 184.652C164.734 182.717 176.566 175.352 176.566 175.352Z" fill="#407BFF"/>
<path opacity="0.2" d="M176.566 175.352C176.566 175.352 192.543 160.494 202.915 160.269C210.486 160.108 215.897 185.147 215.897 185.147L206.9 185.32C206.9 185.32 205.319 176.464 199.439 174.022C190.942 186.773 156.309 211.972 159.593 184.652C164.734 182.717 176.566 175.352 176.566 175.352Z" fill="black"/>
<path d="M215.865 186.387L205.287 187.403L205.319 183.547L216.508 182.216L215.865 186.387Z" fill="#263238"/>
<path d="M155.589 185.597C155.589 185.597 148.719 172.177 147.877 150.564C147.684 145.474 152.266 140.674 157.517 140.404C161.925 140.172 166.591 140.114 170.37 140.127C174.149 140.14 177.041 142.647 177.472 146.284C178.423 154.305 178.59 166.483 183.507 180.989L155.589 185.597Z" fill="#263238"/>
<path opacity="0.2" d="M151.096 150.674C154.882 146.4 156.186 147.762 156.752 148.276C161.996 153.026 154.297 167.814 152.754 169.992C151.671 164.469 151.026 158.869 150.826 153.244C150.787 152.379 150.878 151.512 151.096 150.674Z" fill="black"/>
<path d="M162.632 127.557C162.208 131.496 161.167 137.544 158.487 140.352C160.595 142.338 164.027 144.292 168.905 145.108C171.424 144.067 171.758 141.747 170.537 140.134C166.231 139.382 166.283 138.161 167.909 135.416L162.632 127.557Z" fill="#FFC3BD"/>
<path opacity="0.2" d="M164.785 130.763L167.909 135.41C167.495 136.049 167.172 136.744 166.951 137.473C165.422 136.83 163.738 134.491 164.072 132.769C164.189 132.063 164.43 131.384 164.785 130.763Z" fill="black"/>
<path d="M173.918 120.294C176.444 122.974 181.752 122.987 179.471 119.812C177.189 116.638 171.951 118.206 173.918 120.294Z" fill="#263238"/>
<path d="M163.68 120.005C162.273 125.147 161.193 128.026 162.793 131.573C163.279 132.73 164.074 133.731 165.091 134.466C166.108 135.202 167.308 135.643 168.559 135.742C169.81 135.841 171.064 135.593 172.184 135.027C173.303 134.461 174.246 133.597 174.907 132.531C177.478 128.469 179.368 120.789 175.248 116.888C174.395 116.017 173.325 115.388 172.148 115.067C170.971 114.746 169.73 114.744 168.552 115.061C167.374 115.378 166.302 116.004 165.446 116.873C164.589 117.742 163.98 118.823 163.68 120.005Z" fill="#FFC3BD"/>
<path d="M162.53 124.774C163.172 124.658 166.347 123.694 167.896 122.203C169.638 120.526 169.65 118.9 169.181 118.161C168.712 117.422 165.036 116.001 163.32 116.329C160.608 116.85 161.276 121.65 161.315 122.949C161.335 123.334 161.459 123.706 161.673 124.027C161.886 124.348 162.182 124.606 162.53 124.774Z" fill="#FFC3BD"/>
<path opacity="0.7" d="M162.53 124.774C163.172 124.658 166.347 123.694 167.896 122.203C169.638 120.526 169.65 118.9 169.181 118.161C168.712 117.422 165.036 116.001 163.32 116.329C160.608 116.85 161.276 121.65 161.315 122.949C161.335 123.334 161.459 123.706 161.673 124.027C161.886 124.348 162.182 124.606 162.53 124.774Z" fill="#263238"/>
<path d="M159.837 125.127C160.337 126.232 161.234 127.108 162.35 127.582C163.828 128.18 164.67 126.94 164.348 125.429C164.059 124.099 162.941 122.177 161.418 122.216C159.895 122.255 159.233 123.765 159.837 125.127Z" fill="#FFC3BD"/>
<path d="M164.67 117.865C171.225 119.266 175.884 122.955 178.982 120.738C181.174 119.17 179.734 116.31 177.221 114.24C175.075 112.473 172.08 111.927 171.18 110.481C171.075 110.962 171.116 111.463 171.297 111.921C171.477 112.378 171.79 112.772 172.195 113.052C172.195 113.052 166.276 112.139 164.638 110.597C164.246 111.516 165.762 113.289 165.762 113.289C165.762 113.289 164.091 114.877 159.336 113.084C159.618 114.62 160.942 117.068 164.67 117.865Z" fill="#263238"/>
<path d="M177.69 121.258H177.433V120.924C177.999 120.995 178.573 120.878 179.067 120.591C179.56 120.304 179.946 119.864 180.165 119.337C180.411 118.633 180.429 117.869 180.217 117.154C180.004 116.439 179.572 115.808 178.982 115.352C178.414 114.91 177.795 114.539 177.138 114.247C175.615 113.482 173.886 112.615 173.05 110.089L173.365 109.986C174.156 112.377 175.749 113.199 177.292 113.945C177.979 114.251 178.626 114.64 179.22 115.102C179.869 115.599 180.344 116.289 180.575 117.074C180.806 117.858 180.781 118.696 180.505 119.465C180.28 120.019 179.888 120.489 179.383 120.81C178.879 121.131 178.287 121.288 177.69 121.258Z" fill="#263238"/>
<path d="M171.109 124.999C170.968 125.404 171.071 125.821 171.328 125.924C171.585 126.027 171.913 125.783 172.054 125.378C172.195 124.973 172.093 124.555 171.836 124.452C171.578 124.35 171.244 124.581 171.109 124.999Z" fill="#263238"/>
<path d="M175.955 126.464C175.82 126.869 175.917 127.28 176.18 127.383C176.443 127.486 176.765 127.248 176.9 126.837C177.035 126.425 176.945 126.021 176.681 125.911C176.418 125.802 176.096 126.053 175.955 126.464Z" fill="#263238"/>
<path d="M174.175 125.969C174.225 127.409 174.467 128.835 174.895 130.211C173.956 130.596 172.857 129.812 172.857 129.812L174.175 125.969Z" fill="#ED847E"/>
<path d="M170.242 130.789C169.371 130.309 168.724 129.506 168.442 128.553C168.437 128.537 168.436 128.521 168.438 128.504C168.44 128.488 168.445 128.473 168.454 128.459C168.462 128.445 168.474 128.433 168.487 128.423C168.501 128.414 168.516 128.408 168.532 128.405C168.548 128.401 168.565 128.401 168.581 128.404C168.597 128.406 168.613 128.413 168.627 128.422C168.64 128.431 168.652 128.442 168.661 128.456C168.671 128.47 168.677 128.485 168.68 128.501C168.845 129.02 169.124 129.494 169.496 129.89C169.869 130.286 170.326 130.593 170.833 130.789C170.864 130.802 170.89 130.827 170.903 130.858C170.916 130.89 170.916 130.925 170.904 130.956C170.9 130.972 170.892 130.987 170.882 130.999C170.871 131.012 170.858 131.022 170.843 131.028C170.829 131.035 170.812 131.039 170.796 131.038C170.78 131.038 170.764 131.034 170.749 131.027C170.575 130.959 170.405 130.88 170.242 130.789Z" fill="#263238"/>
<path d="M169.792 122.338C169.752 122.317 169.719 122.286 169.695 122.248C169.659 122.193 169.646 122.125 169.659 122.06C169.672 121.995 169.711 121.938 169.766 121.901C170.092 121.68 170.468 121.544 170.859 121.505C171.251 121.466 171.646 121.525 172.009 121.676C172.04 121.69 172.068 121.71 172.091 121.735C172.114 121.759 172.132 121.788 172.144 121.82C172.156 121.851 172.162 121.885 172.16 121.919C172.159 121.953 172.152 121.986 172.138 122.017C172.125 122.046 172.107 122.073 172.084 122.095C172.06 122.118 172.033 122.135 172.003 122.147C171.973 122.158 171.941 122.163 171.909 122.162C171.877 122.161 171.845 122.153 171.816 122.139C171.526 122.027 171.214 121.986 170.905 122.021C170.596 122.056 170.3 122.164 170.042 122.338C170.004 122.36 169.961 122.372 169.917 122.372C169.873 122.372 169.83 122.36 169.792 122.338Z" fill="#263238"/>
<path d="M177.607 125.262C177.567 125.249 177.531 125.226 177.502 125.196C177.473 125.166 177.452 125.129 177.44 125.089C177.357 124.776 177.204 124.486 176.993 124.241C176.781 123.996 176.516 123.802 176.219 123.675C176.155 123.653 176.102 123.607 176.071 123.547C176.04 123.488 176.033 123.418 176.051 123.353C176.059 123.322 176.074 123.293 176.094 123.268C176.114 123.242 176.139 123.222 176.167 123.206C176.195 123.191 176.227 123.182 176.259 123.18C176.291 123.178 176.323 123.182 176.354 123.193C176.732 123.345 177.069 123.584 177.339 123.889C177.609 124.195 177.804 124.559 177.909 124.954C177.92 124.985 177.924 125.018 177.922 125.051C177.92 125.084 177.911 125.116 177.896 125.146C177.881 125.175 177.86 125.201 177.835 125.222C177.809 125.243 177.78 125.259 177.748 125.269C177.701 125.279 177.652 125.277 177.607 125.262Z" fill="#263238"/>
<path d="M228.616 198.302L232.279 192.975L222.414 184.382L218.751 189.71L228.616 198.302Z" fill="#FFC3BD"/>
<path d="M229.747 190.455L225.448 195.809C225.372 195.899 225.331 196.013 225.331 196.13C225.331 196.248 225.372 196.361 225.448 196.452L228.796 200.616C228.875 200.715 228.976 200.795 229.091 200.85C229.205 200.905 229.331 200.934 229.458 200.934C229.585 200.934 229.71 200.905 229.825 200.85C229.94 200.795 230.04 200.715 230.12 200.616C231.476 198.868 232.382 197.525 234.124 195.353C235.197 194.016 238.571 190.108 240.056 188.283C241.54 186.458 239.844 184.658 239.066 185.275C235.576 188.032 232.472 189.723 230.595 189.98C230.263 190.027 229.961 190.197 229.747 190.455Z" fill="#263238"/>
<path d="M229.464 188.257C229.495 188.158 229.549 188.067 229.62 187.992C229.691 187.916 229.778 187.857 229.876 187.82C229.943 187.785 230.018 187.767 230.094 187.767C230.17 187.767 230.245 187.785 230.313 187.82C230.897 188.161 230.955 189.947 230.955 190.153C230.954 190.177 230.947 190.2 230.933 190.219C230.919 190.239 230.9 190.254 230.878 190.262C230.858 190.275 230.835 190.282 230.811 190.282C230.787 190.282 230.764 190.275 230.743 190.262C230.216 189.813 229.342 188.977 229.458 188.334C229.456 188.309 229.459 188.283 229.464 188.257ZM230.705 189.883C230.653 189.163 230.493 188.212 230.184 188.032C230.154 188.018 230.121 188.01 230.088 188.01C230.054 188.01 230.021 188.018 229.991 188.032C229.918 188.058 229.852 188.102 229.8 188.161C229.748 188.219 229.712 188.29 229.696 188.367C229.651 188.701 230.011 189.26 230.705 189.883Z" fill="#407BFF"/>
<path d="M230.827 189.35C230.975 188.804 231.257 188.212 231.611 188.065C231.704 188.029 231.806 188.023 231.902 188.05C231.998 188.077 232.083 188.134 232.144 188.212C232.208 188.278 232.257 188.357 232.285 188.444C232.314 188.531 232.323 188.623 232.311 188.714C232.221 189.421 230.975 190.218 230.917 190.25C230.898 190.261 230.877 190.267 230.856 190.267C230.834 190.267 230.813 190.261 230.795 190.25C230.774 190.243 230.756 190.23 230.744 190.213C230.731 190.196 230.724 190.175 230.724 190.153C230.713 189.882 230.748 189.61 230.827 189.35ZM232.048 188.765C232.048 188.765 232.048 188.72 232.048 188.694C232.056 188.637 232.05 188.579 232.031 188.524C232.012 188.469 231.98 188.42 231.939 188.38C231.836 188.264 231.759 188.27 231.701 188.296C231.36 188.425 231 189.337 230.955 189.935C231.42 189.652 231.798 189.248 232.048 188.765Z" fill="#407BFF"/>
<path opacity="0.2" d="M218.751 189.71L222.414 184.382L227.504 188.81L223.301 193.675L218.751 189.71Z" fill="black"/>
<path d="M165.621 183.636C165.621 183.636 193.706 155.102 206.347 167.313C214.22 174.922 225.788 185.404 225.788 185.404L219.085 191.927C219.085 191.927 202.106 182.897 197.684 177.91C174.483 203.849 153.751 205.622 155.614 185.622C158.903 184.744 162.246 184.081 165.621 183.636Z" fill="#407BFF"/>
<path d="M227.787 185.462L220.422 194.716L217.298 192.621L224.824 182.794L227.787 185.462Z" fill="#263238"/>
<path d="M155.685 148.752L156.238 160.449C156.341 162.377 156.463 164.305 156.611 166.233C156.688 167.178 156.791 168.11 156.893 169.003C156.951 169.453 157.009 169.89 157.08 170.288C157.15 170.687 157.228 171.06 157.279 171.284C157.282 171.319 157.282 171.353 157.279 171.387C157.173 171.196 157.023 171.033 156.842 170.912C156.737 170.836 156.62 170.779 156.495 170.745C156.424 170.745 156.386 170.745 156.418 170.745C156.944 170.826 157.481 170.791 157.992 170.642C159.692 170.218 161.348 169.63 162.935 168.887C164.65 168.135 166.36 167.268 168.076 166.368C169.792 165.468 171.508 164.511 173.172 163.579L175.576 166.792C172.563 169.596 169.29 172.108 165.801 174.292C164.908 174.838 163.982 175.365 163.005 175.86C161.985 176.387 160.926 176.834 159.837 177.197C159.217 177.402 158.584 177.561 157.941 177.673C157.151 177.82 156.344 177.859 155.544 177.788C155.026 177.74 154.517 177.628 154.027 177.454C153.437 177.246 152.882 176.949 152.382 176.574C151.861 176.169 151.411 175.681 151.051 175.128C150.887 174.875 150.741 174.611 150.614 174.337L150.37 173.746C150.144 173.134 149.953 172.509 149.798 171.876C149.657 171.304 149.541 170.77 149.438 170.237C149.226 169.176 149.066 168.142 148.924 167.12C148.629 165.076 148.416 163.058 148.237 161.047C147.877 157.023 147.665 153.045 147.594 149.003L155.685 148.752Z" fill="#FFC3BD"/>
<path d="M153.712 141.213C150.685 141.554 146.154 144.427 146 157.782L158.982 156.76C158.982 156.76 165.1 139.909 153.712 141.213Z" fill="#263238"/>
<path d="M184.091 156.811L179.271 157.126C178.987 157.166 178.721 157.29 178.508 157.482C178.294 157.675 178.144 157.927 178.076 158.206L175.82 168.797C175.782 168.912 175.773 169.035 175.795 169.155C175.816 169.274 175.867 169.387 175.943 169.481C176.019 169.576 176.118 169.65 176.23 169.696C176.342 169.743 176.464 169.761 176.585 169.748L181.405 169.433C181.69 169.396 181.957 169.272 182.171 169.079C182.384 168.887 182.534 168.634 182.6 168.354L184.856 157.762C184.894 157.647 184.903 157.524 184.882 157.405C184.86 157.285 184.809 157.173 184.733 157.079C184.657 156.984 184.558 156.91 184.446 156.863C184.334 156.817 184.212 156.799 184.091 156.811Z" fill="#407BFF"/>
<path d="M173.564 163.328L177.555 161.94L176.572 168.193C176.572 168.193 172.125 169.17 171.758 166.779L172.401 164.652C172.482 164.358 172.629 164.085 172.831 163.856C173.032 163.627 173.283 163.446 173.564 163.328Z" fill="#FFC3BD"/>
<path d="M182.118 162.467L180.39 168.032L176.572 168.193L177.555 161.94L182.118 162.467Z" fill="#FFC3BD"/>
<path d="M48.0944 31.393C44.9582 24.1115 62.0598 16.4894 66.8927 27.8262C75.0996 31.393 64.6112 46.5602 66.9827 49.1309C69.3541 51.7016 71.1408 48.5846 71.1408 48.5846C71.1408 48.5846 73.5379 54.9728 67.4261 60.0885C61.9505 64.6836 45.4787 65.9304 45.4402 56.8751C45.3888 45.1013 52.2075 40.9368 48.0944 31.393Z" fill="#263238"/>
<path d="M63.8207 184.26L59.2191 186.94L48.1715 174.311L53.9042 169.138L63.8207 184.26Z" fill="#FFC3BD"/>
<path d="M58.6921 185.783L63.4415 182.139C63.5158 182.073 63.6119 182.036 63.7114 182.036C63.811 182.036 63.9071 182.073 63.9814 182.139L67.1305 185.25C67.2075 185.337 67.2651 185.439 67.2997 185.55C67.3342 185.661 67.3448 185.778 67.3309 185.893C67.3169 186.009 67.2786 186.12 67.2186 186.219C67.1586 186.319 67.0782 186.404 66.9827 186.471C65.3117 187.711 64.4441 188.232 62.3554 189.838C61.0701 190.822 58.4994 192.981 56.7384 194.337C54.9775 195.693 53.6407 194.131 54.2641 193.418C57.079 190.205 57.6896 188.277 58.1202 186.561C58.2175 186.244 58.4191 185.97 58.6921 185.783Z" fill="#263238"/>
<path d="M57.6253 187.685C57.2948 187.993 56.8729 188.185 56.4235 188.232C56.3164 188.227 56.212 188.196 56.12 188.141C56.0279 188.086 55.9511 188.009 55.8965 187.917C55.865 187.858 55.8485 187.793 55.8485 187.727C55.8485 187.661 55.865 187.596 55.8965 187.537C56.2178 186.895 58.5058 186.387 58.7628 186.329C58.7876 186.325 58.8129 186.329 58.8357 186.339C58.8586 186.349 58.8779 186.366 58.8914 186.387C58.9038 186.409 58.9103 186.433 58.9103 186.458C58.9103 186.483 58.9038 186.507 58.8914 186.528C58.5055 186.952 58.0817 187.339 57.6253 187.685ZM56.2628 187.448C56.1956 187.494 56.1405 187.555 56.1022 187.627C56.0878 187.649 56.0801 187.675 56.0801 187.701C56.0801 187.728 56.0878 187.753 56.1022 187.775C56.1356 187.837 56.1846 187.889 56.2443 187.926C56.3041 187.964 56.3725 187.985 56.4428 187.987C56.8605 187.987 57.5867 187.512 58.4094 186.651C57.655 186.797 56.9298 187.066 56.2628 187.448Z" fill="#407BFF"/>
<path d="M58.8335 186.541H58.7821C58.1394 186.715 56.4878 186.625 56.2114 186.117C56.1536 186.001 56.1343 185.802 56.3914 185.564C56.5746 185.394 56.8159 185.3 57.0662 185.301C57.9081 185.301 58.8078 186.297 58.84 186.342C58.8508 186.359 58.8565 186.379 58.8565 186.4C58.8565 186.42 58.8508 186.44 58.84 186.458C58.8463 186.485 58.8441 186.515 58.8335 186.541ZM56.6227 185.712L56.5649 185.764C56.3978 185.918 56.4364 185.995 56.4492 186.021C56.6035 186.329 57.7796 186.477 58.5122 186.374C58.1287 185.955 57.6186 185.673 57.0598 185.571C56.9023 185.567 56.7484 185.617 56.6227 185.712Z" fill="#407BFF"/>
<path d="M47.0918 57.7942C46.7898 59.176 46.4491 60.4228 46.0635 61.7145C45.6779 63.0063 45.2795 64.2852 44.8167 65.5192C43.9276 68.0547 42.8845 70.5336 41.6933 72.9421L40.7486 74.7416C40.408 75.3328 40.1059 75.9241 39.7203 76.5089L39.1676 77.3765C38.9748 77.6722 38.827 77.9357 38.5635 78.2827C38.435 78.4498 38.3064 78.6169 38.1329 78.8161C37.9146 79.0734 37.669 79.3062 37.4003 79.5102C37.0754 79.7589 36.7004 79.9343 36.3013 80.0244C36.1156 80.0661 35.926 80.0877 35.7357 80.0886C35.503 80.0911 35.2712 80.0586 35.0481 79.9922C34.6311 79.8795 34.2518 79.6577 33.9491 79.3496C33.6457 79.0457 33.4246 78.6698 33.3064 78.257C33.2468 78.0665 33.2059 77.8706 33.1843 77.6722C33.134 77.2087 33.134 76.7411 33.1843 76.2776C33.2293 75.892 33.2936 75.5321 33.3578 75.185C33.4864 74.4845 33.6535 73.829 33.827 73.1734C34.1878 71.8834 34.6169 70.6134 35.1123 69.3688L37.683 69.9344L37.5095 73.7904C37.5095 74.4331 37.471 75.0372 37.4645 75.6285C37.4645 75.9241 37.4645 76.2133 37.4645 76.4704C37.4633 76.6553 37.4893 76.8393 37.5417 77.0167C37.5417 77.0167 37.5417 77.0166 37.5417 76.901C37.4623 76.6579 37.3256 76.4374 37.1432 76.2583C36.8941 76.0047 36.5844 75.8189 36.2435 75.7184C36.0588 75.6687 35.869 75.6406 35.6779 75.6349C35.5266 75.6375 35.376 75.6547 35.228 75.6863C34.9979 75.7424 34.78 75.8404 34.5854 75.9755C34.4504 76.0719 34.5018 76.0205 34.5275 75.9755L34.6753 75.7249L35.5365 74.1824C35.8257 73.6426 36.0892 73.0899 36.372 72.5436L37.1625 70.8727C38.1651 68.604 39.0905 66.2711 39.8617 63.8932C40.2602 62.7043 40.6265 61.5025 40.9928 60.3006C41.3592 59.0988 41.6869 57.8585 41.9761 56.7209L47.0918 57.7942Z" fill="#FFC3BD"/>
<path d="M44.8939 51.1038C43.0301 51.4059 40.0738 63.2504 40.0738 63.2504L44.3733 66.5602C44.3733 66.5602 48.6856 57.9997 48.872 54.1501C49.0006 51.3609 46.3013 50.8789 44.8939 51.1038Z" fill="#FFC3BD"/>
<path d="M38.1523 70.506L37.4261 64.6191L34.052 69.5677C34.1956 70.1642 34.5097 70.706 34.9559 71.1271C35.4021 71.5481 35.9611 71.8303 36.5649 71.9392L38.1523 70.506Z" fill="#FFC3BD"/>
<path d="M61.732 194.253L56.5906 194.427L55.6073 176.483L62.741 176.586L61.732 194.253Z" fill="#FFC3BD"/>
<path d="M56.2435 192.788L62.0276 192.75C62.1243 192.746 62.2187 192.78 62.2907 192.845C62.3626 192.91 62.4066 193 62.4132 193.097L62.7602 197.653C62.7637 197.892 62.6724 198.123 62.5062 198.295C62.3401 198.468 62.1126 198.567 61.8733 198.572C59.8682 198.572 58.9042 198.437 56.372 198.456C54.8103 198.456 52.516 198.643 50.3694 198.662C48.2229 198.681 48.2422 196.548 49.1548 196.348C53.2358 195.455 53.9492 194.26 55.3823 193.135C55.6242 192.929 55.9264 192.807 56.2435 192.788Z" fill="#263238"/>
<path d="M44.579 51.0652C44.579 51.0652 42.0083 51.7079 42.0083 82.1257L62.6318 83.9509C63.6665 75.4741 64.5019 70.262 71.3336 53.2825C68.5308 52.4243 65.6669 51.7798 62.7667 51.3544C59.6719 50.8512 56.5445 50.5741 53.4094 50.5254C49.2962 50.5318 44.579 51.0652 44.579 51.0652Z" fill="#407BFF"/>
<path opacity="0.2" d="M67.2397 57.1641L68.3387 60.9109C67.4775 63.2309 66.7642 65.2811 66.1665 67.1255C65.711 63.7671 66.0793 60.3484 67.2397 57.1641Z" fill="black"/>
<path d="M37.426 64.6191L34.052 69.5677L38.1523 69.33L40.3374 64.8055L37.426 64.6191Z" fill="#FFC3BD"/>
<path d="M39.5661 76.0011L43.4222 75.9433C43.5492 75.9408 43.6742 75.9115 43.7891 75.8572C43.9039 75.803 44.006 75.725 44.0886 75.6285C44.1711 75.532 44.2323 75.4191 44.2681 75.2972C44.3039 75.1753 44.3135 75.0472 44.2962 74.9214L43.0944 66.2774C43.0659 66.0605 42.9583 65.8618 42.7922 65.7195C42.6262 65.5771 42.4133 65.5012 42.1947 65.5062L38.3386 65.5641C38.2116 65.5646 38.0861 65.5923 37.9708 65.6455C37.8554 65.6987 37.7528 65.7761 37.6699 65.8724C37.587 65.9686 37.5258 66.0816 37.4904 66.2036C37.455 66.3256 37.4462 66.4538 37.4646 66.5795L38.6664 75.2234C38.6947 75.4409 38.8021 75.6403 38.968 75.7837C39.134 75.9271 39.3468 76.0045 39.5661 76.0011Z" fill="#263238"/>
<path d="M63.5379 40.6539C62.4518 43.6359 60.9672 49.1372 62.7346 51.348C59.6603 53.9182 56.2152 56.0091 52.516 57.5498C50.3631 52.5241 53.3772 50.519 53.3772 50.519C56.867 50.0113 57.1883 47.492 56.9826 45.082L63.5379 40.6539Z" fill="#FFC3BD"/>
<path d="M49.4119 37.2346C48.872 46.1614 43.5057 48.7192 44.7654 53.3015C46.5456 59.7283 53.8078 54.6961 53.8078 54.6961C53.8078 54.6961 49.8553 55.9815 49.6047 52.8581C49.399 50.2874 58.525 50.6858 55.9929 44.6382C54.3669 40.7436 49.4119 37.2346 49.4119 37.2346Z" fill="#263238"/>
<path opacity="0.2" d="M61.6677 42.9095L56.989 45.0818C57.0404 45.6462 57.0404 46.2141 56.989 46.7785C57.9659 46.8684 60.498 46.1358 61.4556 44.5548C61.7209 44.0494 61.7962 43.4657 61.6677 42.9095Z" fill="black"/>
<path d="M64.3477 32.2606C64.8168 37.3248 65.1253 39.4649 62.9852 42.4341C59.7718 46.9007 53.4415 46.3737 51.4685 41.5408C49.6883 37.1963 49.2191 29.6384 53.8271 26.8814C54.8395 26.2668 55.9923 25.9215 57.1758 25.8783C58.3594 25.8351 59.5343 26.0954 60.5887 26.6346C61.6432 27.1738 62.5422 27.9738 63.2002 28.9585C63.8581 29.9433 64.2531 31.08 64.3477 32.2606Z" fill="#FFC3BD"/>
<path d="M63.2294 27.1769C59.2319 24.4327 55.9093 29.7027 63.0045 34.8248C70.0996 39.9469 67.7731 30.2939 63.2294 27.1769Z" fill="#263238"/>
<path d="M61.1022 25.7052C62.7538 27.1898 52.9209 32.6653 47.5739 30.8466C42.2268 29.0278 46.5199 24.9468 48.4672 24.4198C46.7962 26.0329 49.7204 28.4815 51.1343 26.952C52.5482 25.4224 57.786 22.7296 61.1022 25.7052Z" fill="#263238"/>
<path d="M41.9826 82.1259C41.9826 82.1259 31.1021 128.199 32.0597 139.832C33.1715 153.431 48.043 175.352 48.043 175.352L54.8747 169.151C54.8747 169.151 48.0944 151.194 43.0752 139.497C44.6818 127.801 58.885 94.7544 58.885 83.6233L41.9826 82.1259Z" fill="#407BFF"/>
<path opacity="0.6" d="M41.9826 82.1259C41.9826 82.1259 31.1021 128.199 32.0597 139.832C33.1715 153.431 48.043 175.352 48.043 175.352L54.8747 169.151C54.8747 169.151 48.0944 151.194 43.0752 139.497C44.6818 127.801 58.885 94.7544 58.885 83.6233L41.9826 82.1259Z" fill="black"/>
<path d="M56.1343 170.076L48.0623 176.091L45.9929 174.517L54.8489 167.531L56.1343 170.076Z" fill="#407BFF"/>
<path opacity="0.2" d="M50.0353 102.389C44.0391 110.693 43.7499 125.963 44.1227 134.523C46.1793 126.644 50.4916 114.876 53.9299 104.272C53.8464 100.211 52.8374 98.5011 50.0353 102.389Z" fill="black"/>
<path d="M45.8515 82.1642C45.8515 82.1642 49.8361 121.952 51.1664 135.384C52.7474 151.329 55.0675 176.901 55.0675 176.901L62.741 176.58C62.741 176.58 64.4248 154.902 63.178 140.59C63.403 121.631 66.1986 95.8532 62.5996 83.9251L45.8515 82.1642Z" fill="#407BFF"/>
<path opacity="0.6" d="M45.8515 82.1642C45.8515 82.1642 49.8361 121.952 51.1664 135.384C52.7474 151.329 55.0675 176.901 55.0675 176.901L62.741 176.58C62.741 176.58 64.4248 154.902 63.178 140.59C63.403 121.631 66.1986 95.8532 62.5996 83.9251L45.8515 82.1642Z" fill="black"/>
<path d="M63.3258 177.987L54.5211 177.736L53.9042 174.967L63.8656 174.69L63.3258 177.987Z" fill="#407BFF"/>
<path d="M56.4685 35.0562C56.5327 35.461 56.3656 35.8274 56.0957 35.8724C55.8258 35.9173 55.5623 35.6153 55.498 35.2297C55.4337 34.8441 55.6008 34.4585 55.8708 34.4135C56.1407 34.3685 56.4042 34.6448 56.4685 35.0562Z" fill="#263238"/>
<path d="M51.8477 35.7697C51.9119 36.181 51.7448 36.5473 51.4749 36.5859C51.205 36.6244 50.9415 36.3288 50.8772 35.9432C50.813 35.5576 50.98 35.1656 51.25 35.127C51.5199 35.0884 51.7834 35.3648 51.8477 35.7697Z" fill="#263238"/>
<path d="M51.3657 35.1077L50.3438 34.9791C50.3438 34.9791 50.9672 35.6668 51.3657 35.1077Z" fill="#263238"/>
<path d="M53.3643 36.1746C53.1428 37.1626 52.7882 38.116 52.3104 39.0088C52.5417 39.1246 52.7955 39.1887 53.0541 39.1964C53.3127 39.2042 53.5699 39.1555 53.8078 39.0537L53.3643 36.1746Z" fill="#ED847E"/>
<path d="M56.4685 40.1784C56.2599 40.2524 56.0447 40.3062 55.8258 40.339C55.7943 40.3447 55.7618 40.3378 55.7354 40.3198C55.709 40.3017 55.6907 40.274 55.6844 40.2426C55.6817 40.2266 55.6822 40.2101 55.6859 40.1943C55.6896 40.1784 55.6965 40.1635 55.706 40.1503C55.7156 40.1371 55.7277 40.126 55.7417 40.1176C55.7556 40.1091 55.7711 40.1036 55.7872 40.1013C56.2981 40.0351 56.7859 39.8485 57.2105 39.5568C57.635 39.2652 57.9843 38.8769 58.2294 38.4239C58.2445 38.3962 58.2691 38.3751 58.2988 38.3644C58.3284 38.3537 58.3609 38.3543 58.3901 38.366C58.4049 38.3723 58.4183 38.3815 58.4295 38.393C58.4408 38.4045 58.4496 38.4181 58.4556 38.433C58.4616 38.4479 58.4645 38.4639 58.4643 38.48C58.4641 38.4961 58.4607 38.5119 58.4544 38.5267C58.0333 39.3153 57.3206 39.908 56.4685 40.1784Z" fill="#263238"/>
<path d="M65.7551 35.718C65.7206 36.21 65.5893 36.6903 65.3687 37.1315C65.1482 37.5726 64.8427 37.9659 64.4698 38.2887C63.4801 39.137 62.4325 38.3915 62.2461 37.164C62.0726 36.065 62.3875 34.2977 63.6022 33.9506C63.8658 33.8696 64.1454 33.8552 64.4161 33.9085C64.6867 33.9619 64.9399 34.0814 65.1531 34.2564C65.3663 34.4314 65.5328 34.6565 65.6379 34.9115C65.7429 35.1665 65.7832 35.4436 65.7551 35.718Z" fill="#FFC3BD"/>
<path d="M58.57 32.524C58.538 32.5303 58.5049 32.5302 58.4729 32.5236C58.4409 32.517 58.4106 32.504 58.3837 32.4854C58.1381 32.303 57.8527 32.1817 57.5509 32.1314C57.2492 32.0811 56.9399 32.1033 56.6484 32.1962C56.619 32.2086 56.5873 32.215 56.5553 32.2149C56.5233 32.2148 56.4917 32.2083 56.4623 32.1957C56.4329 32.1831 56.4063 32.1647 56.3842 32.1416C56.3621 32.1185 56.3448 32.0912 56.3335 32.0612C56.3102 32.0015 56.3113 31.9351 56.3365 31.8761C56.3618 31.8172 56.4092 31.7706 56.4685 31.7463C56.8341 31.6219 57.2245 31.5878 57.6061 31.6471C57.9878 31.7065 58.3494 31.8574 58.66 32.0869C58.7121 32.1233 58.7479 32.1786 58.7599 32.241C58.7719 32.3034 58.7591 32.368 58.7243 32.4211C58.6862 32.4722 58.6317 32.5085 58.57 32.524Z" fill="#263238"/>
<path d="M49.8425 33.9959C49.8143 34.0087 49.7836 34.0153 49.7526 34.0153C49.7215 34.0153 49.6909 34.0087 49.6626 33.9959C49.6335 33.9828 49.6074 33.964 49.5858 33.9406C49.5642 33.9172 49.5475 33.8897 49.5367 33.8597C49.5259 33.8297 49.5213 33.7979 49.523 33.7661C49.5248 33.7343 49.5329 33.7032 49.5469 33.6745C49.6991 33.3202 49.9346 33.0078 50.2333 32.7639C50.532 32.52 50.8852 32.3518 51.2628 32.2735C51.3244 32.269 51.3854 32.2879 51.4335 32.3265C51.4817 32.3651 51.5134 32.4205 51.5224 32.4816C51.5313 32.5427 51.5168 32.6049 51.4818 32.6557C51.4468 32.7065 51.3938 32.7422 51.3335 32.7555C51.0356 32.8227 50.7578 32.9597 50.5232 33.1552C50.2885 33.3507 50.1037 33.5992 49.9839 33.8802C49.9694 33.9081 49.9494 33.9327 49.9251 33.9526C49.9008 33.9725 49.8727 33.9872 49.8425 33.9959Z" fill="#263238"/>
<path d="M72.6896 59.4524C72.786 60.3843 72.8375 61.2005 72.8632 62.0681C72.8889 62.9357 72.9082 63.7712 72.9017 64.6388C72.876 66.3526 72.7668 68.0664 72.574 69.7802C72.3769 71.515 72.0548 73.2333 71.61 74.9216C71.3805 75.7937 71.1016 76.652 70.7745 77.4923C70.6138 77.9165 70.4339 78.3406 70.2475 78.7776C70.2475 78.7776 70.1511 78.9833 70.0868 79.099C70.019 79.2322 69.9394 79.3591 69.849 79.4782C69.6902 79.713 69.5048 79.9287 69.2963 80.1208C68.9581 80.4104 68.5792 80.6486 68.1716 80.8278C67.5895 81.0714 66.9744 81.2274 66.3464 81.2905C65.845 81.3459 65.3405 81.3673 64.8362 81.3548C63.9282 81.3303 63.0225 81.2509 62.1241 81.117C60.4406 80.8509 58.7735 80.4904 57.1305 80.0373C55.5174 79.5938 53.9171 79.1054 52.3554 78.5848C50.7937 78.0643 49.2384 77.4859 47.6896 76.8368L48.4929 74.3689C50.0546 74.7095 51.642 75.0694 53.223 75.3715C54.804 75.6735 56.3786 76.0141 57.9467 76.2455C59.5148 76.4769 61.0829 76.7147 62.5996 76.8111C63.3244 76.8683 64.052 76.8812 64.7783 76.8496C65.0887 76.8348 65.3978 76.8005 65.7038 76.7468C65.8889 76.7179 66.0687 76.6615 66.2372 76.5797C66.2372 76.5797 66.2372 76.5797 66.1408 76.6311C66.0816 76.6766 66.0296 76.7308 65.9865 76.7918L65.9094 76.9075C65.9094 76.9075 65.8516 77.036 65.9094 76.9524C66.0315 76.6183 66.1536 76.3098 66.2565 75.937C66.475 75.2429 66.6549 74.5296 66.8156 73.8033C67.1165 72.3174 67.3311 70.8153 67.4583 69.3046C67.5997 67.775 67.6446 66.2198 67.6446 64.6645C67.6446 63.8869 67.6446 63.1092 67.6446 62.3316C67.6446 61.5539 67.574 60.7506 67.529 60.0565L72.6896 59.4524Z" fill="#FFC3BD"/>
<path d="M71.2822 53.2824C73.4994 54.7284 72.7475 67.3313 72.7475 67.3313L67.529 68.3788C67.529 68.3788 67.484 61.9521 66.9248 57.7811C66.5457 54.9469 69.7012 52.2477 71.2822 53.2824Z" fill="#FFC3BD"/>
<path d="M53.4158 193.386C53.3531 193.302 53.3106 193.205 53.2917 193.103C53.2727 193 53.2778 192.895 53.3066 192.794C53.3185 192.72 53.3489 192.65 53.3949 192.591C53.4409 192.531 53.5011 192.484 53.57 192.454C54.2127 192.177 55.678 193.174 55.8451 193.283C55.864 193.296 55.8784 193.315 55.8864 193.337C55.8944 193.359 55.8957 193.382 55.8901 193.405C55.8844 193.429 55.8726 193.451 55.8556 193.469C55.8387 193.487 55.8174 193.501 55.7937 193.508C55.1189 193.668 53.9171 193.874 53.4672 193.437L53.4158 193.386ZM55.4595 193.334C54.8168 192.955 53.9814 192.524 53.6536 192.692C53.6237 192.706 53.5979 192.727 53.5788 192.754C53.5596 192.781 53.5478 192.813 53.5443 192.846C53.5208 192.92 53.5173 192.998 53.5342 193.074C53.5512 193.15 53.5879 193.22 53.6407 193.276C53.885 193.495 54.5533 193.521 55.4595 193.347V193.334Z" fill="#407BFF"/>
<path d="M55.0996 192.93C54.9177 192.747 54.7735 192.531 54.6754 192.292C54.5773 192.054 54.527 191.799 54.5276 191.541C54.5557 191.446 54.613 191.362 54.6914 191.301C54.7698 191.24 54.8653 191.205 54.9646 191.201C55.0544 191.187 55.1462 191.193 55.2331 191.22C55.3199 191.247 55.3996 191.293 55.4659 191.355C55.9865 191.843 55.8965 193.322 55.8901 193.386C55.8891 193.408 55.8828 193.43 55.8716 193.449C55.8603 193.468 55.8446 193.484 55.8258 193.495C55.8069 193.505 55.786 193.51 55.7647 193.51C55.7435 193.51 55.7226 193.505 55.7037 193.495C55.4739 193.34 55.27 193.149 55.0996 192.93ZM55.3438 191.593C55.3283 191.574 55.3111 191.557 55.2924 191.541C55.2511 191.502 55.2013 191.472 55.1467 191.454C55.0922 191.436 55.0343 191.431 54.9775 191.439C54.8168 191.439 54.7847 191.529 54.7654 191.586C54.669 191.94 55.196 192.769 55.6587 193.155C55.7013 192.615 55.5922 192.074 55.3438 191.593Z" fill="#407BFF"/>
<path d="M63.1073 82.7557L63.3322 84.6838C63.3837 84.8316 63.1909 84.9665 62.9531 84.9408L41.7448 83.0642C41.5584 83.0642 41.417 82.9421 41.4234 82.8264L41.5455 80.9498C41.5455 80.8213 41.7319 80.7249 41.9311 80.7442L62.8117 82.5951C62.8706 82.594 62.9289 82.6082 62.9807 82.6364C63.0325 82.6645 63.0762 82.7057 63.1073 82.7557Z" fill="white"/>
<path d="M59.9197 84.8634L60.4788 84.9084C60.5945 84.9084 60.6845 84.8699 60.6909 84.7992L60.8194 82.3634C60.8194 82.2927 60.7359 82.222 60.6266 82.2156L60.0611 82.1642C59.9518 82.1642 59.8554 82.2027 59.849 82.2734L59.7205 84.7156C59.7205 84.7863 59.8104 84.8506 59.9197 84.8634Z" fill="#407BFF"/>
<path opacity="0.6" d="M59.9197 84.8634L60.4788 84.9084C60.5945 84.9084 60.6845 84.8699 60.6909 84.7992L60.8194 82.3634C60.8194 82.2927 60.7359 82.222 60.6266 82.2156L60.0611 82.1642C59.9518 82.1642 59.8554 82.2027 59.849 82.2734L59.7205 84.7156C59.7205 84.7863 59.8104 84.8506 59.9197 84.8634Z" fill="black"/>
<path d="M43.2679 83.3854L43.827 83.4368C43.9427 83.4368 44.0327 83.3983 44.0391 83.3276L44.1677 80.8854C44.1677 80.8147 44.0841 80.7505 43.9749 80.7376L43.4157 80.6926C43.3 80.6926 43.2101 80.7312 43.2036 80.8019L43.0751 83.2376C43.0687 83.3083 43.1586 83.379 43.2679 83.3854Z" fill="#407BFF"/>
<path opacity="0.6" d="M43.2679 83.3854L43.827 83.4368C43.9427 83.4368 44.0327 83.3983 44.0391 83.3276L44.1677 80.8854C44.1677 80.8147 44.0841 80.7505 43.9749 80.7376L43.4157 80.6926C43.3 80.6926 43.2101 80.7312 43.2036 80.8019L43.0751 83.2376C43.0687 83.3083 43.1586 83.379 43.2679 83.3854Z" fill="black"/>
<path d="M51.597 84.1244L52.1561 84.1758C52.2654 84.1758 52.3618 84.1309 52.3618 84.0602L52.4967 81.6244C52.4967 81.5537 52.4132 81.4894 52.2975 81.4766L51.7384 81.4252C51.6291 81.4252 51.5327 81.4702 51.5327 81.5408L51.3978 83.9766C51.3978 84.0473 51.4877 84.0923 51.597 84.1244Z" fill="#407BFF"/>
<path opacity="0.6" d="M51.597 84.1244L52.1561 84.1758C52.2654 84.1758 52.3618 84.1309 52.3618 84.0602L52.4967 81.6244C52.4967 81.5537 52.4132 81.4894 52.2975 81.4766L51.7384 81.4252C51.6291 81.4252 51.5327 81.4702 51.5327 81.5408L51.3978 83.9766C51.3978 84.0473 51.4877 84.0923 51.597 84.1244Z" fill="black"/>
<path d="M49.2962 74.523L46.0828 70.2363L44.746 75.3777C44.746 75.3777 47.1368 77.4664 49.1676 76.6631L49.2962 74.523Z" fill="#FFC3BD"/>
<path d="M41.9697 69.2914L41.0764 73.6295L45.4145 75.8467L46.1021 70.2361L41.9697 69.2914Z" fill="#FFC3BD"/>
<path d="M55.9929 34.3942L54.9647 34.2656C54.9647 34.2656 55.5623 34.9533 55.9929 34.3942Z" fill="#263238"/>
</svg>
