<svg width="32" height="32" viewBox="0 0 32 32" fill="none" xmlns="http://www.w3.org/2000/svg">
<path d="M21.2851 8.04799C23.1264 6.20666 26.1104 6.20666 27.9518 8.04799V8.04799C29.7931 9.88933 29.7931 12.8733 27.9518 14.7147L20.1131 22.5533C18.2718 24.3947 15.2878 24.3947 13.4464 22.5533V22.5533C11.6051 20.712 11.6051 17.728 13.4464 15.8867L14.6184 14.7147" stroke="#4D5971" stroke-width="1.5" stroke-linecap="round" stroke-linejoin="round"/>
<path d="M10.7147 25.2854C8.87333 27.1267 5.88933 27.1267 4.04799 25.2854V25.2854C2.20666 23.444 2.20666 20.46 4.04799 18.6187L11.8867 10.78C13.728 8.93871 16.712 8.93871 18.5533 10.78V10.78C20.3947 12.6214 20.3947 15.6054 18.5533 17.4467L17.3333 18.6667" stroke="#4D5971" stroke-width="1.5" stroke-linecap="round" stroke-linejoin="round"/>
</svg>
