      <svg width="70" height="34" viewBox="0 0 70 34" fill="none" xmlns="http://www.w3.org/2000/svg">
        <path fillRule="evenodd" clipRule="evenodd" d="M50.0647 28.3997H50.6099C50.5008 27.814 50.2828 27.3748 49.883 27.0636C49.4832 26.7525 49.0107 26.6061 48.4292 26.6061C47.6296 26.6061 47.0299 26.8257 46.5756 27.2832C46.085 27.7774 45.8306 28.5461 45.8306 29.571C45.8306 30.4495 46.0123 31.1266 46.3939 31.6574C46.83 32.243 47.4297 32.5359 48.2475 32.5359C49.5377 32.5359 50.3555 31.8587 50.6644 30.5227H50.1192C50.0102 30.9985 49.8103 31.3646 49.5195 31.6391C49.2106 31.9319 48.829 32.0783 48.3565 32.0783C47.6478 32.0783 47.1208 31.8221 46.7937 31.2913C46.5029 30.8521 46.3757 30.2664 46.3757 29.5527C46.3757 28.8389 46.5393 28.2532 46.83 27.814C47.1753 27.3015 47.666 27.0636 48.302 27.0636C49.2651 27.0636 49.8648 27.5212 50.0647 28.3997ZM2.4896 29.4795L0.854096 26.7708V26.7525H0.25441L2.25336 29.9736V32.3895H2.78036V29.937L4.79749 26.7708H4.17963L2.4896 29.4795ZM5.72428 31.9502C6.08772 32.3163 6.52386 32.4993 7.05085 32.4993C7.59602 32.5176 8.05033 32.3162 8.39561 31.9136C8.74088 31.5293 8.90443 30.9985 8.90443 30.358C8.90443 29.7357 8.75905 29.2232 8.45012 28.8389C8.12302 28.4363 7.65054 28.2166 7.05085 28.2166C6.45117 28.2166 5.99686 28.4363 5.65159 28.8572C5.34266 29.2415 5.17911 29.7357 5.17911 30.358C5.17911 31.0351 5.36083 31.5659 5.72428 31.9502ZM8.08668 29.15C8.30474 29.4429 8.41378 29.8455 8.41378 30.358C8.41378 30.8338 8.30475 31.2364 8.06851 31.5476C7.83226 31.9136 7.48699 32.0783 7.03268 32.0783C6.59655 32.0783 6.26945 31.9319 6.03321 31.6208C5.79696 31.3097 5.66976 30.8887 5.66976 30.3763C5.66976 29.8821 5.79696 29.4978 5.99686 29.1866C6.25127 28.8389 6.59655 28.6559 7.05085 28.6559C7.50516 28.6559 7.85044 28.8206 8.08668 29.15ZM12.4844 30.541V28.3265H12.9569V32.3895H12.4844V31.8221C12.3027 32.0417 12.1573 32.1881 12.0119 32.2613C11.7757 32.4261 11.5031 32.4993 11.1941 32.4993C10.231 32.4993 9.75853 32.0051 9.75853 30.9985V28.3265H10.231V30.9802C10.231 31.694 10.5763 32.0417 11.2668 32.0417C11.6484 32.0417 11.9392 31.8953 12.1573 31.6208C12.3753 31.3646 12.4844 30.9985 12.4844 30.541ZM14.5742 32.3895V30.3946C14.5742 29.2781 15.0103 28.7291 15.9008 28.7474V28.2349C15.5555 28.2349 15.2829 28.3081 15.083 28.4363C14.8831 28.5644 14.7196 28.8023 14.5924 29.1134H14.5742V28.3448H14.1017V32.3895H14.5742ZM19.408 32.3895H18.8992V26.7708H19.4262V29.1866H22.7154V26.7708H23.2424V32.3895H22.7154V29.6259H19.408V32.3895ZM27.1494 28.3265V30.541C27.1494 30.9985 27.0404 31.3646 26.8223 31.6208C26.5861 31.8953 26.2953 32.0417 25.9137 32.0417C25.2232 32.0417 24.8779 31.694 24.8779 30.9802V28.3265H24.4236V30.9985C24.4236 32.0051 24.8779 32.4993 25.841 32.4993C26.1499 32.4993 26.4407 32.4261 26.6769 32.2613C26.8041 32.1881 26.9677 32.0417 27.1494 31.8221V32.3895H27.6219V28.3265H27.1494ZM29.1484 30.2115V32.3895H28.6941V28.3448H29.1484V28.967H29.1665C29.421 28.4912 29.8389 28.2532 30.4204 28.2532C30.7657 28.2532 31.0383 28.3265 31.22 28.4912C31.3654 28.6193 31.4926 28.8023 31.5835 29.0402C31.8379 28.5278 32.274 28.2532 32.8919 28.2532C33.3825 28.2532 33.7278 28.418 33.9277 28.7474C34.0731 29.0036 34.1458 29.3697 34.1458 29.8638V32.4261H33.6733V29.6259C33.6733 29.0036 33.3825 28.6925 32.801 28.6925C32.4194 28.6925 32.1286 28.8572 31.8924 29.15C31.7107 29.388 31.6198 29.754 31.6198 30.2481V32.3895H31.1473V29.5893C31.1473 28.967 30.8566 28.6559 30.2932 28.6559C29.9298 28.6559 29.6209 28.8206 29.3846 29.1134C29.2392 29.3514 29.1484 29.7174 29.1484 30.2115ZM37.0715 30.0285L36.4173 30.12C35.4905 30.2481 35.018 30.6508 35.018 31.328C35.018 31.694 35.1634 31.9868 35.4178 32.2064C35.6722 32.4078 35.9812 32.4993 36.3628 32.4993C36.9625 32.4993 37.4531 32.2796 37.8529 31.8221C37.8711 32.06 37.9074 32.2247 37.9983 32.3163C38.0892 32.4078 38.2345 32.4627 38.4526 32.4627C38.5435 32.4627 38.6707 32.4444 38.816 32.3895V32.0234C38.707 32.06 38.6162 32.0783 38.5435 32.0783C38.3981 32.0783 38.3254 31.9502 38.3254 31.694V29.4978C38.3254 28.6559 37.8529 28.2349 36.8716 28.2349C36.3991 28.2349 36.0357 28.3448 35.7449 28.5461C35.4178 28.7657 35.2543 29.1134 35.2179 29.571H35.6904C35.7631 28.967 36.1447 28.6559 36.8534 28.6559C37.5258 28.6559 37.8529 28.9304 37.8529 29.4795C37.8529 29.6991 37.7984 29.8455 37.6894 29.9004C37.5803 29.937 37.3623 29.9919 37.0715 30.0285ZM37.8529 30.2664V30.8887C37.8529 31.2913 37.6894 31.5842 37.4168 31.7855C37.1442 31.9685 36.7989 32.06 36.3991 32.06C36.1629 32.06 35.963 32.0051 35.7994 31.8953C35.6177 31.7672 35.5269 31.5842 35.5269 31.3463C35.5269 30.8338 35.9085 30.541 36.6535 30.4861C37.1987 30.4495 37.5985 30.3763 37.8529 30.2664ZM39.9973 30.2115V32.3895H39.5429V28.3448H39.9973V28.9121C40.4152 28.4546 40.8513 28.2349 41.3057 28.2349C41.8508 28.2349 42.2688 28.418 42.5232 28.8206C42.6686 29.0219 42.7413 29.3331 42.7413 29.754V32.3895H42.2688V29.754C42.2688 29.0219 41.9235 28.6559 41.233 28.6559C40.9604 28.6559 40.7241 28.7474 40.5061 28.8938C40.3244 29.0402 40.1971 29.2232 40.1063 29.4429C40.0336 29.6259 39.9973 29.9004 39.9973 30.2115ZM52.8087 30.12L53.4629 30.0285C53.7537 29.9919 53.9717 29.937 54.0808 29.9004C54.1898 29.8455 54.2443 29.6991 54.2443 29.4795C54.2443 28.9304 53.8991 28.6559 53.2449 28.6559C52.5361 28.6559 52.1363 28.967 52.0818 29.571H51.6093C51.6457 29.1134 51.8092 28.7657 52.1363 28.5461C52.4089 28.3448 52.7906 28.2349 53.263 28.2349C54.2443 28.2349 54.7168 28.6559 54.7168 29.4978V31.694C54.7168 31.9502 54.7895 32.0783 54.9349 32.0783C55.0076 32.0783 55.0984 32.06 55.2075 32.0234V32.3895C55.0439 32.4444 54.9349 32.4627 54.844 32.4627C54.6259 32.4627 54.4806 32.4078 54.3897 32.3163C54.2988 32.2247 54.2625 32.06 54.2443 31.8221C53.8627 32.2796 53.3539 32.4993 52.7542 32.4993C52.3726 32.4993 52.0637 32.4078 51.8092 32.2064C51.5367 31.9868 51.4095 31.694 51.4095 31.328C51.4095 30.6508 51.8819 30.2481 52.8087 30.12ZM54.2443 30.8887V30.2664C53.9717 30.3763 53.572 30.4495 53.045 30.4861C52.2999 30.541 51.9183 30.8338 51.9183 31.3463C51.9183 31.5842 52.0091 31.7672 52.1909 31.8953C52.3544 32.0051 52.5543 32.06 52.7724 32.06C53.1903 32.06 53.5174 31.9685 53.79 31.7855C54.099 31.5842 54.2443 31.2913 54.2443 30.8887ZM56.4614 34V31.7489C56.5886 31.9868 56.8066 32.1698 57.0792 32.3163C57.3336 32.4444 57.6062 32.5176 57.897 32.5176C58.4785 32.5176 58.9328 32.3162 59.2599 31.877C59.5506 31.4744 59.696 30.9802 59.696 30.3763C59.696 29.7174 59.5506 29.2232 59.2781 28.8572C58.951 28.4546 58.4967 28.2349 57.8788 28.2349C57.6062 28.2349 57.3336 28.3082 57.0792 28.4546C56.8066 28.601 56.6067 28.8023 56.4795 29.0585H56.4614V28.3448H55.9889V34H56.4614ZM56.8248 31.5659C56.5704 31.2364 56.4614 30.8521 56.4614 30.3763C56.4614 29.8821 56.5704 29.4795 56.8066 29.15C57.061 28.8206 57.4063 28.6559 57.8243 28.6559C58.2241 28.6559 58.5512 28.784 58.8056 29.0768C59.0418 29.3697 59.1872 29.754 59.1872 30.2481C59.2054 30.7789 59.0963 31.1998 58.8783 31.5293C58.642 31.9136 58.2786 32.0783 57.8243 32.0783C57.4245 32.0783 57.0792 31.9136 56.8248 31.5659ZM61.2407 27.4663H60.7318V26.7708H61.2407V27.4663ZM61.2043 32.3895H60.75V28.3448H61.2043V32.3895ZM63.8211 32.4078V32.0234C63.6758 32.06 63.5485 32.0783 63.4213 32.0783C63.2578 32.0783 63.1306 32.0417 63.0761 31.9502C63.0397 31.877 63.0216 31.7306 63.0216 31.511V28.7291H63.7848V28.3448H63.0216V27.2283H62.5491V28.3448H61.9857V28.7291H62.5491V31.694C62.5491 32.2247 62.8035 32.4993 63.276 32.4993C63.3391 32.4993 63.4845 32.4717 63.7121 32.4284L63.7121 32.4284L63.8211 32.4078ZM65.7656 30.12L66.4016 30.0285C66.7105 29.9919 66.9104 29.937 67.0195 29.9004C67.1285 29.8455 67.183 29.6991 67.183 29.4795C67.183 28.9304 66.8559 28.6559 66.1835 28.6559C65.4748 28.6559 65.0932 28.967 65.0023 29.571H64.5299C64.5662 29.1134 64.7298 28.7657 65.0569 28.5461C65.3294 28.3448 65.7111 28.2349 66.1835 28.2349C67.1648 28.2349 67.6373 28.6559 67.6373 29.4978V31.694C67.6373 31.9502 67.71 32.0783 67.8554 32.0783C67.9281 32.0783 68.0189 32.06 68.1461 32.0234V32.3895C67.9826 32.4444 67.8736 32.4627 67.7827 32.4627C67.5646 32.4627 67.4193 32.4078 67.3284 32.3163C67.2375 32.2247 67.2012 32.06 67.183 31.8221C66.7832 32.2796 66.2926 32.4993 65.6747 32.4993C65.3113 32.4993 64.9842 32.4078 64.7479 32.2064C64.4753 31.9868 64.3481 31.694 64.3481 31.328C64.3663 30.6508 64.8206 30.2481 65.7656 30.12ZM67.183 30.8887V30.2664C66.9286 30.3763 66.5288 30.4495 65.9836 30.4861C65.2386 30.541 64.857 30.8338 64.857 31.3463C64.857 31.5842 64.9478 31.7672 65.1295 31.8953C65.2931 32.0051 65.493 32.06 65.7292 32.06C66.129 32.06 66.4743 31.9685 66.7287 31.7855C67.0376 31.5842 67.183 31.2913 67.183 30.8887ZM68.9457 32.3895H69.4182V26.7708H68.9457V32.3895Z" fill="#58595B"/>
        <path fillRule="evenodd" clipRule="evenodd" d="M19.9169 13.3738V20.3102C19.9169 23.7144 23.3151 23.33 23.3151 23.33V13.264C23.3151 10.9031 22.6427 8.9631 21.298 7.49896C20.0622 6.16292 18.0815 5.35764 15.9916 5.35764C15.5555 5.35764 14.7196 5.37595 14.2289 5.46746C12.5571 5.81519 11.3577 6.49236 10.34 7.60877V2.96011C10.34 -0.370827 6.92365 0.0135119 6.92365 0.0135119V20.1272C6.92365 23.8974 10.34 23.33 10.34 23.33V13.6301C10.34 8.28594 15.083 8.28594 15.4283 8.28594C16.4459 8.26763 19.9169 8.56046 19.9169 13.3738ZM28.2398 21.7012C29.8389 22.964 31.7652 23.6046 33.9459 23.6046L34.1821 23.5863C35.8903 23.568 37.4895 23.0921 38.9251 22.2136C40.3607 21.3351 41.5055 20.1455 42.3778 18.6631L42.7776 17.9676C42.7776 17.9676 40.4334 16.4851 38.4163 18.4434C37.1442 19.6697 35.6904 20.3285 34.0367 20.3285C32.4194 20.3285 30.9656 19.7429 29.948 18.6997C28.894 17.6016 28.367 16.2106 28.367 14.5635C28.367 14.1791 28.3851 13.8131 28.4397 13.4287C28.6396 12.1659 29.1484 11.1044 29.948 10.2442C30.693 9.43895 31.8197 8.83499 33.0554 8.59707C33.4189 8.52386 33.8005 8.50556 34.2366 8.50556H34.3275C35.8176 8.50556 37.126 8.98141 38.1073 10.0063C40.0154 12.0195 42.4323 10.3906 42.4323 10.3906L42.0325 9.67688C41.2875 8.32254 40.1971 7.24273 38.7797 6.43745C37.3804 5.65048 35.8721 5.26614 34.2911 5.26614C33.6188 5.26614 32.9282 5.33934 32.2558 5.46746C30.0388 5.9433 28.2398 7.04141 26.895 8.76178C25.5503 10.4822 24.8961 12.5137 24.9688 14.7831C24.9869 15.4419 25.0414 16.0276 25.1323 16.5401C25.5321 18.6448 26.5861 20.3834 28.2398 21.7012ZM66.5288 20.3651V12.5503C66.5288 10.1161 65.5293 8.81669 63.385 8.41405C63.1669 8.37745 62.9489 8.35914 62.7126 8.35914H62.6218C62.4037 8.35914 62.1675 8.37745 61.9676 8.41405C59.8778 8.79839 58.951 10.0246 58.8965 12.4038V23.3117C58.8965 23.3117 55.4074 23.6595 55.4074 20.3834V12.4038C55.371 10.0612 54.3897 8.79839 52.3362 8.41405C52.1182 8.37745 51.9001 8.35914 51.6639 8.35914H51.573C51.3549 8.35914 51.1369 8.37745 50.9188 8.41405C48.7745 8.79839 47.775 10.1161 47.775 12.5503V23.33C47.775 23.33 44.3041 23.7327 44.3041 20.3651V12.1476C44.3041 10.2808 44.8311 8.70688 45.8487 7.49896C46.8664 6.29104 48.3202 5.54066 50.1374 5.28444C50.3555 5.24783 51.0642 5.19293 51.6639 5.19293C52.3181 5.19293 52.9359 5.26613 52.9905 5.28444C54.735 5.52236 56.1343 6.21783 57.1337 7.31594C58.1514 6.19953 59.5325 5.50406 61.2589 5.28444C61.4588 5.24783 62.0766 5.19293 62.6763 5.19293C63.2578 5.19293 63.9847 5.24783 64.1664 5.28444C66.0018 5.54066 67.4556 6.27274 68.4733 7.49896C69.4909 8.70688 69.9997 10.2808 69.9997 12.1476V23.33C70.0361 23.33 66.5288 23.5863 66.5288 20.3651ZM3.76167 5.57727C3.76167 5.57727 3.77984 16.7414 3.77984 20.2553C3.77984 23.7693 0.345276 23.3117 0.345276 23.3117V8.98141C0.345276 5.15632 3.76167 5.57727 3.76167 5.57727Z" fill="#0072BC"/>
        <path d="M0 2.17315C0 3.32616 0.926788 4.24125 2.05347 4.24125C3.19833 4.24125 4.12511 3.32616 4.12511 2.17315C4.12511 1.02013 3.19833 0.105042 2.05347 0.105042C0.926788 0.105042 0 1.02013 0 2.17315Z" fill="#F7941D"/>
      </svg>