<svg width="18" height="18" viewBox="0 0 18 18" fill="none" xmlns="http://www.w3.org/2000/svg">
<circle cx="9" cy="9" r="9" fill="white"/>
<path d="M13.4935 8.7084C13.4539 9.62154 13.225 10.3474 12.8069 10.886C12.3924 11.4211 11.8337 11.6886 11.1308 11.6886C10.8208 11.6886 10.5523 11.6226 10.3252 11.4906C10.1017 11.3587 9.9323 11.1696 9.81696 10.9235C9.45651 11.4229 8.98612 11.6726 8.4058 11.6726C7.87955 11.6726 7.47224 11.4532 7.18388 11.0144C6.89553 10.5757 6.78739 9.99608 6.85948 9.27555C6.92436 8.687 7.07395 8.16444 7.30824 7.70787C7.54613 7.24773 7.84531 6.8946 8.20575 6.64848C8.5662 6.40235 8.95548 6.27929 9.3736 6.27929C9.88904 6.27929 10.3288 6.397 10.6928 6.63242L11.0335 6.86249L10.7577 9.95506C10.7217 10.2368 10.7523 10.4526 10.8496 10.6025C10.9506 10.7523 11.1092 10.8272 11.3254 10.8272C11.657 10.8272 11.9346 10.6363 12.1581 10.2547C12.3815 9.86945 12.5041 9.36651 12.5257 8.74585C12.587 7.50098 12.3329 6.54503 11.7634 5.87801C11.1975 5.20742 10.3576 4.87212 9.24384 4.87212C8.54818 4.87212 7.92821 5.04691 7.38393 5.39647C6.83966 5.74603 6.41072 6.24362 6.09713 6.88925C5.78354 7.5313 5.60692 8.26788 5.56728 9.09898C5.5096 10.3617 5.76552 11.3373 6.33503 12.0257C6.90454 12.7177 7.757 13.0637 8.89241 13.0637C9.19158 13.0637 9.50517 13.0298 9.83318 12.962C10.1612 12.8978 10.4441 12.8104 10.682 12.6998L10.8875 13.5238C10.6676 13.6665 10.3702 13.7806 9.99538 13.8662C9.62412 13.9554 9.24925 14 8.87078 14C7.9192 14 7.10819 13.8092 6.43776 13.4275C5.76732 13.0494 5.2663 12.4894 4.93469 11.7475C4.60668 11.0091 4.46431 10.1263 4.50756 9.09898C4.55081 8.1145 4.77789 7.23167 5.18881 6.45051C5.59972 5.66934 6.15841 5.06652 6.86489 4.64205C7.57497 4.21402 8.37516 4 9.26547 4C10.1702 4 10.9488 4.19262 11.6012 4.57785C12.2536 4.95951 12.742 5.50704 13.0664 6.22044C13.3908 6.93383 13.5332 7.76315 13.4935 8.7084ZM8.05977 9.27555C8.02012 9.74639 8.06157 10.1049 8.18413 10.351C8.30668 10.5935 8.50493 10.7148 8.77887 10.7148C8.95548 10.7148 9.12309 10.6381 9.28169 10.4848C9.44029 10.3314 9.57185 10.1102 9.67638 9.82129L9.90346 7.29053C9.76289 7.24416 9.61871 7.22097 9.47093 7.22097C9.05641 7.22097 8.73381 7.39576 8.50312 7.74532C8.27604 8.09488 8.12826 8.60496 8.05977 9.27555Z" fill="#4080FF"/>
</svg>
