<svg width="18" height="18" viewBox="0 0 18 18" fill="none" xmlns="http://www.w3.org/2000/svg">
<circle cx="9" cy="9" r="9" fill="white"/>
<path fill-rule="evenodd" clip-rule="evenodd" d="M7.26094 7.60333C9.37149 7.85612 10.9669 9.75017 10.968 12.0043V12.2849C10.0508 11.1122 8.69683 10.4228 7.26094 10.3975V11.8769C7.26089 12.0915 7.14528 12.2873 6.96327 12.3809C6.78126 12.4745 6.56486 12.4495 6.40609 12.3165L2.95473 9.42423C2.83219 9.32174 2.76068 9.1653 2.76068 8.99972C2.76068 8.83414 2.83219 8.6777 2.95473 8.57521L6.40609 5.68294C6.56486 5.54997 6.78126 5.52497 6.96327 5.61858C7.14528 5.71218 7.26089 5.90793 7.26094 6.12258V7.60333Z" fill="#4080FF" stroke="#4080FF" stroke-width="1.5" stroke-linecap="round" stroke-linejoin="round"/>
</svg>
