<svg width="18" height="18" viewBox="0 0 18 18" fill="none" xmlns="http://www.w3.org/2000/svg">
<circle cx="9" cy="9" r="9" fill="white"/>
<g clip-path="url(#clip0)">
<path d="M8.65776 4.79429C8.6845 4.5839 8.63102 4.34721 8.63102 4.13682C8.60428 3.76863 8.71124 3.63714 9.16578 3.53194C9.88771 3.37415 10.4492 3.82123 10.6899 4.42611C10.9038 4.97839 10.9038 5.55696 10.8503 6.13554C10.8235 6.37223 10.7968 6.60892 10.7701 6.84561C10.7433 6.9771 10.7968 6.9771 10.9038 6.9771C11.6524 6.9771 12.3743 6.9771 13.123 6.9771C13.5241 6.9771 13.8984 7.1086 14.1391 7.45048C14.4332 7.87127 14.353 8.29205 14.1658 8.71283C14.1391 8.79173 14.1391 8.81803 14.1925 8.87063C14.6471 9.31771 14.5936 10.133 14.0588 10.5012C13.9519 10.5538 13.9786 10.6064 14.0054 10.6853C14.1391 11.0271 14.0856 11.369 13.8717 11.6583C13.7647 11.8161 13.631 11.895 13.4706 11.9739C13.3904 12.0002 13.3637 12.0528 13.3904 12.1317C13.5776 12.8681 13.0161 13.5255 12.2139 13.4992C11.0107 13.4992 9.8075 13.4992 8.60428 13.4992C8.17647 13.4992 7.74867 13.3677 7.37433 13.1311C7.13369 12.9733 7 12.7366 7 12.4736C7 11.369 7 10.2382 7 9.13362C7 8.68653 7.18717 8.29205 7.40107 7.92386C7.72193 7.42419 8.04278 6.92451 8.36364 6.42483C8.49733 6.18814 8.60428 5.95145 8.6845 5.68846V5.66216C8.71124 5.39917 8.6845 5.10988 8.6845 4.84689C8.65776 4.82059 8.65776 4.82059 8.65776 4.79429Z" fill="#4080FF" stroke="#4D5971"/>
<path d="M6 11.0131C6 11.8253 6 12.6376 6 13.476C6 13.8166 5.80583 14 5.51456 14C5.02913 14 4.54369 14 4.05825 14C3.74272 14 3.5 13.7904 3.5 13.4498C3.5 11.8253 3.5 10.1747 3.5 8.55022C3.5 8.20961 3.71845 8 4.00971 8C4.49515 8 4.98058 8 5.46602 8C5.78155 8 5.97573 8.20961 5.97573 8.55022C6 9.36245 6 10.1747 6 11.0131Z" fill="#4080FF"/>
</g>
<defs>
<clipPath id="clip0">
<rect width="12" height="12" fill="white" transform="translate(3 3)"/>
</clipPath>
</defs>
</svg>
