<svg width="24" height="24" viewBox="0 0 24 24" fill="none" xmlns="http://www.w3.org/2000/svg">
<path d="M12.0001 13.5008V12.0002C13.1051 12.0002 14.0009 11.1044 14.0009 9.99937C14.0009 8.89434 13.1051 7.99854 12.0001 7.99854C10.8951 7.99854 9.99927 8.89434 9.99927 9.99937" stroke="#4D5971" stroke-width="1.5" stroke-linecap="round" stroke-linejoin="round"/>
<path fill-rule="evenodd" clip-rule="evenodd" d="M12.0001 21.0041C16.9727 21.0041 21.0038 16.973 21.0038 12.0003C21.0038 7.0277 16.9727 2.99658 12.0001 2.99658C7.02745 2.99658 2.99634 7.0277 2.99634 12.0003C2.99634 16.973 7.02745 21.0041 12.0001 21.0041Z" stroke="#4D5971" stroke-width="1.5" stroke-linecap="round" stroke-linejoin="round"/>
<path d="M12.0002 15.9517C11.9726 15.9517 11.9502 15.974 11.9502 16.0017C11.9502 16.0293 11.9726 16.0517 12.0002 16.0517C12.0278 16.0517 12.0502 16.0293 12.0502 16.0017C12.0502 15.974 12.0278 15.9517 12.0002 15.9517" stroke="#4D5971" stroke-width="1.5" stroke-linecap="round" stroke-linejoin="round"/>
</svg>
