<svg width="277" height="206" viewBox="0 0 277 206" fill="none" xmlns="http://www.w3.org/2000/svg">
<path d="M138.233 206.001C197.442 206.001 245.441 203.198 245.441 199.742C245.441 196.285 197.442 193.482 138.233 193.482C79.0235 193.482 31.025 196.285 31.025 199.742C31.025 203.198 79.0235 206.001 138.233 206.001Z" fill="#F5F5F5"/>
<path d="M47.2645 131.331L40.458 12.971C40.419 12.4193 40.4947 11.8654 40.6805 11.3444C40.8662 10.8234 41.1579 10.3466 41.5372 9.94393C41.9164 9.5413 42.375 9.22163 42.884 9.00508C43.3929 8.78854 43.9413 8.67982 44.4944 8.68578H179.481C180.637 8.69984 181.744 9.14867 182.584 9.94283C183.423 10.737 183.932 11.8182 184.01 12.971L190.811 131.331C190.851 131.883 190.776 132.436 190.591 132.957C190.405 133.478 190.114 133.954 189.735 134.356C189.356 134.759 188.898 135.078 188.389 135.294C187.881 135.51 187.333 135.618 186.78 135.611H51.7875C50.6332 135.598 49.5263 135.151 48.6878 134.357C47.8493 133.564 47.3411 132.483 47.2645 131.331Z" fill="#263238"/>
<path d="M186.78 135.877H51.7875C50.5668 135.86 49.3969 135.385 48.5099 134.547C47.6229 133.708 47.0836 132.566 46.9991 131.348L40.1981 12.9823C40.1559 12.3951 40.2362 11.8056 40.4337 11.251C40.6312 10.6965 40.9418 10.189 41.3456 9.7607C41.7495 9.3324 42.2379 8.99263 42.7799 8.7629C43.3219 8.53318 43.9057 8.4185 44.4944 8.42614H179.481C180.703 8.44136 181.873 8.91571 182.76 9.75482C183.648 10.5939 184.187 11.7363 184.27 12.9546L191.076 131.315C191.118 131.902 191.037 132.492 190.839 133.046C190.641 133.601 190.331 134.108 189.927 134.537C189.524 134.965 189.036 135.306 188.494 135.536C187.952 135.767 187.369 135.883 186.78 135.877ZM47.5521 131.315C47.6256 132.4 48.105 133.418 48.895 134.166C49.6849 134.914 50.7274 135.337 51.8152 135.351H186.78C187.297 135.357 187.809 135.255 188.284 135.052C188.759 134.85 189.187 134.551 189.542 134.175C189.896 133.799 190.168 133.354 190.342 132.867C190.516 132.381 190.587 131.864 190.551 131.348L183.75 12.9823C183.675 11.897 183.194 10.8797 182.403 10.1328C181.612 9.38588 180.569 8.96412 179.481 8.95143H44.4944C43.9773 8.9447 43.4645 9.04547 42.9885 9.24736C42.5125 9.44926 42.0836 9.74787 41.729 10.1242C41.3745 10.5006 41.102 10.9466 40.9289 11.4338C40.7558 11.921 40.6858 12.4389 40.7234 12.9546L47.5521 131.315Z" fill="#263238"/>
<path d="M48.9178 131.331L42.1112 12.971C42.0722 12.4193 42.148 11.8654 42.3337 11.3444C42.5195 10.8234 42.8112 10.3466 43.1904 9.94393C43.5697 9.5413 44.0283 9.22163 44.5372 9.00508C45.0462 8.78854 45.5945 8.67982 46.1476 8.68578H181.135C182.29 8.69984 183.398 9.14867 184.237 9.94283C185.076 10.737 185.585 11.8182 185.663 12.971L192.464 131.331C192.504 131.883 192.429 132.436 192.244 132.957C192.059 133.478 191.767 133.954 191.389 134.356C191.01 134.759 190.551 135.078 190.043 135.294C189.534 135.51 188.986 135.618 188.433 135.611H53.4408C52.2865 135.598 51.1796 135.151 50.3411 134.357C49.5026 133.564 48.9943 132.483 48.9178 131.331Z" fill="white"/>
<path d="M188.433 135.877H53.4408C52.221 135.859 51.0525 135.384 50.1666 134.545C49.2808 133.706 48.7423 132.565 48.6579 131.348L41.8513 12.9823C41.8092 12.3951 41.8894 11.8056 42.0869 11.251C42.2845 10.6965 42.595 10.189 42.9989 9.7607C43.4028 9.3324 43.8912 8.99263 44.4332 8.7629C44.9752 8.53318 45.559 8.4185 46.1476 8.42614H181.135C182.356 8.44136 183.526 8.91571 184.414 9.75482C185.301 10.5939 185.84 11.7363 185.923 12.9546L192.73 131.315C192.771 131.902 192.69 132.492 192.492 133.046C192.295 133.601 191.984 134.108 191.58 134.537C191.177 134.965 190.689 135.306 190.147 135.536C189.606 135.767 189.022 135.883 188.433 135.877ZM46.1476 8.95143C45.6306 8.9447 45.1178 9.04547 44.6418 9.24736C44.1657 9.44926 43.7368 9.74787 43.3823 10.1242C43.0277 10.5006 42.7553 10.9466 42.5821 11.4338C42.409 11.921 42.339 12.4389 42.3766 12.9546L49.1777 131.315C49.2512 132.4 49.7306 133.418 50.5206 134.166C51.3105 134.914 52.353 135.337 53.4408 135.351H188.433C188.95 135.357 189.462 135.255 189.937 135.052C190.412 134.85 190.841 134.551 191.195 134.175C191.549 133.799 191.822 133.354 191.995 132.867C192.169 132.381 192.24 131.864 192.204 131.348L185.403 12.9823C185.326 11.8979 184.844 10.8821 184.054 10.1357C183.263 9.38927 182.222 8.96667 181.135 8.95143H46.1476Z" fill="#263238"/>
<path d="M94.2913 25.7817H56.5704C55.8847 25.7644 55.2299 25.4928 54.7333 25.0196C54.2367 24.5465 53.9336 23.9057 53.8831 23.2216C53.861 22.8948 53.9067 22.5669 54.0173 22.2585C54.1279 21.9502 54.301 21.668 54.5258 21.4297C54.7506 21.1914 55.0222 21.0021 55.3236 20.8737C55.625 20.7454 55.9497 20.6807 56.2773 20.6837H93.9983C94.6827 20.6931 95.3387 20.9591 95.8364 21.4291C96.334 21.8991 96.6371 22.5388 96.6855 23.2216C96.7108 23.5503 96.6675 23.8806 96.5584 24.1916C96.4492 24.5026 96.2766 24.7875 96.0515 25.0282C95.8263 25.269 95.5536 25.4603 95.2506 25.59C94.9476 25.7197 94.6209 25.785 94.2913 25.7817Z" fill="#407BFF"/>
<path d="M87.3631 34.5792H57.0735C56.3944 34.5691 55.7435 34.3063 55.2477 33.8422C54.7519 33.3781 54.4467 32.7459 54.3918 32.0689C54.3689 31.7421 54.4139 31.4141 54.5238 31.1054C54.6337 30.7968 54.8062 30.5142 55.0305 30.2753C55.2548 30.0365 55.526 29.8466 55.8271 29.7176C56.1283 29.5885 56.4529 29.5231 56.7805 29.5255H87.0645C87.7499 29.5349 88.4066 29.8017 88.9044 30.2729C89.4022 30.744 89.7047 31.3851 89.7518 32.0689C89.7699 32.3931 89.7214 32.7175 89.6094 33.0222C89.4974 33.3269 89.3241 33.6055 89.1003 33.8407C88.8765 34.0758 88.6069 34.2627 88.3081 34.3897C88.0094 34.5168 87.6877 34.5813 87.3631 34.5792Z" fill="#407BFF"/>
<path d="M102.176 45.9368H56.8358C56.39 45.9319 55.9627 45.7579 55.6404 45.4499C55.3181 45.142 55.1248 44.7231 55.0996 44.278C55.0827 44.0652 55.1103 43.8512 55.1806 43.6497C55.2509 43.4482 55.3625 43.2635 55.5081 43.1075C55.6538 42.9514 55.8303 42.8274 56.0265 42.7433C56.2227 42.6593 56.4343 42.617 56.6478 42.6192H101.988C102.433 42.6254 102.86 42.7999 103.182 43.1076C103.504 43.4153 103.698 43.8334 103.724 44.278C103.741 44.4908 103.714 44.7048 103.643 44.9063C103.573 45.1078 103.461 45.2925 103.316 45.4486C103.17 45.6046 102.994 45.7286 102.797 45.8127C102.601 45.8967 102.39 45.939 102.176 45.9368Z" fill="#E0E0E0"/>
<path d="M110.354 51.1674H62.1218C61.6764 51.1612 61.2499 50.9867 60.9278 50.679C60.6058 50.3713 60.4121 49.9532 60.3856 49.5086C60.3678 49.2956 60.3948 49.0813 60.4648 48.8793C60.5349 48.6774 60.6464 48.4924 60.7922 48.3362C60.938 48.1799 61.1149 48.056 61.3115 47.9722C61.5081 47.8884 61.7201 47.8467 61.9338 47.8498H110.166C110.612 47.8547 111.039 48.0287 111.361 48.3366C111.684 48.6446 111.877 49.0635 111.902 49.5086C111.919 49.7213 111.891 49.9353 111.821 50.1369C111.751 50.3384 111.639 50.5231 111.494 50.6791C111.348 50.8352 111.171 50.9592 110.975 51.0432C110.779 51.1273 110.567 51.1696 110.354 51.1674Z" fill="#E0E0E0"/>
<path d="M101.822 56.3979H62.4204C61.9752 56.393 61.5485 56.2187 61.2271 55.9107C60.9057 55.6026 60.7135 55.1837 60.6897 54.7391C60.6702 54.5263 60.6959 54.3117 60.7649 54.1094C60.834 53.9071 60.9449 53.7216 61.0905 53.5651C61.236 53.4086 61.413 53.2845 61.6097 53.201C61.8065 53.1175 62.0187 53.0763 62.2324 53.0803H101.634C102.08 53.0839 102.508 53.2575 102.831 53.5657C103.154 53.874 103.347 54.2936 103.37 54.7391C103.387 54.9519 103.36 55.1659 103.289 55.3674C103.219 55.569 103.108 55.7536 102.962 55.9097C102.816 56.0657 102.64 56.1897 102.443 56.2738C102.247 56.3579 102.036 56.4001 101.822 56.3979Z" fill="#E0E0E0"/>
<path d="M97.6752 61.6283H62.7245C62.2787 61.6234 61.8515 61.4494 61.5291 61.1414C61.2068 60.8335 61.0135 60.4146 60.9883 59.9695C60.9697 59.7568 60.9959 59.5426 61.0653 59.3407C61.1347 59.1388 61.2457 58.9537 61.3911 58.7973C61.5365 58.641 61.713 58.5169 61.9094 58.4331C62.1057 58.3493 62.3175 58.3076 62.531 58.3107H97.4873C97.933 58.3156 98.3603 58.4896 98.6826 58.7976C99.0049 59.1055 99.1982 59.5244 99.2235 59.9695C99.2404 60.1823 99.2128 60.3963 99.1424 60.5978C99.0721 60.7993 98.9605 60.984 98.8149 61.1401C98.6692 61.2961 98.4927 61.4201 98.2965 61.5042C98.1003 61.5882 97.8887 61.6305 97.6752 61.6283Z" fill="#E0E0E0"/>
<path d="M86.5337 70.1381H58.2181C57.7725 70.1344 57.3451 69.9606 57.0234 69.6523C56.7017 69.3439 56.51 68.9243 56.4874 68.4793C56.4688 68.2666 56.4951 68.0524 56.5645 67.8505C56.6338 67.6485 56.7448 67.4634 56.8902 67.3071C57.0356 67.1508 57.2122 67.0267 57.4085 66.9429C57.6049 66.859 57.8166 66.8173 58.0301 66.8205H86.3457C86.7911 66.8267 87.2176 67.0011 87.5396 67.3088C87.8617 67.6165 88.0554 68.0346 88.0819 68.4793C88.0997 68.6922 88.0727 68.9066 88.0026 69.1085C87.9326 69.3104 87.8211 69.4954 87.6753 69.6516C87.5295 69.8079 87.3526 69.9319 87.156 70.0156C86.9593 70.0994 86.7474 70.1411 86.5337 70.1381Z" fill="#E0E0E0"/>
<path d="M94.5512 82.5528H63.9243C63.7109 82.5506 63.4993 82.5929 63.3031 82.6769C63.1069 82.761 62.9304 82.885 62.7847 83.0411C62.6391 83.1971 62.5275 83.3818 62.4572 83.5833C62.3868 83.7848 62.3592 83.9988 62.3761 84.2116C62.4026 84.6562 62.5963 85.0744 62.9184 85.3821C63.2404 85.6897 63.667 85.8642 64.1123 85.8704H94.7502C94.9637 85.8726 95.1753 85.8303 95.3715 85.7463C95.5677 85.6622 95.7442 85.5382 95.8899 85.3822C96.0355 85.2261 96.1471 85.0414 96.2174 84.8399C96.2878 84.6384 96.3154 84.4244 96.2985 84.2116C96.2731 83.7646 96.0782 83.3442 95.7536 83.0359C95.4289 82.7277 94.9989 82.5549 94.5512 82.5528Z" fill="#E0E0E0"/>
<path d="M88.469 77.3204H63.6258C63.4123 77.3182 63.2007 77.3605 63.0045 77.4445C62.8083 77.5286 62.6318 77.6526 62.4861 77.8086C62.3405 77.9647 62.2289 78.1494 62.1586 78.3509C62.0882 78.5524 62.0606 78.7664 62.0776 78.9792C62.1028 79.4243 62.2961 79.8432 62.6184 80.1511C62.9407 80.4591 63.368 80.6331 63.8138 80.638H88.6348C88.8485 80.641 89.0605 80.5993 89.2571 80.5156C89.4537 80.4318 89.6306 80.3078 89.7764 80.1516C89.9222 79.9953 90.0337 79.8103 90.1038 79.6084C90.1738 79.4065 90.2008 79.1922 90.183 78.9792C90.1581 78.5379 89.9679 78.1221 89.6503 77.8147C89.3326 77.5073 88.9109 77.3308 88.469 77.3204Z" fill="#E0E0E0"/>
<path d="M90.9959 72.0899H63.3493C63.1361 72.0877 62.9247 72.1299 62.7288 72.214C62.5328 72.2982 62.3566 72.4223 62.2114 72.5784C62.0662 72.7346 61.9552 72.9193 61.8855 73.1208C61.8158 73.3224 61.7889 73.5362 61.8066 73.7487C61.8305 74.1933 62.0226 74.6122 62.3441 74.9202C62.6655 75.2283 63.0921 75.4025 63.5373 75.4075H91.2115C91.4252 75.4106 91.6372 75.3689 91.8338 75.2851C92.0304 75.2013 92.2073 75.0773 92.3531 74.9211C92.4989 74.7649 92.6104 74.5798 92.6804 74.3779C92.7505 74.176 92.7775 73.9617 92.7597 73.7487C92.7329 73.2994 92.5353 72.8773 92.2074 72.5689C91.8794 72.2605 91.446 72.0891 90.9959 72.0899Z" fill="#E0E0E0"/>
<path d="M88.8284 110.033H60.5128C60.0674 110.026 59.6409 109.852 59.3188 109.544C58.9968 109.237 58.8031 108.818 58.7766 108.374C58.7588 108.161 58.7858 107.946 58.8558 107.745C58.9259 107.543 59.0374 107.358 59.1832 107.201C59.329 107.045 59.5059 106.921 59.7025 106.837C59.8991 106.754 60.1111 106.712 60.3248 106.715H88.6404C89.0856 106.72 89.5122 106.894 89.8336 107.202C90.1551 107.51 90.3472 107.929 90.3711 108.374C90.3896 108.586 90.3634 108.801 90.294 109.003C90.2246 109.205 90.1137 109.39 89.9683 109.546C89.8229 109.702 89.6463 109.826 89.4499 109.91C89.2536 109.994 89.0418 110.036 88.8284 110.033Z" fill="#E0E0E0"/>
<path d="M96.8569 122.451H66.219C66.0056 122.449 65.794 122.491 65.5978 122.575C65.4016 122.659 65.225 122.783 65.0794 122.94C64.9337 123.096 64.8222 123.28 64.7519 123.482C64.6815 123.683 64.6539 123.897 64.6708 124.11C64.6973 124.555 64.891 124.973 65.2131 125.281C65.5351 125.588 65.9616 125.763 66.407 125.769H97.0449C97.2586 125.772 97.4706 125.73 97.6672 125.646C97.8638 125.563 98.0407 125.439 98.1865 125.282C98.3323 125.126 98.4438 124.941 98.5139 124.739C98.5839 124.537 98.6109 124.323 98.5931 124.11C98.5666 123.665 98.3729 123.247 98.0509 122.94C97.7288 122.632 97.3023 122.457 96.8569 122.451Z" fill="#E0E0E0"/>
<path d="M90.7415 117.221H65.9149C65.7017 117.219 65.4903 117.261 65.2944 117.345C65.0984 117.429 64.9222 117.553 64.777 117.709C64.6318 117.865 64.5207 118.05 64.451 118.252C64.3813 118.453 64.3545 118.667 64.3722 118.88C64.3974 119.325 64.5907 119.744 64.9131 120.052C65.2354 120.359 65.6626 120.533 66.1084 120.538H90.9295C91.1429 120.541 91.3545 120.498 91.5507 120.414C91.7469 120.33 91.9235 120.206 92.0691 120.05C92.2148 119.894 92.3263 119.709 92.3967 119.508C92.467 119.306 92.4946 119.092 92.4777 118.88C92.4512 118.435 92.2575 118.017 91.9354 117.709C91.6134 117.401 91.1869 117.227 90.7415 117.221Z" fill="#E0E0E0"/>
<path d="M93.2905 111.99H65.644C65.4303 111.987 65.2183 112.029 65.0217 112.113C64.8251 112.197 64.6482 112.321 64.5024 112.477C64.3566 112.633 64.245 112.818 64.175 113.02C64.105 113.222 64.078 113.436 64.0958 113.649C64.1222 114.094 64.316 114.512 64.638 114.82C64.9601 115.127 65.3866 115.302 65.832 115.308H93.5062C93.7196 115.31 93.9312 115.268 94.1274 115.184C94.3236 115.1 94.5001 114.976 94.6458 114.82C94.7914 114.664 94.903 114.479 94.9733 114.277C95.0437 114.076 95.0713 113.862 95.0544 113.649C95.0276 113.2 94.83 112.778 94.502 112.469C94.1741 112.161 93.7407 111.99 93.2905 111.99Z" fill="#E0E0E0"/>
<path d="M95.4635 98.2443H64.8256C64.6122 98.2412 64.4004 98.2829 64.2041 98.3667C64.0077 98.4505 63.8311 98.5746 63.6857 98.7309C63.5403 98.8873 63.4294 99.0724 63.36 99.2743C63.2906 99.4762 63.2644 99.6904 63.283 99.9031C63.3068 100.348 63.499 100.767 63.8204 101.075C64.1418 101.383 64.5684 101.557 65.0136 101.562H95.6571C95.8708 101.565 96.0827 101.523 96.2793 101.439C96.4759 101.356 96.6528 101.232 96.7987 101.075C96.9445 100.919 97.056 100.734 97.126 100.532C97.196 100.33 97.223 100.116 97.2053 99.9031C97.18 99.4571 96.9859 99.0374 96.6624 98.7293C96.3389 98.4212 95.9103 98.2478 95.4635 98.2443Z" fill="#E0E0E0"/>
<path d="M89.3481 93.0138H64.527C64.3136 93.0115 64.102 93.0538 63.9058 93.1379C63.7096 93.2219 63.5331 93.3459 63.3874 93.502C63.2418 93.658 63.1302 93.8427 63.0599 94.0442C62.9895 94.2458 62.9619 94.4598 62.9788 94.6725C63.0053 95.1172 63.199 95.5353 63.5211 95.843C63.8431 96.1507 64.2697 96.3251 64.715 96.3313H89.5361C89.7495 96.3335 89.9611 96.2913 90.1573 96.2072C90.3535 96.1232 90.5301 95.9991 90.6757 95.8431C90.8214 95.687 90.9329 95.5024 91.0033 95.3008C91.0736 95.0993 91.1012 94.8853 91.0843 94.6725C91.0591 94.2275 90.8658 93.8086 90.5435 93.5006C90.2211 93.1927 89.7939 93.0186 89.3481 93.0138Z" fill="#E0E0E0"/>
<path d="M91.8971 87.7833H64.2506C64.0373 87.781 63.826 87.8233 63.6301 87.9074C63.4341 87.9915 63.2579 88.1156 63.1127 88.2718C62.9674 88.4279 62.8564 88.6127 62.7867 88.8142C62.717 89.0157 62.6902 89.2296 62.7079 89.4421C62.7331 89.8872 62.9264 90.3061 63.2488 90.614C63.5711 90.922 63.9983 91.096 64.4441 91.1009H92.0907C92.3041 91.1031 92.5157 91.0608 92.7119 90.9768C92.9081 90.8927 93.0846 90.7687 93.2303 90.6126C93.3759 90.4566 93.4875 90.2719 93.5578 90.0704C93.6282 89.8688 93.6558 89.6549 93.6389 89.4421C93.6123 88.9965 93.4178 88.5776 93.0946 88.2698C92.7714 87.9619 92.3435 87.7881 91.8971 87.7833Z" fill="#E0E0E0"/>
<path d="M143.795 44.8426H130.121C126.433 44.7984 122.897 43.3668 120.216 40.8329C117.536 38.299 115.908 34.8486 115.657 31.1687C115.532 29.4065 115.774 27.6377 116.367 25.9738C116.961 24.31 117.893 22.7872 119.104 21.5017C120.316 20.2163 121.781 19.196 123.407 18.5053C125.033 17.8147 126.785 17.4687 128.551 17.4891C132.24 17.5336 135.776 18.9661 138.456 21.5013C141.135 24.0365 142.761 27.4882 143.01 31.1687L143.795 44.8426Z" fill="#407BFF"/>
<path d="M129.983 42.475C126.934 42.4376 124.011 41.2533 121.796 39.1579C119.58 37.0625 118.235 34.2098 118.029 31.1676C117.925 29.7111 118.124 28.2488 118.614 26.8732C119.104 25.4976 119.874 24.2387 120.875 23.1759C121.876 22.1132 123.087 21.2698 124.432 20.699C125.776 20.1283 127.223 19.8426 128.684 19.8601C131.734 19.8949 134.659 21.0782 136.876 23.1739C139.093 25.2697 140.438 28.124 140.644 31.1676C140.747 32.6244 140.547 34.0868 140.056 35.4623C139.566 36.8379 138.795 38.0968 137.793 39.1595C136.791 40.2221 135.58 41.0654 134.236 41.6361C132.891 42.2068 131.443 42.4924 129.983 42.475Z" fill="white"/>
<path d="M130.68 26.5898L131.233 35.7464H128.7L128.357 29.7471C128 30.0327 127.617 30.2845 127.213 30.4991C126.759 30.7225 126.287 30.9074 125.803 31.052L125.687 29.0006C126.387 28.7998 127.041 28.4636 127.611 28.0109C128.061 27.6263 128.412 27.1389 128.634 26.5898H130.68Z" fill="#263238"/>
<path d="M152.238 72.1962H165.912C167.679 72.2167 169.43 71.8707 171.056 71.18C172.681 70.4893 174.146 69.4689 175.357 68.1834C176.568 66.8978 177.5 65.375 178.093 63.7111C178.686 62.0473 178.927 60.2785 178.801 58.5167C178.551 54.8372 176.925 51.3869 174.245 48.8528C171.566 46.3188 168.03 44.8871 164.342 44.8427C162.576 44.8215 160.825 45.1668 159.199 45.8568C157.573 46.5468 156.108 47.5666 154.896 48.8516C153.684 50.1367 152.752 51.6591 152.159 53.3227C151.565 54.9862 151.323 56.7548 151.448 58.5167L152.238 72.1962Z" fill="#407BFF"/>
<path d="M165.774 69.8245C167.235 69.842 168.683 69.5563 170.027 68.9856C171.371 68.415 172.583 67.5717 173.585 66.509C174.586 65.4464 175.357 64.1875 175.848 62.8119C176.338 61.4363 176.538 59.9739 176.435 58.5171C176.228 55.474 174.882 52.6204 172.666 50.5249C170.449 48.4294 167.525 47.2457 164.475 47.2097C163.015 47.193 161.567 47.4792 160.224 48.0503C158.88 48.6213 157.669 49.4647 156.668 50.5273C155.667 51.5898 154.897 52.8485 154.407 54.2237C153.916 55.5989 153.717 57.0608 153.82 58.5171C154.025 61.5598 155.37 64.4133 157.586 66.5089C159.801 68.6045 162.725 69.7884 165.774 69.8245Z" fill="white"/>
<path d="M169.385 63.0947H161.882C161.922 62.3539 162.148 61.6351 162.54 61.0046C163.177 60.1082 163.962 59.3266 164.862 58.6934C165.36 58.3426 165.808 57.926 166.194 57.4548C166.369 57.2219 166.462 56.9384 166.46 56.6475C166.453 56.5129 166.418 56.3812 166.358 56.2605C166.298 56.1397 166.214 56.0325 166.112 55.9453C165.9 55.7498 165.62 55.6446 165.332 55.6523C165.19 55.645 165.049 55.6684 164.917 55.7209C164.785 55.7734 164.667 55.8537 164.569 55.9564C164.337 56.2612 164.214 56.6351 164.221 57.018L161.705 56.8134C161.723 56.2339 161.875 55.6664 162.147 55.1546C162.396 54.7496 162.765 54.4325 163.203 54.2478C163.828 54.005 164.497 53.8958 165.166 53.9271C165.87 53.8986 166.573 54.0017 167.24 54.2312C167.721 54.4181 168.139 54.7384 168.445 55.1546C168.746 55.5617 168.921 56.0481 168.948 56.5535C168.977 57.1044 168.84 57.6513 168.555 58.1239C168.115 58.7792 167.552 59.3426 166.897 59.7827C166.41 60.131 166.089 60.3743 165.929 60.5181C165.735 60.692 165.55 60.8766 165.376 61.071H169.285L169.385 63.0947Z" fill="#263238"/>
<g opacity="0.4">
<path opacity="0.4" d="M146.941 99.5266H133.256C129.568 99.4824 126.032 98.0508 123.351 95.5169C120.671 92.983 119.043 89.5326 118.792 85.8527C118.666 84.0911 118.907 82.3226 119.5 80.659C120.093 78.9955 121.025 77.473 122.236 76.1878C123.447 74.9027 124.912 73.8828 126.538 73.1928C128.163 72.5027 129.915 72.1574 131.681 72.1787C135.369 72.2229 138.905 73.6545 141.586 76.1884C144.266 78.7223 145.894 82.1727 146.145 85.8527L146.941 99.5266Z" fill="#407BFF"/>
</g>
<path d="M133.129 97.1762C130.08 97.14 127.156 95.9561 124.94 93.8605C122.725 91.7649 121.38 88.9114 121.175 85.8687C121.071 84.4122 121.27 82.95 121.76 81.5744C122.25 80.1988 123.02 78.9398 124.021 77.8771C125.023 76.8144 126.234 75.9709 127.578 75.4002C128.922 74.8295 130.37 74.5438 131.83 74.5613C134.875 74.6043 137.793 75.791 140.003 77.8858C142.214 79.9806 143.556 82.8303 143.762 85.8687C143.865 87.3232 143.666 88.7832 143.177 90.1569C142.688 91.5306 141.92 92.7881 140.921 93.8504C139.922 94.9126 138.714 95.7565 137.373 96.3289C136.032 96.9013 134.587 97.1898 133.129 97.1762Z" fill="white"/>
<path d="M131.15 83.9734L128.761 83.5477C128.876 82.8612 129.245 82.2432 129.795 81.817C130.49 81.3718 131.31 81.1606 132.134 81.2143C133.046 81.1415 133.956 81.3729 134.722 81.8723C134.981 82.0674 135.194 82.3171 135.346 82.6038C135.498 82.8904 135.585 83.207 135.601 83.5311C135.629 83.9018 135.538 84.2719 135.341 84.5872C135.111 84.9358 134.797 85.221 134.429 85.4166C134.713 85.4743 134.987 85.575 135.241 85.7152C135.546 85.8919 135.801 86.143 135.982 86.445C136.174 86.7711 136.28 87.1399 136.292 87.5177C136.322 88.0411 136.209 88.5628 135.966 89.0272C135.724 89.5042 135.337 89.8916 134.86 90.1331C134.231 90.4213 133.543 90.5559 132.853 90.5257C132.188 90.5492 131.524 90.4499 130.895 90.2326C130.43 90.0544 130.014 89.766 129.684 89.3921C129.333 88.982 129.067 88.5066 128.899 87.9932L131.382 87.6615C131.452 88.0527 131.63 88.4166 131.896 88.712C132.116 88.9144 132.405 89.0251 132.703 89.0217C132.859 89.0265 133.013 88.9962 133.154 88.933C133.296 88.8698 133.422 88.7754 133.522 88.6567C133.737 88.3763 133.836 88.0239 133.798 87.6725C133.799 87.3126 133.665 86.9655 133.422 86.6994C133.303 86.5853 133.163 86.4962 133.009 86.4373C132.855 86.3784 132.691 86.351 132.527 86.3566C132.254 86.3697 131.984 86.4199 131.725 86.5058V84.7199C131.835 84.7255 131.946 84.7255 132.057 84.7199C132.204 84.7244 132.351 84.6993 132.489 84.6461C132.626 84.593 132.752 84.5127 132.858 84.4102C132.957 84.3137 133.033 84.1969 133.081 84.068C133.13 83.9391 133.15 83.8012 133.14 83.6638C133.134 83.4163 133.033 83.1807 132.858 83.0058C132.668 82.8377 132.42 82.7505 132.167 82.7625C132.038 82.7564 131.909 82.7769 131.789 82.8225C131.668 82.8682 131.558 82.9381 131.465 83.0279C131.259 83.3001 131.149 83.6323 131.15 83.9734Z" fill="#263238"/>
<path d="M155.374 126.896H169.048C170.814 126.917 172.565 126.571 174.191 125.88C175.817 125.19 177.282 124.169 178.494 122.884C179.706 121.598 180.638 120.076 181.231 118.412C181.825 116.748 182.067 114.979 181.942 113.217C181.695 109.535 180.069 106.081 177.39 103.544C174.71 101.007 171.173 99.5723 167.483 99.5263C165.717 99.505 163.966 99.8503 162.34 100.54C160.714 101.23 159.25 102.25 158.038 103.535C156.827 104.821 155.895 106.343 155.303 108.007C154.71 109.67 154.468 111.439 154.594 113.2L155.374 126.896Z" fill="#E0E0E0"/>
<path d="M168.92 124.524C170.381 124.542 171.828 124.256 173.172 123.685C174.517 123.115 175.728 122.271 176.729 121.208C177.73 120.146 178.5 118.887 178.99 117.511C179.48 116.136 179.68 114.673 179.575 113.217C179.368 110.175 178.023 107.323 175.808 105.228C173.593 103.134 170.67 101.951 167.621 101.915C166.161 101.897 164.714 102.183 163.37 102.753C162.026 103.324 160.815 104.166 159.813 105.228C158.811 106.291 158.04 107.549 157.549 108.924C157.059 110.299 156.858 111.76 156.961 113.217C157.167 116.26 158.513 119.113 160.73 121.209C162.946 123.304 165.87 124.488 168.92 124.524Z" fill="white"/>
<path d="M168.871 116.114H164.315L164.198 114.057L168.439 108.639H170.623L170.939 114.168H172.072L172.183 116.109H171.077L171.176 117.768H168.998L168.871 116.114ZM168.76 114.174L168.594 111.343L166.349 114.174H168.76Z" fill="#E0E0E0"/>
<path d="M150.397 100.031C150.273 100.03 150.154 99.9819 150.064 99.8968C149.974 99.8117 149.919 99.6957 149.911 99.5719L146.77 44.8705C146.76 44.8036 146.764 44.7354 146.782 44.6702C146.8 44.605 146.831 44.5443 146.874 44.4919C146.917 44.4395 146.97 44.3965 147.03 44.3658C147.09 44.335 147.156 44.3171 147.224 44.3133C147.291 44.3094 147.359 44.3197 147.422 44.3434C147.485 44.3671 147.543 44.4037 147.591 44.4509C147.64 44.4981 147.678 44.5549 147.703 44.6176C147.728 44.6803 147.74 44.7476 147.738 44.8152L150.856 99.5277C150.864 99.6559 150.82 99.7819 150.735 99.8782C150.65 99.9745 150.531 100.033 150.403 100.042L150.397 100.031Z" fill="#407BFF"/>
<path d="M151.945 127.379C151.822 127.379 151.704 127.332 151.615 127.248C151.525 127.164 151.471 127.048 151.464 126.926L149.889 99.5721C149.893 99.4507 149.942 99.3352 150.027 99.2482C150.112 99.1613 150.226 99.1093 150.347 99.1024C150.468 99.0954 150.588 99.1341 150.682 99.2108C150.776 99.2875 150.838 99.3966 150.856 99.5168L152.432 126.87C152.438 126.998 152.393 127.124 152.307 127.219C152.221 127.314 152.101 127.372 151.973 127.379H151.945Z" fill="#E0E0E0"/>
<path d="M148.252 44.8414C148.261 44.9729 148.243 45.1049 148.199 45.2292C148.154 45.3534 148.085 45.4671 147.994 45.5631C147.904 45.6592 147.795 45.7355 147.674 45.7874C147.552 45.8392 147.422 45.8654 147.29 45.8643C147.01 45.8651 146.741 45.76 146.536 45.5703C146.331 45.3805 146.205 45.1201 146.184 44.8414C146.175 44.7094 146.193 44.5769 146.238 44.4523C146.282 44.3277 146.352 44.2137 146.443 44.1176C146.534 44.0214 146.644 43.9452 146.766 43.8937C146.888 43.8422 147.019 43.8166 147.152 43.8185C147.43 43.8191 147.698 43.9247 147.902 44.1144C148.106 44.304 148.231 44.5636 148.252 44.8414Z" fill="white"/>
<path d="M147.29 46.3511C146.89 46.3464 146.507 46.1912 146.217 45.9165C145.927 45.6419 145.751 45.2679 145.725 44.8693C145.711 44.6713 145.739 44.4727 145.805 44.2859C145.872 44.099 145.977 43.928 146.113 43.7837C146.249 43.6393 146.413 43.5246 146.596 43.4469C146.779 43.3692 146.975 43.3301 147.174 43.3321C147.573 43.3381 147.955 43.4937 148.245 43.7681C148.535 44.0425 148.711 44.4158 148.738 44.814C148.754 45.0155 148.727 45.2181 148.66 45.4086C148.592 45.5991 148.485 45.7733 148.346 45.9198C148.209 46.0608 148.045 46.1719 147.863 46.2461C147.681 46.3203 147.486 46.3561 147.29 46.3511ZM147.174 44.3053C147.108 44.3038 147.043 44.3158 146.982 44.3405C146.921 44.3652 146.866 44.4022 146.82 44.449C146.773 44.4969 146.738 44.5544 146.716 44.6175C146.694 44.6805 146.686 44.7475 146.693 44.814C146.707 44.9632 146.776 45.1018 146.886 45.2036C146.996 45.3055 147.14 45.3636 147.29 45.3669C147.355 45.3684 147.421 45.3564 147.482 45.3316C147.542 45.3069 147.598 45.27 147.644 45.2231C147.688 45.1737 147.722 45.116 147.744 45.0534C147.765 44.9907 147.775 44.9244 147.771 44.8582C147.756 44.709 147.687 44.5704 147.577 44.4685C147.467 44.3667 147.324 44.3086 147.174 44.3053Z" fill="#407BFF"/>
<path d="M149.844 72.1949C149.853 72.3267 149.834 72.4589 149.789 72.5831C149.744 72.7073 149.674 72.8209 149.583 72.9169C149.492 73.0129 149.383 73.0891 149.261 73.1409C149.14 73.1927 149.009 73.2188 148.877 73.2178C148.597 73.2186 148.328 73.1136 148.123 72.9238C147.917 72.734 147.792 72.4736 147.771 72.1949C147.761 72.0632 147.778 71.9308 147.822 71.8062C147.866 71.6816 147.936 71.5676 148.026 71.4713C148.117 71.3751 148.226 71.2988 148.348 71.2472C148.47 71.1957 148.601 71.1701 148.733 71.172C149.013 71.1698 149.284 71.2742 149.49 71.4641C149.697 71.654 149.823 71.9153 149.844 72.1949Z" fill="white"/>
<path d="M148.86 73.7C148.462 73.6955 148.079 73.541 147.789 73.2675C147.499 72.994 147.323 72.6213 147.295 72.2237C147.28 72.0222 147.307 71.8198 147.375 71.6294C147.443 71.439 147.549 71.2648 147.688 71.1179C147.824 70.9747 147.988 70.8611 148.169 70.784C148.351 70.707 148.547 70.6681 148.744 70.67C149.143 70.6746 149.525 70.829 149.815 71.1025C150.105 71.3761 150.281 71.7487 150.309 72.1463C150.323 72.344 150.295 72.5424 150.228 72.7289C150.162 72.9154 150.057 73.0861 149.921 73.2301C149.784 73.374 149.62 73.4882 149.437 73.5652C149.255 73.6423 149.058 73.6807 148.86 73.6779V73.7ZM148.744 71.6542C148.678 71.6538 148.613 71.6668 148.552 71.6925C148.491 71.7181 148.436 71.7559 148.39 71.8035C148.345 71.8526 148.311 71.9102 148.289 71.973C148.267 72.0357 148.258 72.1022 148.263 72.1684C148.278 72.3176 148.347 72.4562 148.457 72.5581C148.567 72.66 148.71 72.718 148.86 72.7214C148.926 72.7223 148.991 72.7095 149.052 72.6839C149.112 72.6583 149.167 72.6204 149.212 72.5726C149.257 72.5248 149.292 72.4681 149.314 72.4062C149.337 72.3442 149.346 72.2783 149.341 72.2127C149.327 72.0615 149.258 71.9208 149.147 71.8177C149.036 71.7146 148.89 71.6563 148.738 71.6542H148.744Z" fill="#407BFF"/>
<path d="M151.398 99.5269C151.407 99.6589 151.389 99.7914 151.344 99.916C151.3 100.041 151.23 100.155 151.139 100.251C151.048 100.347 150.938 100.423 150.816 100.475C150.694 100.526 150.563 100.552 150.43 100.55C150.156 100.544 149.893 100.436 149.694 100.246C149.495 100.057 149.373 99.8008 149.352 99.5269C149.343 99.3953 149.361 99.2633 149.405 99.1391C149.45 99.0149 149.519 98.9012 149.61 98.8051C149.7 98.7091 149.809 98.6327 149.93 98.5809C150.052 98.5291 150.182 98.5029 150.314 98.5039C150.59 98.5087 150.854 98.6162 151.054 98.8054C151.255 98.9947 151.377 99.252 151.398 99.5269Z" fill="white"/>
<path d="M150.43 101.053C150.031 101.047 149.649 100.892 149.359 100.617C149.069 100.343 148.893 99.9697 148.866 99.5715C148.85 99.37 148.877 99.1674 148.944 98.9769C149.012 98.7864 149.119 98.6122 149.258 98.4656C149.393 98.3214 149.557 98.2071 149.739 98.1299C149.921 98.0528 150.117 98.0146 150.314 98.0178C150.713 98.0224 151.095 98.1768 151.385 98.4503C151.675 98.7238 151.851 99.0965 151.879 99.4941C151.898 99.6954 151.873 99.8983 151.806 100.089C151.739 100.28 151.632 100.454 151.492 100.6C151.356 100.745 151.191 100.859 151.009 100.937C150.826 101.015 150.629 101.055 150.43 101.053ZM150.314 99.0075C150.249 99.0064 150.183 99.0185 150.123 99.0432C150.062 99.0679 150.007 99.1047 149.96 99.1513C149.872 99.2515 149.826 99.3826 149.833 99.5162C149.849 99.6649 149.918 99.8029 150.028 99.9045C150.138 100.006 150.281 100.065 150.43 100.069C150.496 100.07 150.562 100.057 150.623 100.031C150.684 100.005 150.739 99.9674 150.784 99.9198C150.831 99.8719 150.866 99.8144 150.888 99.7514C150.91 99.6884 150.918 99.6213 150.911 99.5549C150.895 99.4067 150.826 99.2694 150.716 99.1687C150.606 99.068 150.463 99.0107 150.314 99.0075Z" fill="#E0E0E0"/>
<path d="M152.968 126.898C152.977 127.03 152.959 127.162 152.915 127.286C152.871 127.41 152.801 127.524 152.711 127.62C152.621 127.716 152.511 127.792 152.39 127.844C152.269 127.896 152.138 127.922 152.006 127.921C151.727 127.922 151.457 127.817 151.252 127.627C151.047 127.437 150.921 127.177 150.9 126.898C150.891 126.766 150.909 126.634 150.954 126.509C150.999 126.384 151.069 126.27 151.16 126.174C151.251 126.078 151.361 126.002 151.482 125.95C151.604 125.899 151.736 125.873 151.868 125.875C152.147 125.876 152.415 125.981 152.619 126.171C152.823 126.361 152.947 126.62 152.968 126.898Z" fill="white"/>
<path d="M152.006 128.401C151.608 128.396 151.225 128.242 150.936 127.968C150.646 127.695 150.469 127.322 150.441 126.925C150.423 126.723 150.448 126.52 150.515 126.329C150.581 126.139 150.688 125.964 150.829 125.819C150.965 125.674 151.129 125.559 151.312 125.481C151.495 125.403 151.692 125.364 151.89 125.365C152.289 125.371 152.672 125.527 152.961 125.801C153.251 126.076 153.427 126.449 153.455 126.847C153.468 127.045 153.44 127.243 153.373 127.429C153.306 127.615 153.201 127.785 153.065 127.929C152.929 128.073 152.765 128.187 152.582 128.264C152.4 128.342 152.204 128.381 152.006 128.379V128.401ZM151.89 126.355C151.824 126.355 151.759 126.368 151.698 126.393C151.637 126.419 151.582 126.457 151.536 126.504C151.49 126.552 151.454 126.61 151.432 126.673C151.41 126.736 151.402 126.803 151.409 126.869C151.424 127.018 151.493 127.157 151.603 127.259C151.713 127.361 151.856 127.419 152.006 127.422C152.072 127.423 152.137 127.411 152.198 127.386C152.259 127.362 152.314 127.325 152.36 127.278C152.449 127.178 152.495 127.047 152.487 126.913C152.474 126.763 152.405 126.623 152.295 126.52C152.185 126.417 152.041 126.358 151.89 126.355Z" fill="#E0E0E0"/>
<path d="M234.194 55.0273C234.564 55.5803 234.863 56.0945 235.167 56.6364C235.471 57.1782 235.753 57.7035 236.03 58.2399C236.583 59.3126 237.097 60.4129 237.572 61.5243C238.527 63.7703 239.294 66.0913 239.867 68.4636L240.061 69.3704L240.155 69.8238V69.9344L240.193 70.1666C240.218 70.313 240.234 70.4607 240.243 70.6089C240.261 71.5222 240.072 72.4278 239.69 73.2575C239.126 74.4801 238.392 75.6173 237.512 76.6359C235.94 78.494 234.159 80.164 232.203 81.6123L230.434 79.7544C231.809 78.0106 233.086 76.1924 234.26 74.308C234.781 73.4823 235.204 72.5991 235.521 71.6761C235.611 71.4439 235.639 71.1926 235.604 70.9462L235.571 70.8522L235.46 70.4596L235.228 69.6855C234.561 67.6096 233.763 65.5781 232.839 63.6033C232.38 62.597 231.877 61.6183 231.38 60.6341C231.125 60.1475 230.865 59.6609 230.6 59.1799C230.334 58.6988 230.047 58.2067 229.809 57.8031L234.194 55.0273Z" fill="#FF8B7B"/>
<path d="M231.722 78.7656L227.564 78.937L229.223 82.5034C229.223 82.5034 232.181 82.3376 233.293 80.5461L231.722 78.7656Z" fill="#FF8B7B"/>
<path d="M226.536 80.541L227.564 83.7369L229.24 82.5094L227.564 78.9375L226.536 80.541Z" fill="#FF8B7B"/>
<path d="M223.976 194.887C224.427 194.875 224.876 194.814 225.314 194.705C225.337 194.699 225.358 194.687 225.374 194.671C225.391 194.654 225.402 194.633 225.408 194.611C225.412 194.588 225.41 194.564 225.401 194.543C225.392 194.521 225.377 194.502 225.358 194.489C225.187 194.373 223.661 193.383 223.069 193.649C223.003 193.679 222.945 193.726 222.903 193.785C222.86 193.844 222.833 193.913 222.826 193.986C222.799 194.099 222.802 194.217 222.835 194.329C222.868 194.44 222.93 194.541 223.014 194.622C223.292 194.823 223.634 194.917 223.976 194.887ZM224.977 194.533C224.092 194.71 223.434 194.677 223.18 194.445C223.125 194.39 223.085 194.322 223.065 194.247C223.044 194.173 223.044 194.094 223.063 194.019C223.065 193.987 223.076 193.956 223.093 193.929C223.11 193.901 223.134 193.879 223.163 193.864C223.478 193.726 224.357 194.152 224.977 194.533Z" fill="#407BFF"/>
<path d="M225.286 194.703C225.306 194.709 225.327 194.709 225.347 194.703C225.365 194.692 225.38 194.677 225.391 194.659C225.401 194.64 225.407 194.62 225.408 194.598C225.408 194.538 225.408 193.078 224.855 192.591C224.788 192.529 224.708 192.483 224.621 192.455C224.534 192.428 224.442 192.419 224.352 192.431C224.256 192.434 224.163 192.468 224.089 192.529C224.015 192.59 223.963 192.674 223.943 192.768C223.821 193.321 224.728 194.427 225.203 194.703C225.23 194.713 225.259 194.713 225.286 194.703ZM224.457 192.652C224.553 192.654 224.646 192.692 224.717 192.757C225.043 193.05 225.142 193.863 225.165 194.355C224.689 193.968 224.125 193.15 224.202 192.801C224.202 192.746 224.247 192.674 224.401 192.658L224.457 192.652Z" fill="#407BFF"/>
<path d="M185.669 192.63C185.69 192.631 185.711 192.627 185.73 192.618C185.749 192.61 185.766 192.596 185.779 192.58C185.794 192.56 185.802 192.536 185.802 192.511C185.802 192.486 185.794 192.462 185.779 192.442C185.624 192.243 184.264 190.534 183.529 190.484H183.479C183.413 190.485 183.347 190.504 183.29 190.538C183.233 190.572 183.186 190.62 183.153 190.678C183.093 190.765 183.057 190.867 183.047 190.972C183.038 191.078 183.055 191.184 183.098 191.281C183.391 191.955 184.823 192.386 185.652 192.624L185.669 192.63ZM183.518 190.722C183.921 190.75 184.773 191.607 185.354 192.304C184.248 191.977 183.485 191.574 183.319 191.198C183.291 191.133 183.28 191.063 183.287 190.994C183.294 190.924 183.318 190.857 183.357 190.8C183.37 190.776 183.39 190.756 183.413 190.742C183.436 190.729 183.463 190.722 183.49 190.722H183.518Z" fill="#407BFF"/>
<path d="M185.669 192.631C185.689 192.629 185.709 192.621 185.726 192.608C185.742 192.595 185.755 192.578 185.763 192.559C185.763 192.509 186.266 191.265 185.912 190.524C185.86 190.415 185.787 190.317 185.697 190.236C185.607 190.155 185.501 190.093 185.387 190.054C185.066 189.938 184.9 190.054 184.834 190.154C184.496 190.613 185.127 192.089 185.569 192.592C185.582 192.606 185.597 192.616 185.614 192.623C185.632 192.63 185.65 192.633 185.669 192.631ZM185.188 190.231C185.301 190.245 185.408 190.287 185.5 190.353C185.592 190.42 185.665 190.51 185.713 190.613C185.87 191.159 185.843 191.742 185.636 192.272C185.226 191.68 184.85 190.574 185.049 190.298C185.061 190.271 185.08 190.248 185.105 190.232C185.129 190.216 185.158 190.208 185.188 190.209V190.231Z" fill="#407BFF"/>
<path d="M222.107 37.7871C221.554 40.7951 220.249 47.3694 222.361 49.3268C222.361 49.3268 221.559 52.39 215.975 52.5006C209.832 52.6167 213.022 49.5148 213.022 49.5148C216.367 48.6467 216.268 46.1695 215.671 43.8472L222.107 37.7871Z" fill="#FF8B7B"/>
<path d="M223.196 46.5243C223.043 46.123 222.74 45.7968 222.351 45.6143C221.963 45.4318 221.518 45.4071 221.112 45.5456C219.192 46.1399 217.207 46.5001 215.201 46.6183C214.842 46.6417 214.496 46.7554 214.193 46.9487C213.891 47.1421 213.642 47.4088 213.47 47.7242L211.098 51.9043L224.623 50.2455L223.196 46.5243Z" fill="#407BFF"/>
<path d="M209.738 32.7955C209.774 32.7857 209.808 32.7687 209.837 32.7457C209.886 32.7056 209.918 32.6479 209.925 32.5849C209.932 32.5219 209.915 32.4586 209.876 32.4084C209.648 32.1059 209.349 31.8637 209.006 31.7028C208.663 31.5419 208.286 31.4671 207.908 31.485C207.844 31.492 207.786 31.5238 207.745 31.5734C207.705 31.6231 207.686 31.6867 207.692 31.7504C207.695 31.7815 207.704 31.8117 207.718 31.8392C207.733 31.8668 207.753 31.8911 207.777 31.9107C207.802 31.9303 207.829 31.9448 207.859 31.9534C207.889 31.9619 207.921 31.9644 207.952 31.9605C208.251 31.954 208.548 32.0188 208.817 32.1496C209.086 32.2803 209.32 32.4733 209.5 32.7125C209.528 32.7467 209.565 32.7725 209.607 32.7872C209.649 32.8018 209.694 32.8046 209.738 32.7955Z" fill="#263238"/>
<path d="M208.455 35.7578C208.171 36.7317 207.754 37.6619 207.216 38.5225C207.437 38.6503 207.683 38.7284 207.937 38.7513C208.191 38.7742 208.447 38.7414 208.687 38.6552L208.455 35.7578Z" fill="#FF5652"/>
<path d="M208.787 35.0224C208.82 35.4315 208.626 35.7799 208.361 35.8075C208.096 35.8352 207.858 35.52 207.808 35.1108C207.758 34.7017 207.963 34.3533 208.228 34.3312C208.494 34.3091 208.754 34.6132 208.787 35.0224Z" fill="#263238"/>
<path d="M208.361 34.3423L207.366 34.1543C207.366 34.1543 207.93 34.8676 208.361 34.3423Z" fill="#263238"/>
<path d="M190.501 195.82L185.597 194.134L189.058 183.225L193.957 184.917L190.501 195.82Z" fill="#FF8B7B"/>
<path d="M230.948 194.744H225.883L225.424 183.021H230.489L230.948 194.744Z" fill="#FF8B7B"/>
<path d="M225.723 194.002H231.407C231.504 194.001 231.598 194.035 231.671 194.098C231.744 194.161 231.792 194.249 231.805 194.345L232.391 198.846C232.401 198.96 232.387 199.075 232.351 199.184C232.314 199.293 232.255 199.392 232.177 199.477C232.1 199.562 232.006 199.63 231.901 199.676C231.796 199.722 231.682 199.747 231.567 199.747C229.582 199.714 228.631 199.598 226.132 199.598C224.589 199.598 222.345 199.752 220.216 199.752C218.087 199.752 218.004 197.657 218.9 197.463C222.875 196.612 223.517 195.434 224.871 194.312C225.111 194.114 225.412 194.004 225.723 194.002Z" fill="#263238"/>
<path d="M186.238 192.144L191.497 194.616C191.588 194.653 191.662 194.723 191.704 194.812C191.746 194.901 191.753 195.003 191.723 195.097L190.369 199.321C190.326 199.428 190.261 199.525 190.179 199.605C190.097 199.686 189.999 199.748 189.891 199.789C189.784 199.829 189.669 199.847 189.554 199.841C189.439 199.835 189.327 199.805 189.224 199.753C187.405 198.862 186.57 198.343 184.248 197.259C182.821 196.59 179.824 195.346 177.845 194.422C175.865 193.499 176.689 191.608 177.59 191.824C181.627 192.802 183.584 192.448 185.331 192.045C185.636 191.977 185.955 192.012 186.238 192.144Z" fill="#263238"/>
<path opacity="0.2" d="M189.058 183.23L187.2 189.069L192.177 190.54L193.963 184.917L189.058 183.23Z" fill="black"/>
<path opacity="0.2" d="M230.489 183.025H225.424L225.662 189.063H230.727L230.489 183.025Z" fill="black"/>
<path d="M232.259 49.9686C234.365 50.3888 236.654 57.9032 236.654 57.9032L230.744 64.3338C230.744 64.3338 225.767 57.3336 226.757 54.7017C227.808 51.9757 229.77 49.4765 232.259 49.9686Z" fill="#407BFF"/>
<path opacity="0.4" d="M232.259 49.9686C234.365 50.3888 236.654 57.9032 236.654 57.9032L230.744 64.3338C230.744 64.3338 225.767 57.3336 226.757 54.7017C227.808 51.9757 229.77 49.4765 232.259 49.9686Z" fill="white"/>
<path opacity="0.4" d="M228.952 54.8467C227.885 53.8957 227.166 54.1998 226.68 54.9794C226.21 57.2354 229.101 61.88 230.268 63.6383C230.788 61.504 231.374 57.0087 228.952 54.8467Z" fill="#407BFF"/>
<path d="M205.22 51.7166C204.844 53.9283 204.761 60.6685 208.217 81.1104L228.786 80.7067C228.394 72.352 228.355 67.1986 232.259 49.9693C229.372 49.4314 226.451 49.1043 223.517 48.9906C220.403 48.8304 217.282 48.8932 214.178 49.1786C211.186 49.5048 207.902 50.1573 206.437 50.4669C206.132 50.5282 205.852 50.6803 205.635 50.9034C205.418 51.1264 205.273 51.4099 205.22 51.7166Z" fill="#407BFF"/>
<path opacity="0.4" d="M205.22 51.7166C204.844 53.9283 204.761 60.6685 208.217 81.1104L228.786 80.7067C228.394 72.352 228.355 67.1986 232.259 49.9693C229.372 49.4314 226.451 49.1043 223.517 48.9906C220.403 48.8304 217.282 48.8932 214.178 49.1786C211.186 49.5048 207.902 50.1573 206.437 50.4669C206.132 50.5282 205.852 50.6803 205.635 50.9034C205.418 51.1264 205.273 51.4099 205.22 51.7166Z" fill="white"/>
<path d="M222.328 32.3368C222.422 37.363 222.571 39.4917 220.26 42.2896C216.782 46.5084 210.606 45.6072 209.013 40.7303C207.576 36.34 207.659 28.8533 212.381 26.3983C213.409 25.8476 214.562 25.5724 215.728 25.5995C216.894 25.6266 218.033 25.955 219.035 26.5529C220.036 27.1507 220.866 27.9977 221.443 29.0112C222.02 30.0248 222.325 31.1705 222.328 32.3368Z" fill="#FF8B7B"/>
<path d="M208.361 31.0261C212.359 30.2299 217.606 28.8752 218.651 25.9557C219.696 23.0362 207.863 20.7582 208.361 31.0261Z" fill="#263238"/>
<path d="M211.435 32.3469C210.882 32.0649 209.837 30.3121 210.484 27.26C211.131 24.2078 215.953 21.4708 219.729 23.6217C215.737 25.1588 211.435 32.3469 211.435 32.3469Z" fill="#407BFF"/>
<path d="M211.098 29.1841C210.423 32.0096 211.098 34.0278 212.204 35.0673C212.204 35.0673 209.439 53.2809 223.262 51.3014C237.086 49.3219 229.03 28.6312 225.795 25.5956C222.56 22.56 213.89 21.0616 211.098 29.1841Z" fill="#263238"/>
<path d="M211.181 33.5796C210.616 34.4868 210.353 35.5493 210.429 36.6152C210.528 37.9643 211.585 37.9643 212.359 37.1681C213.133 36.3719 213.813 34.6965 213.42 33.668C213.028 32.6396 211.773 32.623 211.181 33.5796Z" fill="#FF8B7B"/>
<path d="M213.653 81.0001C213.653 81.0001 216.788 115.647 219.95 135.149C222.505 150.896 224.667 187.743 224.667 187.743H231.567C231.567 187.743 233.818 151.803 232.48 136.177C229.085 96.7033 235.195 93.0153 228.786 80.707L213.653 81.0001Z" fill="#407BFF"/>
<path opacity="0.4" d="M220.669 92.584C218.872 95.227 216.472 98.2736 215.693 101.492C216.312 107.336 217.036 113.8 217.822 120.015C219.724 114.79 222.975 104.345 220.669 92.584Z" fill="black"/>
<path d="M208.217 81.1094C208.217 81.1094 199.973 118.388 197.159 133.577C194.217 149.38 187.399 185.188 187.399 185.188L194.283 188.726C194.283 188.726 207.001 145.598 208.704 137.647C213.194 121.026 227.57 80.75 227.57 80.75L208.217 81.1094Z" fill="#407BFF"/>
<path d="M185.967 186.665L194.333 189.999L195.959 187.085L187.007 183.508L185.967 186.665Z" fill="#263238"/>
<path d="M223.721 187.881H232.507L233.016 184.796L223.716 184.48L223.721 187.881Z" fill="#263238"/>
<path d="M229.09 79.4951L230.03 81.3143C230.102 81.4525 229.931 81.6018 229.693 81.6073L208.129 82.0331C207.941 82.0331 207.786 81.9446 207.775 81.8285L207.581 79.9983C207.581 79.8711 207.725 79.7605 207.93 79.755L228.759 79.3458C228.822 79.339 228.886 79.3492 228.945 79.3754C229.003 79.4017 229.053 79.443 229.09 79.4951Z" fill="#263238"/>
<path d="M226.304 81.8738H226.857C226.967 81.8738 227.056 81.813 227.045 81.7466L226.768 79.3635C226.768 79.2916 226.663 79.2363 226.552 79.2363H226C225.889 79.2363 225.806 79.2971 225.812 79.369L226.088 81.7522C226.099 81.8351 226.193 81.8793 226.304 81.8738Z" fill="#407BFF"/>
<path d="M212.784 82.1375H213.337C213.448 82.1375 213.531 82.0767 213.52 82.0103L213.249 79.6272C213.249 79.5553 213.144 79.5 213.028 79.5H212.475C212.359 79.5 212.276 79.5608 212.287 79.6327L212.558 82.0158C212.574 82.0877 212.674 82.143 212.784 82.1375Z" fill="#407BFF"/>
<path d="M208.654 56.4887C207.519 58.8713 206.237 61.1815 204.817 63.4059C204.103 64.5118 203.374 65.6176 202.561 66.7235C202.174 67.2764 201.737 67.7907 201.322 68.3215C200.907 68.8523 200.437 69.3665 199.951 69.8697C199.44 70.4237 198.885 70.9359 198.292 71.4013C197.718 71.8479 197.116 72.2579 196.49 72.6288C195.302 73.3293 194.062 73.9357 192.779 74.4424C190.303 75.4194 187.731 76.133 185.105 76.5712L184.441 74.0996C186.711 73.1523 188.926 72.0798 191.076 70.8871C192.109 70.3179 193.103 69.6806 194.051 68.9795C194.492 68.6533 194.913 68.3006 195.312 67.9234C195.7 67.5631 196.055 67.169 196.373 66.7456C197.858 64.847 199.207 62.8459 200.41 60.7574C201.046 59.7013 201.632 58.612 202.229 57.5282C202.826 56.4445 203.407 55.3165 203.949 54.2715L208.654 56.4887Z" fill="#FF8B7B"/>
<path d="M206.724 50.3893C201.864 51.4399 200.227 58.5506 200.227 58.5506L206.431 63.8974C206.431 63.8974 212.746 57.406 212.513 53.5079C212.364 50.6105 209.373 49.8198 206.724 50.3893Z" fill="#407BFF"/>
<path opacity="0.4" d="M206.724 50.3893C201.864 51.4399 200.227 58.5506 200.227 58.5506L206.431 63.8974C206.431 63.8974 212.746 57.406 212.513 53.5079C212.364 50.6105 209.373 49.8198 206.724 50.3893Z" fill="white"/>
<path d="M186.985 76.1603L182.069 78.654L180.244 74.4518C180.244 74.4518 184.596 73.4454 186.465 74.3799L186.985 76.1603Z" fill="#FF8B7B"/>
<path d="M180.195 79.518L178.287 76.6704L180.244 74.4531L182.069 78.6554L180.195 79.518Z" fill="#FF8B7B"/>
</svg>
