<svg width="24" height="24" viewBox="0 0 24 24" fill="none" xmlns="http://www.w3.org/2000/svg">
<path fill-rule="evenodd" clip-rule="evenodd" d="M15.25 3C15.25 2.58579 15.5858 2.25 16 2.25H21C21.4142 2.25 21.75 2.58579 21.75 3V8C21.75 8.41421 21.4142 8.75 21 8.75C20.5858 8.75 20.25 8.41421 20.25 8V3.75H16C15.5858 3.75 15.25 3.41421 15.25 3Z" fill="#115DD3"/>
<path fill-rule="evenodd" clip-rule="evenodd" d="M21.5303 2.46967C21.8232 2.76256 21.8232 3.23744 21.5303 3.53033L14.5303 10.5303C14.2374 10.8232 13.7626 10.8232 13.4697 10.5303C13.1768 10.2374 13.1768 9.76256 13.4697 9.46967L20.4697 2.46967C20.7626 2.17678 21.2374 2.17678 21.5303 2.46967Z" fill="#115DD3"/>
<path fill-rule="evenodd" clip-rule="evenodd" d="M5 5.75C4.30921 5.75 3.75 6.30921 3.75 7V19C3.75 19.6908 4.30921 20.25 5 20.25H17C17.6908 20.25 18.25 19.6908 18.25 19V14C18.25 13.5858 18.5858 13.25 19 13.25C19.4142 13.25 19.75 13.5858 19.75 14V19C19.75 20.5192 18.5192 21.75 17 21.75H5C3.48079 21.75 2.25 20.5192 2.25 19V7C2.25 5.48079 3.48079 4.25 5 4.25H10C10.4142 4.25 10.75 4.58579 10.75 5C10.75 5.41421 10.4142 5.75 10 5.75H5Z" fill="#115DD3"/>
</svg>
