<svg width="24" height="24" viewBox="0 0 24 24" fill="none" xmlns="http://www.w3.org/2000/svg">
<path d="M6.41683 8.66776C6.41683 8.25354 6.08105 7.91776 5.66683 7.91776C5.25262 7.91776 4.91683 8.25354 4.91683 8.66776H6.41683ZM19.7527 8.66776C19.7527 8.25354 19.4169 7.91776 19.0027 7.91776C18.5885 7.91776 18.2527 8.25354 18.2527 8.66776H19.7527ZM15.3078 9.77916C15.3078 9.36495 14.972 9.02916 14.5578 9.02916C14.1435 9.02916 13.8078 9.36495 13.8078 9.77916H15.3078ZM13.8078 17.5584C13.8078 17.9726 14.1435 18.3084 14.5578 18.3084C14.972 18.3084 15.3078 17.9726 15.3078 17.5584H13.8078ZM10.8621 9.77916C10.8621 9.36495 10.5264 9.02916 10.1121 9.02916C9.69793 9.02916 9.36214 9.36495 9.36214 9.77916H10.8621ZM9.36214 17.5584C9.36214 17.9726 9.69793 18.3084 10.1121 18.3084C10.5264 18.3084 10.8621 17.9726 10.8621 17.5584H9.36214ZM4 4.58378C3.58579 4.58378 3.25 4.91957 3.25 5.33378C3.25 5.74799 3.58579 6.08378 4 6.08378V4.58378ZM20.6699 6.08378C21.0841 6.08378 21.4199 5.74799 21.4199 5.33378C21.4199 4.91957 21.0841 4.58378 20.6699 4.58378V6.08378ZM7.17813 5.09668C7.04714 5.48964 7.25951 5.91438 7.65247 6.04536C8.04543 6.17635 8.47017 5.96398 8.60115 5.57102L7.17813 5.09668ZM8.4942 3.52017L9.20572 3.75734L9.20577 3.75717L8.4942 3.52017ZM10.6035 1.99988L10.6033 2.74988H10.6035V1.99988ZM14.0664 1.99988V2.74988L14.0673 2.74988L14.0664 1.99988ZM16.1779 3.52017L16.8897 3.28379L16.8895 3.28317L16.1779 3.52017ZM16.0685 5.57024C16.199 5.96334 16.6235 6.17618 17.0166 6.04563C17.4097 5.91507 17.6226 5.49057 17.492 5.09747L16.0685 5.57024ZM4.91683 8.66776V19.781H6.41683V8.66776H4.91683ZM4.91683 19.781C4.91683 21.4227 6.24773 22.7537 7.88948 22.7537V21.2537C7.07616 21.2537 6.41683 20.5943 6.41683 19.781H4.91683ZM7.88948 22.7537H16.7801V21.2537H7.88948V22.7537ZM16.7801 22.7537C18.4218 22.7537 19.7527 21.4228 19.7527 19.781H18.2527C18.2527 20.5943 17.5934 21.2537 16.7801 21.2537V22.7537ZM19.7527 19.781V8.66776H18.2527V19.781H19.7527ZM13.8078 9.77916V17.5584H15.3078V9.77916H13.8078ZM9.36214 9.77916V17.5584H10.8621V9.77916H9.36214ZM4 6.08378H20.6699V4.58378H4V6.08378ZM8.60115 5.57102L9.20572 3.75734L7.78269 3.283L7.17813 5.09668L8.60115 5.57102ZM9.20577 3.75717C9.40616 3.15553 9.96918 2.74973 10.6033 2.74988L10.6037 1.24988C9.32363 1.24957 8.18713 2.06872 7.78263 3.28317L9.20577 3.75717ZM10.6035 2.74988H14.0664V1.24988H10.6035V2.74988ZM14.0673 2.74988C14.702 2.74909 15.2658 3.15502 15.4663 3.75717L16.8895 3.28317C16.4846 2.06768 15.3466 1.24829 14.0655 1.24988L14.0673 2.74988ZM15.4661 3.75656L16.0685 5.57024L17.492 5.09747L16.8897 3.28379L15.4661 3.75656Z" fill="#4D5971"/>
</svg>
