<svg width="16" height="16" viewBox="0 0 16 16" fill="none" xmlns="http://www.w3.org/2000/svg">
<path fill-rule="evenodd" clip-rule="evenodd" d="M3.72222 13.9449C2.21889 13.9449 2.99414 13.9449 1 13.9449H0C0 11.8893 1.66661 10.2227 3.72222 10.2227H6.94444C9.00006 10.2227 10.6667 11.8893 10.6667 13.9449H9.66667C7.99414 13.9449 8.44777 13.9449 6.94444 13.9449H3.72222Z" fill="#B3B8C2"/>
<path d="M3.04263 3.11587C4.30781 1.8507 6.35908 1.8507 7.62425 3.11587C8.88943 4.38105 8.88943 6.43232 7.62425 7.6975C6.35908 8.96267 4.30781 8.96267 3.04263 7.6975C1.77746 6.43232 1.77746 4.38105 3.04263 3.11587Z" fill="#B3B8C2"/>
<path d="M12.6666 4V9.33333" stroke="#B3B8C2" stroke-width="1.5" stroke-linecap="round" stroke-linejoin="round"/>
<path d="M15.3333 6.66634H10" stroke="#B3B8C2" stroke-width="1.5" stroke-linecap="round" stroke-linejoin="round"/>
</svg>
