<svg width="24" height="24" viewBox="0 0 24 24" fill="none" xmlns="http://www.w3.org/2000/svg">
<path d="M1.25879 19.9168V19.9168C1.25879 17.2476 3.42291 15.0834 6.09212 15.0834H10.9255C13.5947 15.0834 15.7588 17.2476 15.7588 19.9168V19.9168" stroke="white" stroke-width="1.5" stroke-linecap="round" stroke-linejoin="round"/>
<path d="M16.9669 3.78638C18.6357 3.78638 19.9878 5.1385 19.9878 6.80721C19.9878 8.47592 18.6357 9.82804 16.9669 9.82804" stroke="white" stroke-width="1.5" stroke-linecap="round" stroke-linejoin="round"/>
<path d="M11.4147 4.20365C13.0196 5.80853 13.0196 8.41055 11.4147 10.0154C9.80987 11.6203 7.20785 11.6203 5.60298 10.0154C3.9981 8.41055 3.9981 5.80853 5.60298 4.20365C7.20785 2.59878 9.80987 2.59878 11.4147 4.20365" stroke="white" stroke-width="1.5" stroke-linecap="round" stroke-linejoin="round"/>
<path d="M18.1756 13.875C20.8448 13.875 23.009 16.0391 23.009 18.7083V18.7083" stroke="white" stroke-width="1.5" stroke-linecap="round" stroke-linejoin="round"/>
</svg>
