<svg width="24" height="24" viewBox="0 0 24 24" fill="none" xmlns="http://www.w3.org/2000/svg">
<g clip-path="url(#clip0)">
<path d="M10.129 8.04517H7.50016C6.85616 8.04517 6.3335 8.56783 6.3335 9.21183V14.7535C6.3335 15.3975 6.85616 15.9202 7.50016 15.9202H10.271L14.9132 19.853C15.6715 20.4958 16.8335 19.9568 16.8335 18.9628V5.0025C16.8335 4.0085 15.6703 3.4695 14.9132 4.11233L10.271 8.04517H10.129Z" stroke="#4D5971" stroke-width="1.5" stroke-linecap="round" stroke-linejoin="round"/>
<path d="M21.4983 21.5575C21.8062 21.8346 22.2804 21.8096 22.5575 21.5017C22.8346 21.1938 22.8096 20.7196 22.5017 20.4425L21.4983 21.5575ZM1.49828 3.55747L21.4983 21.5575L22.5017 20.4425L2.50172 2.44253L1.49828 3.55747Z" fill="#4D5971"/>
<path d="M1.49902 3.55649C1.19117 3.27936 1.16625 2.80514 1.44338 2.49729C1.7205 2.18943 2.19472 2.16452 2.50258 2.44164L1.49902 3.55649ZM21.4972 21.5585L1.49902 3.55649L2.50258 2.44164L22.5008 20.4436L21.4972 21.5585Z" fill="#4D5971"/>
</g>
<defs>
<clipPath id="clip0">
<rect width="24" height="24" fill="white"/>
</clipPath>
</defs>
</svg>
