<svg width="24" height="24" viewBox="0 0 24 24" fill="none" xmlns="http://www.w3.org/2000/svg">
<path fill-rule="evenodd" clip-rule="evenodd" d="M12 8.62988C12.4142 8.62988 12.75 8.96567 12.75 9.37988V13.1199C12.75 13.5341 12.4142 13.8699 12 13.8699C11.5858 13.8699 11.25 13.5341 11.25 13.1199V9.37988C11.25 8.96567 11.5858 8.62988 12 8.62988ZM11 16.3777C10.9975 15.8215 11.4487 15.375 11.999 15.375C12.5503 15.375 13 15.8208 13 16.375C13 16.9272 12.5522 17.375 12 17.375C11.4487 17.375 11.0015 16.9287 11 16.3777ZM14.2323 3.23826L22.6576 17.3249C23.6367 18.9622 22.3991 21 20.4256 21H3.57497C1.60037 21 0.362806 18.9622 1.34296 17.3249L9.76829 3.23826C10.755 1.58725 13.2456 1.58725 14.2323 3.23826Z" fill="white"/>
</svg>
