<svg width="24" height="24" viewBox="0 0 24 24" fill="none" xmlns="http://www.w3.org/2000/svg">
<path d="M11.9995 19.25C11.7925 19.25 11.6245 19.418 11.6265 19.625C11.6255 19.832 11.7935 20 12.0005 20C12.2075 20 12.3755 19.832 12.3755 19.625C12.3755 19.418 12.2075 19.25 11.9995 19.25" stroke="#FF4D54" stroke-width="1.5" stroke-linecap="round" stroke-linejoin="round"/>
<path d="M6 20L19 3" stroke="#FF4D54" stroke-width="1.5" stroke-linecap="round" stroke-linejoin="round"/>
<path d="M14.1158 9.38703C10.7808 8.75903 7.17882 9.62703 4.59082 12" stroke="#FF4D54" stroke-width="1.5" stroke-linecap="round" stroke-linejoin="round"/>
<path d="M17.5138 4.94401C12.2038 3.05301 5.89775 4.00601 1.59375 7.80401" stroke="#FF4D54" stroke-width="1.5" stroke-linecap="round" stroke-linejoin="round"/>
<path d="M17.2666 10.497C18.0316 10.902 18.7536 11.399 19.4076 12" stroke="#FF4D54" stroke-width="1.5" stroke-linecap="round" stroke-linejoin="round"/>
<path d="M20.4209 6.37201C21.1139 6.79701 21.7869 7.25901 22.4059 7.80401" stroke="#FF4D54" stroke-width="1.5" stroke-linecap="round" stroke-linejoin="round"/>
<path d="M14.2617 14.427C15.0477 14.728 15.7857 15.191 16.4197 15.821" stroke="#FF4D54" stroke-width="1.5" stroke-linecap="round" stroke-linejoin="round"/>
</svg>
